InriaSans-Bold.ufo
<glyph name="exclam" format="1">
  <advance width="281"/>
  <unicode hex="0021"/>
  <outline>
    <contour>
      <point x="186" y="199" type="line"/>
      <point x="199" y="460" type="line"/>
      <point x="199" y="680" type="line"/>
      <point x="84" y="680" type="line"/>
      <point x="84" y="460" type="line"/>
      <point x="96" y="199" type="line"/>
    </contour>
    <contour>
      <point x="201" y="0" type="line"/>
      <point x="201" y="119" type="line"/>
      <point x="80" y="119" type="line"/>
      <point x="80" y="0" type="line"/>
    </contour>
  </outline>
</glyph>
<glyph name="quotedbl" format="1">
  <advance width="386"/>
  <unicode hex="0022"/>
  <outline>
    <contour>
      <point x="139" y="388" type="line"/>
      <point x="159" y="584" type="line"/>
      <point x="159" y="680" type="line"/>
      <point x="52" y="680" type="line"/>
      <point x="52" y="584" type="line"/>
      <point x="72" y="388" type="line"/>
    </contour>
    <contour>
      <point x="314" y="388" type="line"/>
      <point x="334" y="584" type="line"/>
      <point x="334" y="680" type="line"/>
      <point x="227" y="680" type="line"/>
      <point x="227" y="584" type="line"/>
      <point x="247" y="388" type="line"/>
    </contour>
  </outline>
</glyph>
<glyph name="numbersign" format="1">
  <advance width="654"/>
  <unicode hex="0023"/>
  <outline>
    <contour>
      <point x="296" y="0" type="line"/>
      <point x="391" y="0" type="line"/>
      <point x="448" y="185" type="line"/>
      <point x="569" y="185" type="line"/>
      <point x="569" y="272" type="line"/>
      <point x="474" y="272" type="line"/>
      <point x="516" y="408" type="line"/>
      <point x="639" y="408" type="line"/>
      <point x="639" y="495" type="line"/>
      <point x="542" y="495" type="line"/>
      <point x="599" y="680" type="line"/>
      <point x="504" y="680" type="line"/>
      <point x="447" y="495" type="line"/>
      <point x="301" y="495" type="line"/>
      <point x="358" y="680" type="line"/>
      <point x="263" y="680" type="line"/>
      <point x="206" y="495" type="line"/>
      <point x="85" y="495" type="line"/>
      <point x="85" y="408" type="line"/>
      <point x="180" y="408" type="line"/>
      <point x="138" y="272" type="line"/>
      <point x="15" y="272" type="line"/>
      <point x="15" y="185" type="line"/>
      <point x="112" y="185" type="line"/>
      <point x="55" y="0" type="line"/>
      <point x="150" y="0" type="line"/>
      <point x="207" y="185" type="line"/>
      <point x="353" y="185" type="line"/>
    </contour>
    <contour>
      <point x="233" y="272" type="line"/>
      <point x="275" y="408" type="line"/>
      <point x="421" y="408" type="line"/>
      <point x="379" y="272" type="line"/>
    </contour>
  </outline>
</glyph>
<glyph name="dollar" format="1">
  <advance width="518"/>
  <unicode hex="0024"/>
  <outline>
    <contour>
      <point x="480" y="191" type="curve" smooth="yes"/>
      <point x="480" y="295"/>
      <point x="430" y="356"/>
      <point x="331" y="389" type="curve" smooth="yes"/>
      <point x="249" y="416" type="line" smooth="yes"/>
      <point x="191" y="435"/>
      <point x="169" y="460"/>
      <point x="169" y="503" type="curve" smooth="yes"/>
      <point x="169" y="560"/>
      <point x="206" y="579"/>
      <point x="268" y="579" type="curve" smooth="yes"/>
      <point x="314" y="579"/>
      <point x="354" y="568"/>
      <point x="418" y="543" type="curve"/>
      <point x="455" y="646" type="line"/>
      <point x="404" y="668"/>
      <point x="358" y="682"/>
      <point x="312" y="687" type="curve"/>
      <point x="312" y="825" type="line"/>
      <point x="202" y="825" type="line"/>
      <point x="202" y="685" type="line"/>
      <point x="96" y="665"/>
      <point x="47" y="592"/>
      <point x="47" y="497" type="curve" smooth="yes"/>
      <point x="47" y="399"/>
      <point x="96" y="336"/>
      <point x="194" y="304" type="curve" smooth="yes"/>
      <point x="276" y="277" type="line" smooth="yes"/>
      <point x="338" y="257"/>
      <point x="358" y="233"/>
      <point x="358" y="187" type="curve" smooth="yes"/>
      <point x="358" y="128"/>
      <point x="319" y="101"/>
      <point x="242" y="101" type="curve" smooth="yes"/>
      <point x="191" y="101"/>
      <point x="144" y="112"/>
      <point x="69" y="144" type="curve"/>
      <point x="32" y="41" type="line"/>
      <point x="96" y="12"/>
      <point x="150" y="-3"/>
      <point x="202" y="-8" type="curve"/>
      <point x="202" y="-145" type="line"/>
      <point x="312" y="-145" type="line"/>
      <point x="312" y="-4" type="line"/>
      <point x="427" y="16"/>
      <point x="480" y="89"/>
    </contour>
  </outline>
</glyph>
<glyph name="ampersand" format="1">
  <advance width="561"/>
  <unicode hex="0026"/>
  <outline>
    <contour>
      <point x="237" y="96" type="curve" smooth="yes"/>
      <point x="188" y="96"/>
      <point x="153" y="120"/>
      <point x="153" y="174" type="curve" smooth="yes"/>
      <point x="153" y="207"/>
      <point x="166" y="243"/>
      <point x="226" y="282" type="curve" smooth="yes"/>
      <point x="296" y="327" type="line" smooth="yes"/>
      <point x="381" y="381"/>
      <point x="440" y="430"/>
      <point x="440" y="524" type="curve" smooth="yes"/>
      <point x="440" y="628"/>
      <point x="368" y="690"/>
      <point x="255" y="690" type="curve" smooth="yes"/>
      <point x="137" y="690"/>
      <point x="73" y="618"/>
      <point x="73" y="528" type="curve" smooth="yes"/>
      <point x="73" y="469"/>
      <point x="101" y="419"/>
      <point x="166" y="369" type="curve"/>
      <point x="71" y="307"/>
      <point x="36" y="244"/>
      <point x="36" y="169" type="curve" smooth="yes"/>
      <point x="36" y="64"/>
      <point x="107" y="-10"/>
      <point x="226" y="-10" type="curve" smooth="yes"/>
      <point x="316" y="-10"/>
      <point x="376" y="35"/>
      <point x="395" y="99" type="curve"/>
      <point x="439" y="0" type="line"/>
      <point x="564" y="0" type="line"/>
      <point x="412" y="295" type="line"/>
      <point x="320" y="239" type="line"/>
      <point x="362" y="158"/>
      <point x="316" y="96"/>
    </contour>
    <contour>
      <point x="184" y="522" type="curve" smooth="yes"/>
      <point x="184" y="564"/>
      <point x="216" y="586"/>
      <point x="256" y="586" type="curve" smooth="yes"/>
      <point x="295" y="586"/>
      <point x="325" y="565"/>
      <point x="325" y="517" type="curve" smooth="yes"/>
      <point x="325" y="482"/>
      <point x="309" y="464"/>
      <point x="240" y="418" type="curve"/>
      <point x="199" y="455"/>
      <point x="184" y="493"/>
    </contour>
  </outline>
</glyph>
<glyph name="quotesingle" format="1">
  <advance width="211"/>
  <unicode hex="0027"/>
  <outline>
    <contour>
      <point x="139" y="388" type="line"/>
      <point x="159" y="584" type="line"/>
      <point x="159" y="680" type="line"/>
      <point x="52" y="680" type="line"/>
      <point x="52" y="584" type="line"/>
      <point x="72" y="388" type="line"/>
    </contour>
  </outline>
</glyph>
<glyph name="parenleft" format="1">
  <advance width="333"/>
  <unicode hex="0028"/>
  <outline>
    <contour>
      <point x="49" y="317" type="curve" smooth="yes"/>
      <point x="49" y="280" type="line" smooth="yes"/>
      <point x="49" y="125"/>
      <point x="116" y="-21"/>
      <point x="252" y="-153" type="curve"/>
      <point x="332" y="-78" type="line"/>
      <point x="218" y="38"/>
      <point x="167" y="150"/>
      <point x="167" y="280" type="curve" smooth="yes"/>
      <point x="167" y="317" type="line" smooth="yes"/>
      <point x="167" y="447"/>
      <point x="218" y="559"/>
      <point x="332" y="675" type="curve"/>
      <point x="252" y="750" type="line"/>
      <point x="116" y="618"/>
      <point x="49" y="472"/>
    </contour>
  </outline>
</glyph>
<glyph name="parenright" format="1">
  <advance width="333"/>
  <unicode hex="0029"/>
  <outline>
    <contour>
      <point x="284" y="280" type="curve" smooth="yes"/>
      <point x="284" y="317" type="line" smooth="yes"/>
      <point x="284" y="472"/>
      <point x="217" y="618"/>
      <point x="81" y="750" type="curve"/>
      <point x="1" y="675" type="line"/>
      <point x="115" y="559"/>
      <point x="166" y="447"/>
      <point x="166" y="317" type="curve" smooth="yes"/>
      <point x="166" y="280" type="line" smooth="yes"/>
      <point x="166" y="150"/>
      <point x="115" y="38"/>
      <point x="1" y="-78" type="curve"/>
      <point x="81" y="-153" type="line"/>
      <point x="217" y="-21"/>
      <point x="284" y="125"/>
    </contour>
  </outline>
</glyph>
<glyph name="asterisk" format="1">
  <advance width="407"/>
  <unicode hex="002A"/>
  <outline>
    <contour>
      <point x="354" y="366" type="line"/>
      <point x="325" y="407" type="line"/>
      <point x="246" y="477" type="line"/>
      <point x="351" y="489" type="line"/>
      <point x="398" y="505" type="line"/>
      <point x="369" y="595" type="line"/>
      <point x="321" y="580" type="line"/>
      <point x="230" y="528" type="line"/>
      <point x="251" y="630" type="line"/>
      <point x="251" y="680" type="line"/>
      <point x="156" y="680" type="line"/>
      <point x="156" y="630" type="line"/>
      <point x="177" y="527" type="line"/>
      <point x="86" y="579" type="line"/>
      <point x="39" y="594" type="line"/>
      <point x="9" y="504" type="line"/>
      <point x="57" y="488" type="line"/>
      <point x="162" y="476" type="line"/>
      <point x="84" y="406" type="line"/>
      <point x="55" y="366" type="line"/>
      <point x="132" y="310" type="line"/>
      <point x="161" y="350" type="line"/>
      <point x="205" y="446" type="line"/>
      <point x="248" y="351" type="line"/>
      <point x="277" y="310" type="line"/>
    </contour>
  </outline>
</glyph>
<glyph name="plus" format="1">
  <advance width="588"/>
  <unicode hex="002B"/>
  <outline>
    <contour>
      <point x="501" y="255" type="line"/>
      <point x="501" y="355" type="line"/>
      <point x="345" y="355" type="line"/>
      <point x="345" y="515" type="line"/>
      <point x="243" y="515" type="line"/>
      <point x="243" y="355" type="line"/>
      <point x="87" y="355" type="line"/>
      <point x="87" y="255" type="line"/>
      <point x="243" y="255" type="line"/>
      <point x="243" y="95" type="line"/>
      <point x="345" y="95" type="line"/>
      <point x="345" y="255" type="line"/>
    </contour>
  </outline>
</glyph>
<glyph name="comma" format="1">
  <advance width="211"/>
  <unicode hex="002C"/>
  <outline>
    <contour>
      <point x="161" y="119" type="line"/>
      <point x="49" y="119" type="line"/>
      <point x="49" y="-24"/>
      <point x="41" y="-102"/>
      <point x="-3" y="-184" type="curve"/>
      <point x="69" y="-223" type="line"/>
      <point x="141" y="-109"/>
      <point x="161" y="-12"/>
      <point x="161" y="100" type="curve" smooth="yes"/>
    </contour>
  </outline>
</glyph>
<glyph name="hyphen" format="1">
  <advance width="404"/>
  <unicode hex="002D"/>
  <outline>
    <contour>
      <point x="50" y="265" type="line"/>
      <point x="354" y="265" type="line"/>
      <point x="354" y="365" type="line"/>
      <point x="50" y="365" type="line"/>
    </contour>
  </outline>
</glyph>
<glyph name="slash" format="1">
  <advance width="394"/>
  <unicode hex="002F"/>
  <outline>
    <contour>
      <point x="285" y="740" type="line"/>
      <point x="-39" y="-143" type="line"/>
      <point x="79" y="-143" type="line"/>
      <point x="403" y="740" type="line"/>
    </contour>
  </outline>
</glyph>
<glyph name="zero" format="1">
  <advance width="610"/>
  <unicode hex="0030"/>
  <outline>
    <contour>
      <point x="545" y="412" type="line" smooth="yes"/>
      <point x="545" y="585"/>
      <point x="462" y="690"/>
      <point x="305" y="690" type="curve" smooth="yes"/>
      <point x="147" y="690"/>
      <point x="65" y="585"/>
      <point x="65" y="412" type="curve" smooth="yes"/>
      <point x="65" y="269" type="line" smooth="yes"/>
      <point x="65" y="96"/>
      <point x="147" y="-10"/>
      <point x="305" y="-10" type="curve" smooth="yes"/>
      <point x="462" y="-10"/>
      <point x="545" y="96"/>
      <point x="545" y="269" type="curve" smooth="yes"/>
    </contour>
    <contour>
      <point x="424" y="412" type="curve" smooth="yes"/>
      <point x="424" y="269" type="line" smooth="yes"/>
      <point x="424" y="158"/>
      <point x="386" y="101"/>
      <point x="305" y="101" type="curve" smooth="yes"/>
      <point x="223" y="101"/>
      <point x="186" y="158"/>
      <point x="186" y="269" type="curve" smooth="yes"/>
      <point x="186" y="412" type="line" smooth="yes"/>
      <point x="186" y="523"/>
      <point x="223" y="579"/>
      <point x="305" y="579" type="curve" smooth="yes"/>
      <point x="386" y="579"/>
      <point x="424" y="523"/>
    </contour>
  </outline>
</glyph>
<glyph name="one" format="1">
  <advance width="377"/>
  <unicode hex="0031"/>
  <outline>
    <contour>
      <point x="10" y="583" type="line"/>
      <point x="63" y="492" type="line"/>
      <point x="165" y="548" type="line"/>
      <point x="165" y="0" type="line"/>
      <point x="283" y="0" type="line"/>
      <point x="283" y="680" type="line"/>
      <point x="183" y="680" type="line"/>
    </contour>
  </outline>
</glyph>
<glyph name="two" format="1">
  <advance width="505"/>
  <unicode hex="0032"/>
  <outline>
    <contour>
      <point x="452" y="0" type="line"/>
      <point x="452" y="113" type="line"/>
      <point x="158" y="113" type="line"/>
      <point x="161" y="180"/>
      <point x="183" y="221"/>
      <point x="232" y="245" type="curve" smooth="yes"/>
      <point x="300" y="279" type="line" smooth="yes"/>
      <point x="381" y="319"/>
      <point x="454" y="372"/>
      <point x="454" y="481" type="curve" smooth="yes"/>
      <point x="454" y="499" type="line" smooth="yes"/>
      <point x="454" y="603"/>
      <point x="395" y="690"/>
      <point x="233" y="690" type="curve" smooth="yes"/>
      <point x="174" y="690"/>
      <point x="114" y="677"/>
      <point x="40" y="644" type="curve"/>
      <point x="77" y="541" type="line"/>
      <point x="142" y="565"/>
      <point x="183" y="579"/>
      <point x="229" y="579" type="curve" smooth="yes"/>
      <point x="304" y="579"/>
      <point x="336" y="548"/>
      <point x="336" y="499" type="curve" smooth="yes"/>
      <point x="336" y="481" type="line" smooth="yes"/>
      <point x="336" y="433"/>
      <point x="300" y="406"/>
      <point x="248" y="380" type="curve" smooth="yes"/>
      <point x="180" y="346" type="line" smooth="yes"/>
      <point x="103" y="308"/>
      <point x="40" y="238"/>
      <point x="40" y="95" type="curve" smooth="yes"/>
      <point x="40" y="0" type="line"/>
    </contour>
  </outline>
</glyph>
<glyph name="three" format="1">
  <advance width="501"/>
  <unicode hex="0033"/>
  <outline>
    <contour>
      <point x="446" y="185" type="curve" smooth="yes"/>
      <point x="446" y="199" type="line" smooth="yes"/>
      <point x="446" y="265"/>
      <point x="410" y="315"/>
      <point x="356" y="344" type="curve"/>
      <point x="407" y="372"/>
      <point x="441" y="420"/>
      <point x="441" y="483" type="curve" smooth="yes"/>
      <point x="441" y="497" type="line" smooth="yes"/>
      <point x="441" y="603"/>
      <point x="381" y="690"/>
      <point x="227" y="690" type="curve" smooth="yes"/>
      <point x="167" y="690"/>
      <point x="105" y="678"/>
      <point x="30" y="644" type="curve"/>
      <point x="67" y="541" type="line"/>
      <point x="134" y="566"/>
      <point x="176" y="579"/>
      <point x="223" y="579" type="curve" smooth="yes"/>
      <point x="288" y="579"/>
      <point x="323" y="553"/>
      <point x="323" y="492" type="curve" smooth="yes"/>
      <point x="323" y="478" type="line" smooth="yes"/>
      <point x="323" y="430"/>
      <point x="294" y="397"/>
      <point x="232" y="397" type="curve" smooth="yes"/>
      <point x="126" y="397" type="line"/>
      <point x="126" y="289" type="line"/>
      <point x="232" y="289" type="line" smooth="yes"/>
      <point x="297" y="289"/>
      <point x="328" y="255"/>
      <point x="328" y="204" type="curve" smooth="yes"/>
      <point x="328" y="190" type="line" smooth="yes"/>
      <point x="328" y="128"/>
      <point x="291" y="101"/>
      <point x="220" y="101" type="curve" smooth="yes"/>
      <point x="171" y="101"/>
      <point x="127" y="115"/>
      <point x="57" y="141" type="curve"/>
      <point x="20" y="38" type="line"/>
      <point x="98" y="3"/>
      <point x="162" y="-10"/>
      <point x="224" y="-10" type="curve" smooth="yes"/>
      <point x="385" y="-10"/>
      <point x="446" y="78"/>
    </contour>
  </outline>
</glyph>
<glyph name="four" format="1">
  <advance width="527"/>
  <unicode hex="0034"/>
  <outline>
    <contour>
      <point x="505" y="154" type="line"/>
      <point x="505" y="261" type="line"/>
      <point x="434" y="261" type="line"/>
      <point x="434" y="364" type="line"/>
      <point x="318" y="364" type="line"/>
      <point x="318" y="261" type="line"/>
      <point x="164" y="261" type="line"/>
      <point x="253" y="397"/>
      <point x="344" y="544"/>
      <point x="394" y="680" type="curve"/>
      <point x="263" y="680" type="line"/>
      <point x="212" y="541"/>
      <point x="115" y="390"/>
      <point x="26" y="251" type="curve"/>
      <point x="26" y="154" type="line"/>
      <point x="318" y="154" type="line"/>
      <point x="318" y="0" type="line"/>
      <point x="434" y="0" type="line"/>
      <point x="434" y="154" type="line"/>
    </contour>
  </outline>
</glyph>
<glyph name="five" format="1">
  <advance width="519"/>
  <unicode hex="0035"/>
  <outline>
    <contour>
      <point x="67" y="351" type="line"/>
      <point x="132" y="294" type="line"/>
      <point x="173" y="310"/>
      <point x="208" y="319"/>
      <point x="242" y="319" type="curve" smooth="yes"/>
      <point x="317" y="319"/>
      <point x="349" y="281"/>
      <point x="349" y="223" type="curve" smooth="yes"/>
      <point x="349" y="196" type="line" smooth="yes"/>
      <point x="349" y="130"/>
      <point x="310" y="101"/>
      <point x="236" y="101" type="curve" smooth="yes"/>
      <point x="187" y="101"/>
      <point x="143" y="113"/>
      <point x="73" y="141" type="curve"/>
      <point x="36" y="38" type="line"/>
      <point x="114" y="3"/>
      <point x="178" y="-10"/>
      <point x="240" y="-10" type="curve" smooth="yes"/>
      <point x="405" y="-10"/>
      <point x="470" y="84"/>
      <point x="470" y="196" type="curve" smooth="yes"/>
      <point x="470" y="223" type="line" smooth="yes"/>
      <point x="470" y="356"/>
      <point x="391" y="426"/>
      <point x="259" y="426" type="curve" smooth="yes"/>
      <point x="232" y="426"/>
      <point x="207" y="423"/>
      <point x="184" y="417" type="curve"/>
      <point x="193" y="567" type="line"/>
      <point x="435" y="567" type="line"/>
      <point x="435" y="680" type="line"/>
      <point x="87" y="680" type="line"/>
    </contour>
  </outline>
</glyph>
<glyph name="six" format="1">
  <advance width="569"/>
  <unicode hex="0036"/>
  <outline>
    <contour>
      <point x="523" y="204" type="curve" smooth="yes"/>
      <point x="523" y="224" type="line" smooth="yes"/>
      <point x="523" y="350"/>
      <point x="446" y="437"/>
      <point x="327" y="437" type="curve" smooth="yes"/>
      <point x="277" y="437"/>
      <point x="226" y="417"/>
      <point x="180" y="376" type="curve"/>
      <point x="180" y="412" type="line" smooth="yes"/>
      <point x="180" y="534"/>
      <point x="236" y="579"/>
      <point x="320" y="579" type="curve" smooth="yes"/>
      <point x="358" y="579"/>
      <point x="402" y="569"/>
      <point x="462" y="541" type="curve"/>
      <point x="505" y="644" type="line"/>
      <point x="431" y="679"/>
      <point x="373" y="690"/>
      <point x="317" y="690" type="curve" smooth="yes"/>
      <point x="157" y="690"/>
      <point x="65" y="599"/>
      <point x="65" y="412" type="curve" smooth="yes"/>
      <point x="65" y="271" type="line" smooth="yes"/>
      <point x="65" y="96"/>
      <point x="152" y="-10"/>
      <point x="300" y="-10" type="curve" smooth="yes"/>
      <point x="439" y="-10"/>
      <point x="523" y="82"/>
    </contour>
    <contour>
      <point x="180" y="271" type="curve" smooth="yes"/>
      <point x="180" y="275" type="line"/>
      <point x="220" y="312"/>
      <point x="263" y="329"/>
      <point x="309" y="329" type="curve" smooth="yes"/>
      <point x="371" y="329"/>
      <point x="406" y="286"/>
      <point x="406" y="224" type="curve" smooth="yes"/>
      <point x="406" y="204" type="line" smooth="yes"/>
      <point x="406" y="142"/>
      <point x="368" y="101"/>
      <point x="302" y="101" type="curve" smooth="yes"/>
      <point x="224" y="101"/>
      <point x="180" y="156"/>
    </contour>
  </outline>
</glyph>
<glyph name="seven" format="1">
  <advance width="464"/>
  <unicode hex="0037"/>
  <outline>
    <contour>
      <point x="441" y="577" type="curve"/>
      <point x="441" y="680" type="line"/>
      <point x="19" y="680" type="line"/>
      <point x="19" y="567" type="line"/>
      <point x="311" y="567" type="line"/>
      <point x="222" y="379"/>
      <point x="161" y="189"/>
      <point x="124" y="0" type="curve"/>
      <point x="250" y="0" type="line"/>
      <point x="287" y="192"/>
      <point x="350" y="385"/>
    </contour>
  </outline>
</glyph>
<glyph name="eight" format="1">
  <advance width="560"/>
  <unicode hex="0038"/>
  <outline>
    <contour>
      <point x="509" y="185" type="curve" smooth="yes"/>
      <point x="509" y="261"/>
      <point x="474" y="319"/>
      <point x="406" y="357" type="curve"/>
      <point x="470" y="401"/>
      <point x="495" y="452"/>
      <point x="495" y="511" type="curve" smooth="yes"/>
      <point x="495" y="611"/>
      <point x="420" y="690"/>
      <point x="276" y="690" type="curve" smooth="yes"/>
      <point x="141" y="690"/>
      <point x="63" y="605"/>
      <point x="63" y="500" type="curve" smooth="yes"/>
      <point x="63" y="426"/>
      <point x="94" y="372"/>
      <point x="150" y="335" type="curve"/>
      <point x="79" y="288"/>
      <point x="51" y="233"/>
      <point x="51" y="168" type="curve" smooth="yes"/>
      <point x="51" y="71"/>
      <point x="116" y="-10"/>
      <point x="274" y="-10" type="curve" smooth="yes"/>
      <point x="433" y="-10"/>
      <point x="509" y="75"/>
    </contour>
    <contour>
      <point x="267" y="408" type="line" smooth="yes"/>
      <point x="210" y="426"/>
      <point x="181" y="454"/>
      <point x="181" y="498" type="curve" smooth="yes"/>
      <point x="181" y="551"/>
      <point x="216" y="584"/>
      <point x="279" y="584" type="curve" smooth="yes"/>
      <point x="342" y="584"/>
      <point x="377" y="550"/>
      <point x="377" y="497" type="curve" smooth="yes"/>
      <point x="377" y="462"/>
      <point x="361" y="431"/>
      <point x="316" y="393" type="curve"/>
    </contour>
    <contour>
      <point x="169" y="185" type="curve" smooth="yes"/>
      <point x="169" y="224"/>
      <point x="193" y="256"/>
      <point x="242" y="296" type="curve"/>
      <point x="296" y="279" type="line" smooth="yes"/>
      <point x="365" y="258"/>
      <point x="391" y="224"/>
      <point x="391" y="184" type="curve" smooth="yes"/>
      <point x="391" y="130"/>
      <point x="349" y="96"/>
      <point x="280" y="96" type="curve" smooth="yes"/>
      <point x="209" y="96"/>
      <point x="169" y="131"/>
    </contour>
  </outline>
</glyph>
<glyph name="nine" format="1">
  <advance width="569"/>
  <unicode hex="0039"/>
  <outline>
    <contour>
      <point x="504" y="268" type="curve" smooth="yes"/>
      <point x="504" y="409" type="line" smooth="yes"/>
      <point x="504" y="584"/>
      <point x="417" y="690"/>
      <point x="269" y="690" type="curve" smooth="yes"/>
      <point x="130" y="690"/>
      <point x="46" y="588"/>
      <point x="46" y="476" type="curve" smooth="yes"/>
      <point x="46" y="456" type="line" smooth="yes"/>
      <point x="46" y="330"/>
      <point x="123" y="243"/>
      <point x="242" y="243" type="curve" smooth="yes"/>
      <point x="292" y="243"/>
      <point x="343" y="263"/>
      <point x="389" y="304" type="curve"/>
      <point x="389" y="268" type="line" smooth="yes"/>
      <point x="389" y="146"/>
      <point x="333" y="101"/>
      <point x="249" y="101" type="curve" smooth="yes"/>
      <point x="211" y="101"/>
      <point x="167" y="111"/>
      <point x="107" y="139" type="curve"/>
      <point x="64" y="36" type="line"/>
      <point x="138" y="1"/>
      <point x="196" y="-10"/>
      <point x="252" y="-10" type="curve" smooth="yes"/>
      <point x="412" y="-10"/>
      <point x="504" y="81"/>
    </contour>
    <contour>
      <point x="163" y="456" type="curve" smooth="yes"/>
      <point x="163" y="476" type="line" smooth="yes"/>
      <point x="163" y="528"/>
      <point x="201" y="579"/>
      <point x="267" y="579" type="curve" smooth="yes"/>
      <point x="345" y="579"/>
      <point x="389" y="524"/>
      <point x="389" y="409" type="curve" smooth="yes"/>
      <point x="389" y="405" type="line"/>
      <point x="349" y="368"/>
      <point x="306" y="351"/>
      <point x="260" y="351" type="curve" smooth="yes"/>
      <point x="198" y="351"/>
      <point x="163" y="394"/>
    </contour>
  </outline>
</glyph>
<glyph name="colon" format="1">
  <advance width="211"/>
  <unicode hex="003A"/>
  <outline>
    <contour>
      <point x="166" y="388" type="line"/>
      <point x="166" y="507" type="line"/>
      <point x="45" y="507" type="line"/>
      <point x="45" y="388" type="line"/>
    </contour>
    <contour>
      <point x="166" y="0" type="line"/>
      <point x="166" y="119" type="line"/>
      <point x="45" y="119" type="line"/>
      <point x="45" y="0" type="line"/>
    </contour>
  </outline>
</glyph>
<glyph name="semicolon" format="1">
  <advance width="211"/>
  <unicode hex="003B"/>
  <outline>
    <contour>
      <point x="166" y="388" type="line"/>
      <point x="166" y="507" type="line"/>
      <point x="45" y="507" type="line"/>
      <point x="45" y="388" type="line"/>
    </contour>
    <contour>
      <point x="161" y="119" type="line"/>
      <point x="49" y="119" type="line"/>
      <point x="49" y="-24"/>
      <point x="41" y="-102"/>
      <point x="-3" y="-184" type="curve"/>
      <point x="69" y="-223" type="line"/>
      <point x="141" y="-109"/>
      <point x="161" y="-12"/>
      <point x="161" y="100" type="curve" smooth="yes"/>
    </contour>
  </outline>
</glyph>
<glyph name="less" format="1">
  <advance width="588"/>
  <unicode hex="003C"/>
  <outline>
    <contour>
      <point x="501" y="213" type="line"/>
      <point x="241" y="313" type="line"/>
      <point x="501" y="411" type="line"/>
      <point x="501" y="517" type="line"/>
      <point x="87" y="352" type="line"/>
      <point x="87" y="271" type="line"/>
      <point x="501" y="103" type="line"/>
    </contour>
  </outline>
</glyph>
<glyph name="equal" format="1">
  <advance width="588"/>
  <unicode hex="003D"/>
  <outline>
    <contour>
      <point x="87" y="364" type="line"/>
      <point x="501" y="364" type="line"/>
      <point x="501" y="464" type="line"/>
      <point x="87" y="464" type="line"/>
    </contour>
    <contour>
      <point x="87" y="165" type="line"/>
      <point x="501" y="165" type="line"/>
      <point x="501" y="265" type="line"/>
      <point x="87" y="265" type="line"/>
    </contour>
  </outline>
</glyph>
<glyph name="greater" format="1">
  <advance width="588"/>
  <unicode hex="003E"/>
  <outline>
    <contour>
      <point x="501" y="268" type="line"/>
      <point x="501" y="349" type="line"/>
      <point x="87" y="517" type="line"/>
      <point x="87" y="407" type="line"/>
      <point x="347" y="307" type="line"/>
      <point x="87" y="209" type="line"/>
      <point x="87" y="103" type="line"/>
    </contour>
  </outline>
</glyph>
<glyph name="question" format="1">
  <advance width="454"/>
  <unicode hex="003F"/>
  <outline>
    <contour>
      <point x="204" y="583" type="curve" smooth="yes"/>
      <point x="279" y="583"/>
      <point x="306" y="550"/>
      <point x="306" y="504" type="curve" smooth="yes"/>
      <point x="306" y="486" type="line" smooth="yes"/>
      <point x="306" y="452"/>
      <point x="296" y="430"/>
      <point x="257" y="394" type="curve" smooth="yes"/>
      <point x="220" y="360" type="line" smooth="yes"/>
      <point x="160" y="305"/>
      <point x="151" y="268"/>
      <point x="151" y="217" type="curve" smooth="yes"/>
      <point x="151" y="199" type="line"/>
      <point x="271" y="199" type="line"/>
      <point x="271" y="208" type="line" smooth="yes"/>
      <point x="271" y="237"/>
      <point x="272" y="257"/>
      <point x="316" y="297" type="curve" smooth="yes"/>
      <point x="352" y="330" type="line" smooth="yes"/>
      <point x="405" y="378"/>
      <point x="424" y="425"/>
      <point x="424" y="496" type="curve" smooth="yes"/>
      <point x="424" y="514" type="line" smooth="yes"/>
      <point x="424" y="616"/>
      <point x="366" y="690"/>
      <point x="212" y="690" type="curve" smooth="yes"/>
      <point x="153" y="690"/>
      <point x="86" y="678"/>
      <point x="10" y="644" type="curve"/>
      <point x="47" y="545" type="line"/>
      <point x="112" y="572"/>
      <point x="159" y="583"/>
    </contour>
    <contour>
      <point x="272" y="0" type="line"/>
      <point x="272" y="119" type="line"/>
      <point x="151" y="119" type="line"/>
      <point x="151" y="0" type="line"/>
    </contour>
  </outline>
</glyph>
<glyph name="at" format="1">
  <advance width="945"/>
  <unicode hex="0040"/>
  <outline>
    <contour>
      <point x="728" y="-167" type="curve"/>
      <point x="698" y="-75" type="line"/>
      <point x="630" y="-109"/>
      <point x="544" y="-128"/>
      <point x="466" y="-128" type="curve" smooth="yes"/>
      <point x="262" y="-128"/>
      <point x="142" y="4"/>
      <point x="142" y="209" type="curve" smooth="yes"/>
      <point x="142" y="428"/>
      <point x="278" y="595"/>
      <point x="495" y="595" type="curve" smooth="yes"/>
      <point x="684" y="595"/>
      <point x="810" y="467"/>
      <point x="810" y="289" type="curve" smooth="yes"/>
      <point x="810" y="167"/>
      <point x="751" y="87"/>
      <point x="694" y="87" type="curve" smooth="yes"/>
      <point x="659" y="87"/>
      <point x="650" y="118"/>
      <point x="658" y="162" type="curve" smooth="yes"/>
      <point x="700" y="402" type="line"/>
      <point x="640" y="440"/>
      <point x="572" y="467"/>
      <point x="503" y="467" type="curve" smooth="yes"/>
      <point x="379" y="467"/>
      <point x="312" y="393"/>
      <point x="290" y="255" type="curve" smooth="yes"/>
      <point x="283" y="211" type="line" smooth="yes"/>
      <point x="262" y="80"/>
      <point x="307" y="-10"/>
      <point x="398" y="-10" type="curve" smooth="yes"/>
      <point x="446" y="-10"/>
      <point x="495" y="8"/>
      <point x="557" y="73" type="curve"/>
      <point x="573" y="20"/>
      <point x="618" y="-5"/>
      <point x="681" y="-5" type="curve" smooth="yes"/>
      <point x="814" y="-5"/>
      <point x="913" y="119"/>
      <point x="913" y="289" type="curve" smooth="yes"/>
      <point x="913" y="520"/>
      <point x="744" y="690"/>
      <point x="495" y="690" type="curve" smooth="yes"/>
      <point x="218" y="690"/>
      <point x="39" y="482"/>
      <point x="39" y="209" type="curve" smooth="yes"/>
      <point x="39" y="-50"/>
      <point x="200" y="-223"/>
      <point x="466" y="-223" type="curve" smooth="yes"/>
      <point x="556" y="-223"/>
      <point x="650" y="-202"/>
    </contour>
    <contour>
      <point x="399" y="211" type="curve" smooth="yes"/>
      <point x="406" y="255" type="line" smooth="yes"/>
      <point x="417" y="323"/>
      <point x="451" y="366"/>
      <point x="513" y="366" type="curve" smooth="yes"/>
      <point x="534" y="366"/>
      <point x="554" y="359"/>
      <point x="578" y="348" type="curve"/>
      <point x="548" y="176" type="line"/>
      <point x="505" y="117"/>
      <point x="471" y="95"/>
      <point x="440" y="95" type="curve" smooth="yes"/>
      <point x="402" y="95"/>
      <point x="386" y="130"/>
    </contour>
  </outline>
</glyph>
<glyph name="A" format="1">
  <advance width="601"/>
  <unicode hex="0041"/>
  <outline>
    <contour>
      <point x="456" y="0" type="line"/>
      <point x="581" y="0" type="line"/>
      <point x="353" y="680" type="line"/>
      <point x="247" y="680" type="line"/>
      <point x="20" y="0" type="line"/>
      <point x="139" y="0" type="line"/>
      <point x="181" y="133" type="line"/>
      <point x="414" y="133" type="line"/>
    </contour>
    <contour>
      <point x="246" y="341" type="line"/>
      <point x="298" y="513" type="line"/>
      <point x="348" y="341" type="line"/>
      <point x="379" y="243" type="line"/>
      <point x="215" y="243" type="line"/>
    </contour>
  </outline>
</glyph>
<glyph name="B" format="1">
  <advance width="585"/>
  <unicode hex="0042"/>
  <outline>
    <contour>
      <point x="94" y="0" type="line"/>
      <point x="326" y="0" type="line" smooth="yes"/>
      <point x="480" y="0"/>
      <point x="535" y="73"/>
      <point x="535" y="184" type="curve" smooth="yes"/>
      <point x="535" y="212" type="line" smooth="yes"/>
      <point x="535" y="278"/>
      <point x="501" y="328"/>
      <point x="437" y="353" type="curve"/>
      <point x="481" y="380"/>
      <point x="505" y="422"/>
      <point x="505" y="474" type="curve" smooth="yes"/>
      <point x="505" y="502" type="line" smooth="yes"/>
      <point x="505" y="610"/>
      <point x="452" y="680"/>
      <point x="301" y="680" type="curve" smooth="yes"/>
      <point x="94" y="680" type="line"/>
    </contour>
    <contour>
      <point x="301" y="570" type="line" smooth="yes"/>
      <point x="354" y="570"/>
      <point x="382" y="544"/>
      <point x="382" y="502" type="curve" smooth="yes"/>
      <point x="382" y="469" type="line" smooth="yes"/>
      <point x="382" y="426"/>
      <point x="354" y="400"/>
      <point x="301" y="400" type="curve" smooth="yes"/>
      <point x="214" y="400" type="line"/>
      <point x="214" y="570" type="line"/>
    </contour>
    <contour>
      <point x="326" y="290" type="line" smooth="yes"/>
      <point x="382" y="290"/>
      <point x="412" y="262"/>
      <point x="412" y="217" type="curve" smooth="yes"/>
      <point x="412" y="184" type="line" smooth="yes"/>
      <point x="412" y="138"/>
      <point x="382" y="110"/>
      <point x="326" y="110" type="curve" smooth="yes"/>
      <point x="214" y="110" type="line"/>
      <point x="214" y="290" type="line"/>
    </contour>
  </outline>
</glyph>
<glyph name="C" format="1">
  <advance width="534"/>
  <unicode hex="0043"/>
  <outline>
    <contour>
      <point x="186" y="269" type="curve" smooth="yes"/>
      <point x="186" y="412" type="line" smooth="yes"/>
      <point x="186" y="509"/>
      <point x="225" y="577"/>
      <point x="323" y="577" type="curve" smooth="yes"/>
      <point x="361" y="577"/>
      <point x="399" y="567"/>
      <point x="460" y="542" type="curve"/>
      <point x="497" y="648" type="line"/>
      <point x="427" y="679"/>
      <point x="370" y="690"/>
      <point x="316" y="690" type="curve" smooth="yes"/>
      <point x="148" y="690"/>
      <point x="63" y="574"/>
      <point x="63" y="412" type="curve" smooth="yes"/>
      <point x="63" y="269" type="line" smooth="yes"/>
      <point x="63" y="106"/>
      <point x="148" y="-10"/>
      <point x="316" y="-10" type="curve" smooth="yes"/>
      <point x="372" y="-10"/>
      <point x="431" y="2"/>
      <point x="503" y="34" type="curve"/>
      <point x="466" y="138" type="line"/>
      <point x="402" y="112"/>
      <point x="363" y="103"/>
      <point x="323" y="103" type="curve" smooth="yes"/>
      <point x="225" y="103"/>
      <point x="186" y="171"/>
    </contour>
  </outline>
</glyph>
<glyph name="D" format="1">
  <advance width="639"/>
  <unicode hex="0044"/>
  <outline>
    <contour>
      <point x="94" y="0" type="line"/>
      <point x="324" y="0" type="line" smooth="yes"/>
      <point x="486" y="0"/>
      <point x="574" y="92"/>
      <point x="574" y="269" type="curve" smooth="yes"/>
      <point x="574" y="412" type="line" smooth="yes"/>
      <point x="574" y="588"/>
      <point x="486" y="680"/>
      <point x="324" y="680" type="curve" smooth="yes"/>
      <point x="94" y="680" type="line"/>
    </contour>
    <contour>
      <point x="319" y="565" type="line" smooth="yes"/>
      <point x="413" y="565"/>
      <point x="451" y="523"/>
      <point x="451" y="412" type="curve" smooth="yes"/>
      <point x="451" y="269" type="line" smooth="yes"/>
      <point x="451" y="157"/>
      <point x="413" y="115"/>
      <point x="319" y="115" type="curve" smooth="yes"/>
      <point x="214" y="115" type="line"/>
      <point x="214" y="565" type="line"/>
    </contour>
  </outline>
</glyph>
<glyph name="E" format="1">
  <advance width="536"/>
  <unicode hex="0045"/>
  <outline>
    <contour>
      <point x="488" y="115" type="line"/>
      <point x="214" y="115" type="line"/>
      <point x="214" y="287" type="line"/>
      <point x="448" y="287" type="line"/>
      <point x="448" y="402" type="line"/>
      <point x="214" y="402" type="line"/>
      <point x="214" y="565" type="line"/>
      <point x="478" y="565" type="line"/>
      <point x="478" y="680" type="line"/>
      <point x="94" y="680" type="line"/>
      <point x="94" y="0" type="line"/>
      <point x="488" y="0" type="line"/>
    </contour>
  </outline>
</glyph>
<glyph name="F" format="1">
  <advance width="505"/>
  <unicode hex="0046"/>
  <outline>
    <contour>
      <point x="442" y="261" type="line"/>
      <point x="442" y="376" type="line"/>
      <point x="214" y="376" type="line"/>
      <point x="214" y="565" type="line"/>
      <point x="472" y="565" type="line"/>
      <point x="472" y="680" type="line"/>
      <point x="94" y="680" type="line"/>
      <point x="94" y="0" type="line"/>
      <point x="214" y="0" type="line"/>
      <point x="214" y="261" type="line"/>
    </contour>
  </outline>
</glyph>
<glyph name="G" format="1">
  <advance width="603"/>
  <unicode hex="0047"/>
  <outline>
    <contour>
      <point x="544" y="44" type="curve"/>
      <point x="544" y="374" type="line"/>
      <point x="325" y="374" type="line"/>
      <point x="325" y="269" type="line"/>
      <point x="435" y="269" type="line"/>
      <point x="435" y="120" type="line"/>
      <point x="402" y="111"/>
      <point x="363" y="105"/>
      <point x="333" y="105" type="curve" smooth="yes"/>
      <point x="231" y="105"/>
      <point x="186" y="173"/>
      <point x="186" y="269" type="curve" smooth="yes"/>
      <point x="186" y="412" type="line" smooth="yes"/>
      <point x="186" y="513"/>
      <point x="230" y="577"/>
      <point x="334" y="577" type="curve" smooth="yes"/>
      <point x="381" y="577"/>
      <point x="423" y="566"/>
      <point x="489" y="541" type="curve"/>
      <point x="526" y="646" type="line"/>
      <point x="451" y="679"/>
      <point x="390" y="690"/>
      <point x="332" y="690" type="curve" smooth="yes"/>
      <point x="153" y="690"/>
      <point x="63" y="578"/>
      <point x="63" y="412" type="curve" smooth="yes"/>
      <point x="63" y="269" type="line" smooth="yes"/>
      <point x="63" y="106"/>
      <point x="154" y="-10"/>
      <point x="327" y="-10" type="curve" smooth="yes"/>
      <point x="430" y="-10"/>
      <point x="510" y="24"/>
    </contour>
  </outline>
</glyph>
<glyph name="H" format="1">
  <advance width="682"/>
  <unicode hex="0048"/>
  <outline>
    <contour>
      <point x="468" y="0" type="line"/>
      <point x="588" y="0" type="line"/>
      <point x="588" y="680" type="line"/>
      <point x="468" y="680" type="line"/>
      <point x="468" y="402" type="line"/>
      <point x="214" y="402" type="line"/>
      <point x="214" y="680" type="line"/>
      <point x="94" y="680" type="line"/>
      <point x="94" y="0" type="line"/>
      <point x="214" y="0" type="line"/>
      <point x="214" y="287" type="line"/>
      <point x="468" y="287" type="line"/>
    </contour>
  </outline>
</glyph>
<glyph name="I" format="1">
  <advance width="308"/>
  <unicode hex="0049"/>
  <outline>
    <contour>
      <point x="214" y="0" type="line"/>
      <point x="214" y="680" type="line"/>
      <point x="94" y="680" type="line"/>
      <point x="94" y="0" type="line"/>
    </contour>
  </outline>
</glyph>
<glyph name="J" format="1">
  <advance width="376"/>
  <unicode hex="004A"/>
  <outline>
    <contour>
      <point x="26" y="-10" type="line"/>
      <point x="239" y="-10"/>
      <point x="300" y="87"/>
      <point x="300" y="244" type="curve" smooth="yes"/>
      <point x="300" y="680" type="line"/>
      <point x="180" y="680" type="line"/>
      <point x="180" y="244" type="line" smooth="yes"/>
      <point x="180" y="140"/>
      <point x="134" y="105"/>
      <point x="26" y="105" type="curve"/>
    </contour>
  </outline>
</glyph>
<glyph name="K" format="1">
  <advance width="616"/>
  <unicode hex="004B"/>
  <outline>
    <contour>
      <point x="455" y="0" type="line"/>
      <point x="600" y="0" type="line"/>
      <point x="374" y="376" type="line"/>
      <point x="446" y="463"/>
      <point x="510" y="565"/>
      <point x="568" y="680" type="curve"/>
      <point x="437" y="680" type="line"/>
      <point x="385" y="575"/>
      <point x="315" y="473"/>
      <point x="214" y="357" type="curve"/>
      <point x="214" y="680" type="line"/>
      <point x="94" y="680" type="line"/>
      <point x="94" y="0" type="line"/>
      <point x="214" y="0" type="line"/>
      <point x="214" y="220" type="line"/>
      <point x="239" y="246"/>
      <point x="262" y="272"/>
      <point x="285" y="297" type="curve"/>
    </contour>
  </outline>
</glyph>
<glyph name="L" format="1">
  <advance width="507"/>
  <unicode hex="004C"/>
  <outline>
    <contour>
      <point x="486" y="115" type="line"/>
      <point x="214" y="115" type="line"/>
      <point x="214" y="680" type="line"/>
      <point x="94" y="680" type="line"/>
      <point x="94" y="0" type="line"/>
      <point x="486" y="0" type="line"/>
    </contour>
  </outline>
</glyph>
<glyph name="M" format="1">
  <advance width="829"/>
  <unicode hex="004D"/>
  <outline>
    <contour>
      <point x="225" y="680" type="line"/>
      <point x="94" y="680" type="line"/>
      <point x="94" y="0" type="line"/>
      <point x="209" y="0" type="line"/>
      <point x="209" y="260" type="line"/>
      <point x="194" y="499" type="line"/>
      <point x="359" y="80" type="line"/>
      <point x="466" y="80" type="line"/>
      <point x="635" y="498" type="line"/>
      <point x="620" y="260" type="line"/>
      <point x="620" y="0" type="line"/>
      <point x="735" y="0" type="line"/>
      <point x="735" y="680" type="line"/>
      <point x="604" y="680" type="line"/>
      <point x="415" y="215" type="line"/>
    </contour>
  </outline>
</glyph>
<glyph name="N" format="1">
  <advance width="683"/>
  <unicode hex="004E"/>
  <outline>
    <contour>
      <point x="94" y="0" type="line"/>
      <point x="209" y="0" type="line"/>
      <point x="209" y="260" type="line"/>
      <point x="201" y="494" type="line"/>
      <point x="304" y="343"/>
      <point x="394" y="168"/>
      <point x="479" y="0" type="curve"/>
      <point x="589" y="0" type="line"/>
      <point x="589" y="680" type="line"/>
      <point x="474" y="680" type="line"/>
      <point x="474" y="430" type="line"/>
      <point x="483" y="227" type="line"/>
      <point x="405" y="388"/>
      <point x="309" y="542"/>
      <point x="204" y="680" type="curve"/>
      <point x="94" y="680" type="line"/>
    </contour>
  </outline>
</glyph>
<glyph name="O" format="1">
  <advance width="640"/>
  <unicode hex="004F"/>
  <outline>
    <contour>
      <point x="575" y="412" type="line" smooth="yes"/>
      <point x="575" y="585"/>
      <point x="487" y="690"/>
      <point x="320" y="690" type="curve" smooth="yes"/>
      <point x="152" y="690"/>
      <point x="65" y="585"/>
      <point x="65" y="412" type="curve" smooth="yes"/>
      <point x="65" y="269" type="line" smooth="yes"/>
      <point x="65" y="96"/>
      <point x="152" y="-10"/>
      <point x="320" y="-10" type="curve" smooth="yes"/>
      <point x="487" y="-10"/>
      <point x="575" y="96"/>
      <point x="575" y="269" type="curve" smooth="yes"/>
    </contour>
    <contour>
      <point x="452" y="412" type="curve" smooth="yes"/>
      <point x="452" y="269" type="line" smooth="yes"/>
      <point x="452" y="160"/>
      <point x="411" y="103"/>
      <point x="320" y="103" type="curve" smooth="yes"/>
      <point x="229" y="103"/>
      <point x="188" y="160"/>
      <point x="188" y="269" type="curve" smooth="yes"/>
      <point x="188" y="412" type="line" smooth="yes"/>
      <point x="188" y="521"/>
      <point x="229" y="577"/>
      <point x="320" y="577" type="curve" smooth="yes"/>
      <point x="411" y="577"/>
      <point x="452" y="521"/>
    </contour>
  </outline>
</glyph>
<glyph name="P" format="1">
  <advance width="574"/>
  <unicode hex="0050"/>
  <outline>
    <contour>
      <point x="94" y="0" type="line"/>
      <point x="214" y="0" type="line"/>
      <point x="214" y="230" type="line"/>
      <point x="318" y="230" type="line" smooth="yes"/>
      <point x="461" y="230"/>
      <point x="532" y="309"/>
      <point x="532" y="429" type="curve" smooth="yes"/>
      <point x="532" y="482" type="line" smooth="yes"/>
      <point x="532" y="602"/>
      <point x="461" y="680"/>
      <point x="318" y="680" type="curve" smooth="yes"/>
      <point x="94" y="680" type="line"/>
    </contour>
    <contour>
      <point x="318" y="565" type="line" smooth="yes"/>
      <point x="377" y="565"/>
      <point x="409" y="534"/>
      <point x="409" y="482" type="curve" smooth="yes"/>
      <point x="409" y="429" type="line" smooth="yes"/>
      <point x="409" y="376"/>
      <point x="377" y="345"/>
      <point x="318" y="345" type="curve" smooth="yes"/>
      <point x="214" y="345" type="line"/>
      <point x="214" y="565" type="line"/>
    </contour>
  </outline>
</glyph>
<glyph name="Q" format="1">
  <advance width="640"/>
  <unicode hex="0051"/>
  <outline>
    <contour>
      <point x="560" y="-73" type="line"/>
      <point x="470" y="-73"/>
      <point x="437" y="-60"/>
      <point x="419" y="5" type="curve"/>
      <point x="521" y="40"/>
      <point x="575" y="134"/>
      <point x="575" y="269" type="curve" smooth="yes"/>
      <point x="575" y="412" type="line" smooth="yes"/>
      <point x="575" y="585"/>
      <point x="487" y="690"/>
      <point x="320" y="690" type="curve" smooth="yes"/>
      <point x="152" y="690"/>
      <point x="65" y="585"/>
      <point x="65" y="412" type="curve" smooth="yes"/>
      <point x="65" y="269" type="line" smooth="yes"/>
      <point x="65" y="100"/>
      <point x="148" y="-5"/>
      <point x="307" y="-10" type="curve"/>
      <point x="319" y="-45" type="line" smooth="yes"/>
      <point x="351" y="-143"/>
      <point x="404" y="-198"/>
      <point x="560" y="-198" type="curve"/>
    </contour>
    <contour>
      <point x="452" y="412" type="curve" smooth="yes"/>
      <point x="452" y="269" type="line" smooth="yes"/>
      <point x="452" y="160"/>
      <point x="411" y="103"/>
      <point x="320" y="103" type="curve" smooth="yes"/>
      <point x="229" y="103"/>
      <point x="188" y="160"/>
      <point x="188" y="269" type="curve" smooth="yes"/>
      <point x="188" y="412" type="line" smooth="yes"/>
      <point x="188" y="521"/>
      <point x="229" y="577"/>
      <point x="320" y="577" type="curve" smooth="yes"/>
      <point x="411" y="577"/>
      <point x="452" y="521"/>
    </contour>
  </outline>
</glyph>
<glyph name="R" format="1">
  <advance width="609"/>
  <unicode hex="0052"/>
  <outline>
    <contour>
      <point x="214" y="250" type="line"/>
      <point x="322" y="250" type="line"/>
      <point x="368" y="167"/>
      <point x="408" y="83"/>
      <point x="441" y="0" type="curve"/>
      <point x="578" y="0" type="line"/>
      <point x="539" y="91"/>
      <point x="492" y="183"/>
      <point x="438" y="275" type="curve"/>
      <point x="501" y="306"/>
      <point x="535" y="366"/>
      <point x="535" y="444" type="curve" smooth="yes"/>
      <point x="535" y="487" type="line" smooth="yes"/>
      <point x="535" y="604"/>
      <point x="458" y="680"/>
      <point x="321" y="680" type="curve" smooth="yes"/>
      <point x="94" y="680" type="line"/>
      <point x="94" y="0" type="line"/>
      <point x="214" y="0" type="line"/>
    </contour>
    <contour>
      <point x="321" y="570" type="line" smooth="yes"/>
      <point x="380" y="570"/>
      <point x="412" y="538"/>
      <point x="412" y="487" type="curve" smooth="yes"/>
      <point x="412" y="444" type="line" smooth="yes"/>
      <point x="412" y="392"/>
      <point x="380" y="360"/>
      <point x="321" y="360" type="curve" smooth="yes"/>
      <point x="214" y="360" type="line"/>
      <point x="214" y="570" type="line"/>
    </contour>
  </outline>
</glyph>
<glyph name="S" format="1">
  <advance width="518"/>
  <unicode hex="0053"/>
  <outline>
    <contour>
      <point x="242" y="101" type="curve" smooth="yes"/>
      <point x="191" y="101"/>
      <point x="144" y="112"/>
      <point x="69" y="144" type="curve"/>
      <point x="32" y="41" type="line"/>
      <point x="113" y="4"/>
      <point x="180" y="-10"/>
      <point x="244" y="-10" type="curve" smooth="yes"/>
      <point x="406" y="-10"/>
      <point x="480" y="71"/>
      <point x="480" y="191" type="curve" smooth="yes"/>
      <point x="480" y="295"/>
      <point x="430" y="356"/>
      <point x="331" y="389" type="curve" smooth="yes"/>
      <point x="249" y="416" type="line" smooth="yes"/>
      <point x="191" y="435"/>
      <point x="169" y="460"/>
      <point x="169" y="503" type="curve" smooth="yes"/>
      <point x="169" y="560"/>
      <point x="206" y="579"/>
      <point x="268" y="579" type="curve" smooth="yes"/>
      <point x="314" y="579"/>
      <point x="354" y="568"/>
      <point x="418" y="543" type="curve"/>
      <point x="455" y="646" type="line"/>
      <point x="386" y="676"/>
      <point x="327" y="690"/>
      <point x="264" y="690" type="curve" smooth="yes"/>
      <point x="115" y="690"/>
      <point x="47" y="609"/>
      <point x="47" y="497" type="curve" smooth="yes"/>
      <point x="47" y="399"/>
      <point x="96" y="336"/>
      <point x="194" y="304" type="curve" smooth="yes"/>
      <point x="276" y="277" type="line" smooth="yes"/>
      <point x="338" y="257"/>
      <point x="358" y="233"/>
      <point x="358" y="187" type="curve" smooth="yes"/>
      <point x="358" y="128"/>
      <point x="319" y="101"/>
    </contour>
  </outline>
</glyph>
<glyph name="T" format="1">
  <advance width="526"/>
  <unicode hex="0054"/>
  <outline>
    <contour>
      <point x="13" y="565" type="line"/>
      <point x="203" y="565" type="line"/>
      <point x="203" y="0" type="line"/>
      <point x="323" y="0" type="line"/>
      <point x="323" y="565" type="line"/>
      <point x="513" y="565" type="line"/>
      <point x="513" y="680" type="line"/>
      <point x="13" y="680" type="line"/>
    </contour>
  </outline>
</glyph>
<glyph name="U" format="1">
  <advance width="646"/>
  <unicode hex="0055"/>
  <outline>
    <contour>
      <point x="78" y="680" type="line"/>
      <point x="78" y="244" type="line" smooth="yes"/>
      <point x="78" y="90"/>
      <point x="158" y="-10"/>
      <point x="323" y="-10" type="curve" smooth="yes"/>
      <point x="487" y="-10"/>
      <point x="568" y="90"/>
      <point x="568" y="244" type="curve" smooth="yes"/>
      <point x="568" y="680" type="line"/>
      <point x="445" y="680" type="line"/>
      <point x="445" y="244" type="line" smooth="yes"/>
      <point x="445" y="156"/>
      <point x="408" y="103"/>
      <point x="323" y="103" type="curve" smooth="yes"/>
      <point x="238" y="103"/>
      <point x="201" y="156"/>
      <point x="201" y="244" type="curve" smooth="yes"/>
      <point x="201" y="680" type="line"/>
    </contour>
  </outline>
</glyph>
<glyph name="V" format="1">
  <advance width="584"/>
  <unicode hex="0056"/>
  <outline>
    <contour>
      <point x="570" y="680" type="line"/>
      <point x="448" y="680" type="line"/>
      <point x="346" y="339" type="line"/>
      <point x="296" y="162" type="line"/>
      <point x="249" y="338" type="line"/>
      <point x="146" y="680" type="line"/>
      <point x="14" y="680" type="line"/>
      <point x="231" y="0" type="line"/>
      <point x="354" y="0" type="line"/>
    </contour>
  </outline>
</glyph>
<glyph name="W" format="1">
  <advance width="867"/>
  <unicode hex="0057"/>
  <outline>
    <contour>
      <point x="208" y="411" type="line"/>
      <point x="156" y="680" type="line"/>
      <point x="26" y="680" type="line"/>
      <point x="179" y="0" type="line"/>
      <point x="302" y="0" type="line"/>
      <point x="434" y="506" type="line"/>
      <point x="565" y="0" type="line"/>
      <point x="688" y="0" type="line"/>
      <point x="841" y="680" type="line"/>
      <point x="719" y="680" type="line"/>
      <point x="667" y="411" type="line"/>
      <point x="625" y="163" type="line"/>
      <point x="490" y="680" type="line"/>
      <point x="382" y="680" type="line"/>
      <point x="246" y="159" type="line"/>
    </contour>
  </outline>
</glyph>
<glyph name="X" format="1">
  <advance width="569"/>
  <unicode hex="0058"/>
  <outline>
    <contour>
      <point x="418" y="0" type="line"/>
      <point x="554" y="0" type="line"/>
      <point x="355" y="347" type="line"/>
      <point x="542" y="680" type="line"/>
      <point x="416" y="680" type="line"/>
      <point x="293" y="452" type="line"/>
      <point x="162" y="680" type="line"/>
      <point x="26" y="680" type="line"/>
      <point x="214" y="353" type="line"/>
      <point x="15" y="0" type="line"/>
      <point x="141" y="0" type="line"/>
      <point x="276" y="249" type="line"/>
    </contour>
  </outline>
</glyph>
<glyph name="Y" format="1">
  <advance width="544"/>
  <unicode hex="0059"/>
  <outline>
    <contour>
      <point x="541" y="680" type="line"/>
      <point x="417" y="680" type="line"/>
      <point x="278" y="390" type="line"/>
      <point x="131" y="680" type="line"/>
      <point x="3" y="680" type="line"/>
      <point x="213" y="271" type="line"/>
      <point x="213" y="0" type="line"/>
      <point x="333" y="0" type="line"/>
      <point x="333" y="273" type="line"/>
    </contour>
  </outline>
</glyph>
<glyph name="Z" format="1">
  <advance width="509"/>
  <unicode hex="005A"/>
  <outline>
    <contour>
      <point x="473" y="115" type="line"/>
      <point x="179" y="115" type="line"/>
      <point x="463" y="575" type="line"/>
      <point x="463" y="680" type="line"/>
      <point x="48" y="680" type="line"/>
      <point x="48" y="565" type="line"/>
      <point x="322" y="565" type="line"/>
      <point x="38" y="105" type="line"/>
      <point x="38" y="0" type="line"/>
      <point x="473" y="0" type="line"/>
    </contour>
  </outline>
</glyph>
<glyph name="bracketleft" format="1">
  <advance width="350"/>
  <unicode hex="005B"/>
  <outline>
    <contour>
      <point x="349" y="-43" type="line"/>
      <point x="209" y="-43" type="line"/>
      <point x="209" y="640" type="line"/>
      <point x="349" y="640" type="line"/>
      <point x="349" y="740" type="line"/>
      <point x="94" y="740" type="line"/>
      <point x="94" y="-143" type="line"/>
      <point x="349" y="-143" type="line"/>
    </contour>
  </outline>
</glyph>
<glyph name="backslash" format="1">
  <advance width="394"/>
  <unicode hex="005C"/>
  <outline>
    <contour>
      <point x="109" y="740" type="line"/>
      <point x="-9" y="740" type="line"/>
      <point x="315" y="-143" type="line"/>
      <point x="433" y="-143" type="line"/>
    </contour>
  </outline>
</glyph>
<glyph name="bracketright" format="1">
  <advance width="350"/>
  <unicode hex="005D"/>
  <outline>
    <contour>
      <point x="256" y="740" type="line"/>
      <point x="1" y="740" type="line"/>
      <point x="1" y="640" type="line"/>
      <point x="141" y="640" type="line"/>
      <point x="141" y="-43" type="line"/>
      <point x="1" y="-43" type="line"/>
      <point x="1" y="-143" type="line"/>
      <point x="256" y="-143" type="line"/>
    </contour>
  </outline>
</glyph>
<glyph name="asciicircum" format="1">
  <advance width="588"/>
  <unicode hex="005E"/>
  <outline>
    <contour>
      <point x="391" y="266" type="line"/>
      <point x="501" y="266" type="line"/>
      <point x="334" y="680" type="line"/>
      <point x="253" y="680" type="line"/>
      <point x="87" y="266" type="line"/>
      <point x="193" y="266" type="line"/>
      <point x="292" y="526" type="line"/>
    </contour>
  </outline>
</glyph>
<glyph name="underscore" format="1">
  <advance width="414"/>
  <unicode hex="005F"/>
  <outline>
    <contour>
      <point x="5" y="-163" type="line"/>
      <point x="409" y="-163" type="line"/>
      <point x="409" y="-90" type="line"/>
      <point x="5" y="-90" type="line"/>
    </contour>
  </outline>
</glyph>
<glyph name="grave" format="1">
  <advance width="500"/>
  <unicode hex="0060"/>
  <outline>
    <contour>
      <point x="199" y="579" type="line"/>
      <point x="300" y="579" type="line"/>
      <point x="204" y="745" type="line"/>
      <point x="96" y="699" type="line"/>
    </contour>
  </outline>
</glyph>
<glyph name="a" format="1">
  <advance width="507"/>
  <unicode hex="0061"/>
  <outline>
    <contour>
      <point x="463" y="-5" type="curve" smooth="yes"/>
      <point x="486" y="-5" type="line"/>
      <point x="486" y="101" type="line"/>
      <point x="475" y="101" type="line" smooth="yes"/>
      <point x="442" y="101"/>
      <point x="433" y="123"/>
      <point x="433" y="143" type="curve" smooth="yes"/>
      <point x="433" y="338" type="line" smooth="yes"/>
      <point x="433" y="432"/>
      <point x="394" y="517"/>
      <point x="246" y="517" type="curve" smooth="yes"/>
      <point x="191" y="517"/>
      <point x="132" y="504"/>
      <point x="63" y="476" type="curve"/>
      <point x="96" y="378" type="line"/>
      <point x="150" y="401"/>
      <point x="198" y="411"/>
      <point x="238" y="411" type="curve" smooth="yes"/>
      <point x="290" y="411"/>
      <point x="323" y="394"/>
      <point x="323" y="338" type="curve" smooth="yes"/>
      <point x="323" y="279" type="line"/>
      <point x="285" y="286"/>
      <point x="248" y="291"/>
      <point x="213" y="291" type="curve" smooth="yes"/>
      <point x="81" y="291"/>
      <point x="38" y="230"/>
      <point x="38" y="142" type="curve" smooth="yes"/>
      <point x="38" y="54"/>
      <point x="79" y="-10"/>
      <point x="168" y="-10" type="curve" smooth="yes"/>
      <point x="229" y="-10"/>
      <point x="280" y="15"/>
      <point x="337" y="68" type="curve"/>
      <point x="355" y="27"/>
      <point x="395" y="-5"/>
    </contour>
    <contour>
      <point x="149" y="144" type="curve" smooth="yes"/>
      <point x="149" y="184"/>
      <point x="169" y="206"/>
      <point x="221" y="206" type="curve" smooth="yes"/>
      <point x="254" y="206"/>
      <point x="288" y="203"/>
      <point x="323" y="197" type="curve"/>
      <point x="323" y="154" type="line"/>
      <point x="262" y="95"/>
      <point x="226" y="86"/>
      <point x="196" y="86" type="curve" smooth="yes"/>
      <point x="165" y="86"/>
      <point x="149" y="108"/>
    </contour>
  </outline>
</glyph>
<glyph name="b" format="1">
  <advance width="560"/>
  <unicode hex="0062"/>
  <outline>
    <contour>
      <point x="506" y="227" type="curve" smooth="yes"/>
      <point x="506" y="281" type="line" smooth="yes"/>
      <point x="506" y="430"/>
      <point x="444" y="517"/>
      <point x="337" y="517" type="curve" smooth="yes"/>
      <point x="290" y="517"/>
      <point x="251" y="501"/>
      <point x="190" y="440" type="curve"/>
      <point x="190" y="740" type="line"/>
      <point x="75" y="740" type="line"/>
      <point x="75" y="50" type="line"/>
      <point x="149" y="10"/>
      <point x="223" y="-10"/>
      <point x="294" y="-10" type="curve" smooth="yes"/>
      <point x="432" y="-10"/>
      <point x="506" y="82"/>
    </contour>
    <contour>
      <point x="306" y="410" type="curve" smooth="yes"/>
      <point x="358" y="410"/>
      <point x="388" y="370"/>
      <point x="388" y="281" type="curve" smooth="yes"/>
      <point x="388" y="227" type="line" smooth="yes"/>
      <point x="388" y="144"/>
      <point x="358" y="93"/>
      <point x="284" y="93" type="curve" smooth="yes"/>
      <point x="255" y="93"/>
      <point x="226" y="99"/>
      <point x="190" y="114" type="curve"/>
      <point x="190" y="341" type="line"/>
      <point x="242" y="396"/>
      <point x="274" y="410"/>
    </contour>
  </outline>
</glyph>
<glyph name="c" format="1">
  <advance width="448"/>
  <unicode hex="0063"/>
  <outline>
    <contour>
      <point x="167" y="283" type="line" smooth="yes"/>
      <point x="167" y="369"/>
      <point x="196" y="411"/>
      <point x="264" y="411" type="curve" smooth="yes"/>
      <point x="296" y="411"/>
      <point x="335" y="402"/>
      <point x="384" y="383" type="curve"/>
      <point x="417" y="482" type="line"/>
      <point x="359" y="505"/>
      <point x="308" y="517"/>
      <point x="258" y="517" type="curve" smooth="yes"/>
      <point x="124" y="517"/>
      <point x="52" y="425"/>
      <point x="52" y="283" type="curve" smooth="yes"/>
      <point x="52" y="224" type="line" smooth="yes"/>
      <point x="52" y="82"/>
      <point x="124" y="-10"/>
      <point x="258" y="-10" type="curve" smooth="yes"/>
      <point x="310" y="-10"/>
      <point x="362" y="2"/>
      <point x="422" y="26" type="curve"/>
      <point x="389" y="123" type="line"/>
      <point x="339" y="104"/>
      <point x="297" y="96"/>
      <point x="264" y="96" type="curve" smooth="yes"/>
      <point x="196" y="96"/>
      <point x="167" y="138"/>
      <point x="167" y="224" type="curve" smooth="yes"/>
    </contour>
  </outline>
</glyph>
<glyph name="e" format="1">
  <advance width="521"/>
  <unicode hex="0065"/>
  <outline>
    <contour>
      <point x="464" y="29" type="curve"/>
      <point x="431" y="126" type="line"/>
      <point x="379" y="104"/>
      <point x="330" y="94"/>
      <point x="285" y="94" type="curve" smooth="yes"/>
      <point x="200" y="94"/>
      <point x="163" y="135"/>
      <point x="161" y="218" type="curve"/>
      <point x="455" y="218" type="line"/>
      <point x="464" y="252"/>
      <point x="468" y="284"/>
      <point x="468" y="312" type="curve" smooth="yes"/>
      <point x="468" y="454"/>
      <point x="368" y="517"/>
      <point x="263" y="517" type="curve" smooth="yes"/>
      <point x="132" y="517"/>
      <point x="50" y="425"/>
      <point x="50" y="284" type="curve" smooth="yes"/>
      <point x="50" y="224" type="line" smooth="yes"/>
      <point x="50" y="82"/>
      <point x="128" y="-10"/>
      <point x="279" y="-10" type="curve" smooth="yes"/>
      <point x="334" y="-10"/>
      <point x="394" y="1"/>
    </contour>
    <contour>
      <point x="263" y="420" type="curve" smooth="yes"/>
      <point x="314" y="420"/>
      <point x="355" y="388"/>
      <point x="355" y="324" type="curve" smooth="yes"/>
      <point x="355" y="318"/>
      <point x="355" y="312"/>
      <point x="354" y="306" type="curve"/>
      <point x="162" y="306" type="line"/>
      <point x="167" y="379"/>
      <point x="202" y="420"/>
    </contour>
  </outline>
</glyph>
<glyph name="f" format="1">
  <advance width="377"/>
  <unicode hex="0066"/>
  <outline>
    <contour>
      <point x="372" y="407" type="line"/>
      <point x="372" y="507" type="line"/>
      <point x="214" y="507" type="line"/>
      <point x="214" y="560" type="line" smooth="yes"/>
      <point x="214" y="622"/>
      <point x="243" y="642"/>
      <point x="297" y="642" type="curve" smooth="yes"/>
      <point x="321" y="642"/>
      <point x="350" y="637"/>
      <point x="383" y="626" type="curve"/>
      <point x="411" y="725" type="line"/>
      <point x="372" y="740"/>
      <point x="321" y="750"/>
      <point x="276" y="750" type="curve" smooth="yes"/>
      <point x="152" y="750"/>
      <point x="99" y="671"/>
      <point x="99" y="560" type="curve" smooth="yes"/>
      <point x="99" y="507" type="line"/>
      <point x="17" y="507" type="line"/>
      <point x="17" y="407" type="line"/>
      <point x="99" y="407" type="line"/>
      <point x="99" y="0" type="line"/>
      <point x="214" y="0" type="line"/>
      <point x="214" y="407" type="line"/>
    </contour>
  </outline>
</glyph>
<glyph name="g" format="1">
  <advance width="531"/>
  <unicode hex="0067"/>
  <outline>
    <contour>
      <point x="500" y="-51" type="curve" smooth="yes"/>
      <point x="500" y="36"/>
      <point x="438" y="85"/>
      <point x="346" y="85" type="curve" smooth="yes"/>
      <point x="224" y="85" type="line" smooth="yes"/>
      <point x="193" y="85"/>
      <point x="179" y="98"/>
      <point x="179" y="120" type="curve" smooth="yes"/>
      <point x="179" y="135"/>
      <point x="185" y="152"/>
      <point x="200" y="168" type="curve"/>
      <point x="212" y="166"/>
      <point x="225" y="165"/>
      <point x="238" y="165" type="curve" smooth="yes"/>
      <point x="255" y="165" type="line" smooth="yes"/>
      <point x="359" y="165"/>
      <point x="443" y="225"/>
      <point x="443" y="328" type="curve" smooth="yes"/>
      <point x="443" y="373"/>
      <point x="431" y="403"/>
      <point x="411" y="425" type="curve"/>
      <point x="511" y="409" type="line"/>
      <point x="511" y="507" type="line"/>
      <point x="330" y="507" type="line"/>
      <point x="307" y="514"/>
      <point x="281" y="517"/>
      <point x="255" y="517" type="curve" smooth="yes"/>
      <point x="238" y="517" type="line" smooth="yes"/>
      <point x="131" y="517"/>
      <point x="48" y="458"/>
      <point x="48" y="341" type="curve" smooth="yes"/>
      <point x="48" y="272"/>
      <point x="79" y="222"/>
      <point x="127" y="193" type="curve"/>
      <point x="98" y="163"/>
      <point x="80" y="129"/>
      <point x="80" y="91" type="curve" smooth="yes"/>
      <point x="80" y="35"/>
      <point x="119" y="-20"/>
      <point x="217" y="-20" type="curve" smooth="yes"/>
      <point x="337" y="-20" type="line" smooth="yes"/>
      <point x="372" y="-20"/>
      <point x="388" y="-36"/>
      <point x="388" y="-63" type="curve" smooth="yes"/>
      <point x="388" y="-101"/>
      <point x="343" y="-125"/>
      <point x="259" y="-125" type="curve" smooth="yes"/>
      <point x="199" y="-125"/>
      <point x="136" y="-112"/>
      <point x="72" y="-80" type="curve"/>
      <point x="39" y="-171" type="line"/>
      <point x="105" y="-208"/>
      <point x="189" y="-223"/>
      <point x="260" y="-223" type="curve" smooth="yes"/>
      <point x="410" y="-223"/>
      <point x="500" y="-159"/>
    </contour>
    <contour>
      <point x="255" y="259" type="curve" smooth="yes"/>
      <point x="238" y="259" type="line" smooth="yes"/>
      <point x="195" y="259"/>
      <point x="159" y="288"/>
      <point x="159" y="341" type="curve" smooth="yes"/>
      <point x="159" y="394"/>
      <point x="195" y="423"/>
      <point x="238" y="423" type="curve" smooth="yes"/>
      <point x="255" y="423" type="line" smooth="yes"/>
      <point x="296" y="423"/>
      <point x="333" y="394"/>
      <point x="333" y="341" type="curve" smooth="yes"/>
      <point x="333" y="288"/>
      <point x="296" y="259"/>
    </contour>
  </outline>
</glyph>
<glyph name="h" format="1">
  <advance width="584"/>
  <unicode hex="0068"/>
  <outline>
    <contour>
      <point x="327" y="410" type="curve" smooth="yes"/>
      <point x="374" y="410"/>
      <point x="396" y="383"/>
      <point x="396" y="326" type="curve" smooth="yes"/>
      <point x="396" y="0" type="line"/>
      <point x="511" y="0" type="line"/>
      <point x="511" y="340" type="line" smooth="yes"/>
      <point x="511" y="452"/>
      <point x="459" y="517"/>
      <point x="362" y="517" type="curve" smooth="yes"/>
      <point x="306" y="517"/>
      <point x="255" y="496"/>
      <point x="194" y="444" type="curve"/>
      <point x="194" y="740" type="line"/>
      <point x="79" y="740" type="line"/>
      <point x="79" y="0" type="line"/>
      <point x="194" y="0" type="line"/>
      <point x="194" y="351" type="line"/>
      <point x="253" y="397"/>
      <point x="293" y="410"/>
    </contour>
  </outline>
</glyph>
<glyph name="i" format="1">
  <advance width="273"/>
  <unicode hex="0069"/>
  <outline>
    <contour>
      <point x="197" y="603" type="line"/>
      <point x="197" y="722" type="line"/>
      <point x="76" y="722" type="line"/>
      <point x="76" y="603" type="line"/>
    </contour>
    <contour>
      <point x="194" y="0" type="line"/>
      <point x="194" y="507" type="line"/>
      <point x="79" y="507" type="line"/>
      <point x="79" y="0" type="line"/>
    </contour>
  </outline>
</glyph>
<glyph name="k" format="1">
  <advance width="532"/>
  <unicode hex="006B"/>
  <outline>
    <contour>
      <point x="382" y="0" type="line"/>
      <point x="521" y="0" type="line"/>
      <point x="343" y="284" type="line"/>
      <point x="405" y="357"/>
      <point x="457" y="427"/>
      <point x="501" y="507" type="curve"/>
      <point x="369" y="507" type="line"/>
      <point x="322" y="422"/>
      <point x="270" y="355"/>
      <point x="194" y="278" type="curve"/>
      <point x="194" y="740" type="line"/>
      <point x="79" y="740" type="line"/>
      <point x="79" y="0" type="line"/>
      <point x="194" y="0" type="line"/>
      <point x="194" y="151" type="line"/>
      <point x="216" y="171"/>
      <point x="237" y="191"/>
      <point x="257" y="211" type="curve"/>
    </contour>
  </outline>
</glyph>
<glyph name="l" format="1">
  <advance width="276"/>
  <unicode hex="006C"/>
  <outline>
    <contour>
      <point x="76" y="143" type="line" smooth="yes"/>
      <point x="76" y="71"/>
      <point x="102" y="-5"/>
      <point x="216" y="-5" type="curve" smooth="yes"/>
      <point x="244" y="-5" type="line"/>
      <point x="244" y="101" type="line"/>
      <point x="228" y="101" type="line" smooth="yes"/>
      <point x="199" y="101"/>
      <point x="191" y="123"/>
      <point x="191" y="143" type="curve" smooth="yes"/>
      <point x="191" y="740" type="line"/>
      <point x="76" y="740" type="line"/>
    </contour>
  </outline>
</glyph>
<glyph name="m" format="1">
  <advance width="881"/>
  <unicode hex="006D"/>
  <outline>
    <contour>
      <point x="194" y="351" type="line"/>
      <point x="251" y="397"/>
      <point x="289" y="410"/>
      <point x="322" y="410" type="curve" smooth="yes"/>
      <point x="365" y="410"/>
      <point x="386" y="383"/>
      <point x="386" y="326" type="curve" smooth="yes"/>
      <point x="386" y="0" type="line"/>
      <point x="501" y="0" type="line"/>
      <point x="501" y="351" type="line"/>
      <point x="558" y="397"/>
      <point x="596" y="410"/>
      <point x="629" y="410" type="curve" smooth="yes"/>
      <point x="672" y="410"/>
      <point x="693" y="383"/>
      <point x="693" y="326" type="curve" smooth="yes"/>
      <point x="693" y="0" type="line"/>
      <point x="808" y="0" type="line"/>
      <point x="808" y="340" type="line" smooth="yes"/>
      <point x="808" y="452"/>
      <point x="757" y="517"/>
      <point x="664" y="517" type="curve" smooth="yes"/>
      <point x="605" y="517"/>
      <point x="550" y="493"/>
      <point x="484" y="435" type="curve"/>
      <point x="462" y="488"/>
      <point x="419" y="517"/>
      <point x="357" y="517" type="curve" smooth="yes"/>
      <point x="301" y="517"/>
      <point x="250" y="494"/>
      <point x="188" y="440" type="curve"/>
      <point x="188" y="507" type="line"/>
      <point x="79" y="507" type="line"/>
      <point x="79" y="0" type="line"/>
      <point x="194" y="0" type="line"/>
    </contour>
  </outline>
</glyph>
<glyph name="n" format="1">
  <advance width="584"/>
  <unicode hex="006E"/>
  <outline>
    <contour>
      <point x="327" y="410" type="curve" smooth="yes"/>
      <point x="374" y="410"/>
      <point x="396" y="383"/>
      <point x="396" y="326" type="curve" smooth="yes"/>
      <point x="396" y="0" type="line"/>
      <point x="511" y="0" type="line"/>
      <point x="511" y="340" type="line" smooth="yes"/>
      <point x="511" y="452"/>
      <point x="459" y="517"/>
      <point x="362" y="517" type="curve" smooth="yes"/>
      <point x="304" y="517"/>
      <point x="251" y="494"/>
      <point x="188" y="439" type="curve"/>
      <point x="188" y="507" type="line"/>
      <point x="79" y="507" type="line"/>
      <point x="79" y="0" type="line"/>
      <point x="194" y="0" type="line"/>
      <point x="194" y="351" type="line"/>
      <point x="253" y="397"/>
      <point x="293" y="410"/>
    </contour>
  </outline>
</glyph>
<glyph name="o" format="1">
  <advance width="544"/>
  <unicode hex="006F"/>
  <outline>
    <contour>
      <point x="494" y="284" type="line" smooth="yes"/>
      <point x="494" y="425"/>
      <point x="414" y="517"/>
      <point x="272" y="517" type="curve" smooth="yes"/>
      <point x="129" y="517"/>
      <point x="50" y="425"/>
      <point x="50" y="284" type="curve" smooth="yes"/>
      <point x="50" y="224" type="line" smooth="yes"/>
      <point x="50" y="82"/>
      <point x="130" y="-10"/>
      <point x="272" y="-10" type="curve" smooth="yes"/>
      <point x="413" y="-10"/>
      <point x="494" y="82"/>
      <point x="494" y="224" type="curve" smooth="yes"/>
    </contour>
    <contour>
      <point x="376" y="284" type="curve" smooth="yes"/>
      <point x="376" y="224" type="line" smooth="yes"/>
      <point x="376" y="143"/>
      <point x="339" y="93"/>
      <point x="272" y="93" type="curve" smooth="yes"/>
      <point x="205" y="93"/>
      <point x="168" y="143"/>
      <point x="168" y="224" type="curve" smooth="yes"/>
      <point x="168" y="284" type="line" smooth="yes"/>
      <point x="168" y="365"/>
      <point x="205" y="414"/>
      <point x="272" y="414" type="curve" smooth="yes"/>
      <point x="339" y="414"/>
      <point x="376" y="365"/>
    </contour>
  </outline>
</glyph>
<glyph name="p" format="1">
  <advance width="564"/>
  <unicode hex="0070"/>
  <outline>
    <contour>
      <point x="296" y="-10" type="curve" smooth="yes"/>
      <point x="435" y="-10"/>
      <point x="510" y="82"/>
      <point x="510" y="227" type="curve" smooth="yes"/>
      <point x="510" y="281" type="line" smooth="yes"/>
      <point x="510" y="430"/>
      <point x="447" y="517"/>
      <point x="337" y="517" type="curve" smooth="yes"/>
      <point x="289" y="517"/>
      <point x="250" y="500"/>
      <point x="188" y="438" type="curve"/>
      <point x="188" y="507" type="line"/>
      <point x="79" y="507" type="line"/>
      <point x="79" y="-213" type="line"/>
      <point x="194" y="-213" type="line"/>
      <point x="194" y="9" type="line"/>
      <point x="228" y="-3"/>
      <point x="262" y="-10"/>
    </contour>
    <contour>
      <point x="306" y="410" type="curve" smooth="yes"/>
      <point x="361" y="410"/>
      <point x="392" y="370"/>
      <point x="392" y="281" type="curve" smooth="yes"/>
      <point x="392" y="227" type="line" smooth="yes"/>
      <point x="392" y="144"/>
      <point x="361" y="93"/>
      <point x="284" y="93" type="curve" smooth="yes"/>
      <point x="256" y="93"/>
      <point x="228" y="99"/>
      <point x="194" y="113" type="curve"/>
      <point x="194" y="345" type="line"/>
      <point x="244" y="396"/>
      <point x="275" y="410"/>
    </contour>
  </outline>
</glyph>
<glyph name="q" format="1">
  <advance width="561"/>
  <unicode hex="0071"/>
  <outline>
    <contour>
      <point x="485" y="457" type="line"/>
      <point x="411" y="497"/>
      <point x="337" y="517"/>
      <point x="266" y="517" type="curve" smooth="yes"/>
      <point x="128" y="517"/>
      <point x="54" y="425"/>
      <point x="54" y="280" type="curve" smooth="yes"/>
      <point x="54" y="226" type="line" smooth="yes"/>
      <point x="54" y="77"/>
      <point x="116" y="-10"/>
      <point x="223" y="-10" type="curve" smooth="yes"/>
      <point x="270" y="-10"/>
      <point x="309" y="6"/>
      <point x="370" y="67" type="curve"/>
      <point x="370" y="-213" type="line"/>
      <point x="485" y="-213" type="line"/>
    </contour>
    <contour>
      <point x="172" y="226" type="curve" smooth="yes"/>
      <point x="172" y="280" type="line" smooth="yes"/>
      <point x="172" y="363"/>
      <point x="202" y="414"/>
      <point x="276" y="414" type="curve" smooth="yes"/>
      <point x="305" y="414"/>
      <point x="334" y="408"/>
      <point x="370" y="393" type="curve"/>
      <point x="370" y="166" type="line"/>
      <point x="318" y="111"/>
      <point x="286" y="97"/>
      <point x="254" y="97" type="curve" smooth="yes"/>
      <point x="202" y="97"/>
      <point x="172" y="137"/>
    </contour>
  </outline>
</glyph>
<glyph name="r" format="1">
  <advance width="387"/>
  <unicode hex="0072"/>
  <outline>
    <contour>
      <point x="365" y="402" type="curve"/>
      <point x="365" y="517" type="line"/>
      <point x="304" y="517"/>
      <point x="256" y="493"/>
      <point x="188" y="429" type="curve"/>
      <point x="188" y="507" type="line"/>
      <point x="79" y="507" type="line"/>
      <point x="79" y="0" type="line"/>
      <point x="194" y="0" type="line"/>
      <point x="194" y="341" type="line"/>
      <point x="246" y="383"/>
      <point x="302" y="402"/>
    </contour>
  </outline>
</glyph>
<glyph name="s" format="1">
  <advance width="456"/>
  <unicode hex="0073"/>
  <outline>
    <contour>
      <point x="221" y="90" type="curve" smooth="yes"/>
      <point x="181" y="90"/>
      <point x="131" y="100"/>
      <point x="68" y="125" type="curve"/>
      <point x="37" y="30" type="line"/>
      <point x="102" y="3"/>
      <point x="162" y="-10"/>
      <point x="220" y="-10" type="curve" smooth="yes"/>
      <point x="356" y="-10"/>
      <point x="417" y="55"/>
      <point x="417" y="148" type="curve" smooth="yes"/>
      <point x="417" y="227"/>
      <point x="374" y="278"/>
      <point x="277" y="304" type="curve" smooth="yes"/>
      <point x="220" y="319" type="line" smooth="yes"/>
      <point x="174" y="331"/>
      <point x="161" y="344"/>
      <point x="161" y="369" type="curve" smooth="yes"/>
      <point x="161" y="402"/>
      <point x="186" y="417"/>
      <point x="232" y="417" type="curve" smooth="yes"/>
      <point x="267" y="417"/>
      <point x="312" y="408"/>
      <point x="368" y="381" type="curve"/>
      <point x="401" y="479" type="line"/>
      <point x="340" y="506"/>
      <point x="284" y="517"/>
      <point x="233" y="517" type="curve" smooth="yes"/>
      <point x="107" y="517"/>
      <point x="49" y="450"/>
      <point x="49" y="364" type="curve" smooth="yes"/>
      <point x="49" y="290"/>
      <point x="90" y="235"/>
      <point x="178" y="212" type="curve" smooth="yes"/>
      <point x="235" y="197" type="line" smooth="yes"/>
      <point x="288" y="183"/>
      <point x="306" y="169"/>
      <point x="306" y="140" type="curve" smooth="yes"/>
      <point x="306" y="106"/>
      <point x="270" y="90"/>
    </contour>
  </outline>
</glyph>
<glyph name="t" format="1">
  <advance width="397"/>
  <unicode hex="0074"/>
  <outline>
    <contour>
      <point x="384" y="17" type="curve"/>
      <point x="355" y="114" type="line"/>
      <point x="324" y="102"/>
      <point x="300" y="98"/>
      <point x="279" y="98" type="curve" smooth="yes"/>
      <point x="235" y="98"/>
      <point x="211" y="117"/>
      <point x="211" y="179" type="curve" smooth="yes"/>
      <point x="211" y="407" type="line"/>
      <point x="369" y="407" type="line"/>
      <point x="369" y="507" type="line"/>
      <point x="211" y="507" type="line"/>
      <point x="211" y="639" type="line"/>
      <point x="96" y="639" type="line"/>
      <point x="96" y="507" type="line"/>
      <point x="14" y="507" type="line"/>
      <point x="14" y="407" type="line"/>
      <point x="96" y="407" type="line"/>
      <point x="96" y="179" type="line" smooth="yes"/>
      <point x="96" y="68"/>
      <point x="138" y="-10"/>
      <point x="255" y="-10" type="curve" smooth="yes"/>
      <point x="302" y="-10"/>
      <point x="349" y="1"/>
    </contour>
  </outline>
</glyph>
<glyph name="u" format="1">
  <advance width="569"/>
  <unicode hex="0075"/>
  <outline>
    <contour>
      <point x="381" y="0" type="line"/>
      <point x="490" y="0" type="line"/>
      <point x="490" y="507" type="line"/>
      <point x="375" y="507" type="line"/>
      <point x="375" y="155" type="line"/>
      <point x="319" y="110"/>
      <point x="282" y="97"/>
      <point x="249" y="97" type="curve" smooth="yes"/>
      <point x="208" y="97"/>
      <point x="187" y="124"/>
      <point x="187" y="181" type="curve" smooth="yes"/>
      <point x="187" y="507" type="line"/>
      <point x="72" y="507" type="line"/>
      <point x="72" y="167" type="line" smooth="yes"/>
      <point x="72" y="55"/>
      <point x="123" y="-10"/>
      <point x="214" y="-10" type="curve" smooth="yes"/>
      <point x="269" y="-10"/>
      <point x="319" y="13"/>
      <point x="381" y="67" type="curve"/>
    </contour>
  </outline>
</glyph>
<glyph name="v" format="1">
  <advance width="499"/>
  <unicode hex="0076"/>
  <outline>
    <contour>
      <point x="482" y="507" type="line"/>
      <point x="368" y="507" type="line"/>
      <point x="285" y="254" type="line"/>
      <point x="253" y="149" type="line"/>
      <point x="220" y="254" type="line"/>
      <point x="133" y="507" type="line"/>
      <point x="17" y="507" type="line"/>
      <point x="197" y="0" type="line"/>
      <point x="302" y="0" type="line"/>
    </contour>
  </outline>
</glyph>
<glyph name="w" format="1">
  <advance width="737"/>
  <unicode hex="0077"/>
  <outline>
    <contour>
      <point x="710" y="507" type="line"/>
      <point x="599" y="507" type="line"/>
      <point x="551" y="305" type="line"/>
      <point x="519" y="119" type="line"/>
      <point x="430" y="507" type="line"/>
      <point x="314" y="507" type="line"/>
      <point x="228" y="123" type="line"/>
      <point x="194" y="306" type="line"/>
      <point x="145" y="507" type="line"/>
      <point x="27" y="507" type="line"/>
      <point x="157" y="0" type="line"/>
      <point x="282" y="0" type="line"/>
      <point x="371" y="381" type="line"/>
      <point x="455" y="0" type="line"/>
      <point x="580" y="0" type="line"/>
    </contour>
  </outline>
</glyph>
<glyph name="x" format="1">
  <advance width="490"/>
  <unicode hex="0078"/>
  <outline>
    <contour>
      <point x="347" y="0" type="line"/>
      <point x="471" y="0" type="line"/>
      <point x="306" y="265" type="line"/>
      <point x="459" y="507" type="line"/>
      <point x="339" y="507" type="line"/>
      <point x="248" y="356" type="line"/>
      <point x="154" y="507" type="line"/>
      <point x="30" y="507" type="line"/>
      <point x="183" y="260" type="line"/>
      <point x="19" y="0" type="line"/>
      <point x="139" y="0" type="line"/>
      <point x="242" y="170" type="line"/>
    </contour>
  </outline>
</glyph>
<glyph name="y" format="1">
  <advance width="499"/>
  <unicode hex="0079"/>
  <outline>
    <contour>
      <point x="284" y="-50" type="curve"/>
      <point x="482" y="507" type="line"/>
      <point x="368" y="507" type="line"/>
      <point x="285" y="254" type="line"/>
      <point x="252" y="147" type="line"/>
      <point x="218" y="254" type="line"/>
      <point x="131" y="507" type="line"/>
      <point x="17" y="507" type="line"/>
      <point x="198" y="-2" type="line"/>
      <point x="189" y="-25" type="line" smooth="yes"/>
      <point x="169" y="-76"/>
      <point x="131" y="-105"/>
      <point x="60" y="-108" type="curve"/>
      <point x="60" y="-223" type="line"/>
      <point x="178" y="-223"/>
      <point x="240" y="-173"/>
    </contour>
  </outline>
</glyph>
<glyph name="z" format="1">
  <advance width="432"/>
  <unicode hex="007A"/>
  <outline>
    <contour>
      <point x="397" y="100" type="line"/>
      <point x="173" y="100" type="line"/>
      <point x="387" y="417" type="line"/>
      <point x="387" y="507" type="line"/>
      <point x="45" y="507" type="line"/>
      <point x="45" y="407" type="line"/>
      <point x="249" y="407" type="line"/>
      <point x="35" y="90" type="line"/>
      <point x="35" y="0" type="line"/>
      <point x="397" y="0" type="line"/>
    </contour>
  </outline>
</glyph>
<glyph name="braceleft" format="1">
  <advance width="381"/>
  <unicode hex="007B"/>
  <outline>
    <contour>
      <point x="380" y="-44" type="line"/>
      <point x="291" y="-44" type="line" smooth="yes"/>
      <point x="242" y="-44"/>
      <point x="225" y="-8"/>
      <point x="237" y="42" type="curve" smooth="yes"/>
      <point x="257" y="128" type="line" smooth="yes"/>
      <point x="279" y="221"/>
      <point x="251" y="278"/>
      <point x="184" y="298" type="curve"/>
      <point x="251" y="318"/>
      <point x="278" y="376"/>
      <point x="257" y="468" type="curve" smooth="yes"/>
      <point x="237" y="554" type="line" smooth="yes"/>
      <point x="225" y="604"/>
      <point x="242" y="640"/>
      <point x="291" y="640" type="curve" smooth="yes"/>
      <point x="380" y="640" type="line"/>
      <point x="380" y="740" type="line"/>
      <point x="291" y="740" type="line" smooth="yes"/>
      <point x="147" y="740"/>
      <point x="94" y="660"/>
      <point x="123" y="535" type="curve" smooth="yes"/>
      <point x="143" y="449" type="line" smooth="yes"/>
      <point x="157" y="389"/>
      <point x="148" y="348"/>
      <point x="73" y="348" type="curve" smooth="yes"/>
      <point x="20" y="348" type="line"/>
      <point x="20" y="248" type="line"/>
      <point x="73" y="248" type="line" smooth="yes"/>
      <point x="148" y="248"/>
      <point x="157" y="207"/>
      <point x="143" y="147" type="curve" smooth="yes"/>
      <point x="123" y="61" type="line" smooth="yes"/>
      <point x="94" y="-64"/>
      <point x="147" y="-144"/>
      <point x="291" y="-144" type="curve" smooth="yes"/>
      <point x="380" y="-144" type="line"/>
    </contour>
  </outline>
</glyph>
<glyph name="bar" format="1">
  <advance width="303"/>
  <unicode hex="007C"/>
  <outline>
    <contour>
      <point x="94" y="740" type="line"/>
      <point x="94" y="-213" type="line"/>
      <point x="209" y="-213" type="line"/>
      <point x="209" y="740" type="line"/>
    </contour>
  </outline>
</glyph>
<glyph name="braceright" format="1">
  <advance width="381"/>
  <unicode hex="007D"/>
  <outline>
    <contour>
      <point x="258" y="61" type="curve" smooth="yes"/>
      <point x="238" y="147" type="line" smooth="yes"/>
      <point x="224" y="207"/>
      <point x="233" y="248"/>
      <point x="308" y="248" type="curve" smooth="yes"/>
      <point x="361" y="248" type="line"/>
      <point x="361" y="348" type="line"/>
      <point x="308" y="348" type="line" smooth="yes"/>
      <point x="233" y="348"/>
      <point x="224" y="389"/>
      <point x="238" y="449" type="curve" smooth="yes"/>
      <point x="258" y="535" type="line" smooth="yes"/>
      <point x="287" y="660"/>
      <point x="234" y="740"/>
      <point x="90" y="740" type="curve" smooth="yes"/>
      <point x="1" y="740" type="line"/>
      <point x="1" y="640" type="line"/>
      <point x="90" y="640" type="line" smooth="yes"/>
      <point x="139" y="640"/>
      <point x="156" y="604"/>
      <point x="144" y="554" type="curve" smooth="yes"/>
      <point x="124" y="468" type="line" smooth="yes"/>
      <point x="102" y="375"/>
      <point x="130" y="318"/>
      <point x="197" y="298" type="curve"/>
      <point x="130" y="278"/>
      <point x="103" y="220"/>
      <point x="124" y="128" type="curve" smooth="yes"/>
      <point x="144" y="42" type="line" smooth="yes"/>
      <point x="156" y="-8"/>
      <point x="139" y="-44"/>
      <point x="90" y="-44" type="curve" smooth="yes"/>
      <point x="1" y="-44" type="line"/>
      <point x="1" y="-144" type="line"/>
      <point x="90" y="-144" type="line" smooth="yes"/>
      <point x="234" y="-144"/>
      <point x="287" y="-64"/>
    </contour>
  </outline>
</glyph>
<glyph name="asciitilde" format="1">
  <advance width="588"/>
  <unicode hex="007E"/>
  <outline>
    <contour>
      <point x="376" y="210" type="curve" smooth="yes"/>
      <point x="436" y="210"/>
      <point x="489" y="246"/>
      <point x="511" y="387" type="curve"/>
      <point x="421" y="407" type="line"/>
      <point x="407" y="318"/>
      <point x="389" y="310"/>
      <point x="376" y="310" type="curve" smooth="yes"/>
      <point x="341" y="310"/>
      <point x="298" y="416"/>
      <point x="211" y="416" type="curve" smooth="yes"/>
      <point x="152" y="416"/>
      <point x="98" y="380"/>
      <point x="77" y="240" type="curve"/>
      <point x="167" y="220" type="line"/>
      <point x="180" y="309"/>
      <point x="197" y="316"/>
      <point x="210" y="316" type="curve" smooth="yes"/>
      <point x="246" y="316"/>
      <point x="288" y="210"/>
    </contour>
  </outline>
</glyph>
<glyph name="exclamdown" format="1">
  <advance width="281"/>
  <unicode hex="00A1"/>
  <outline>
    <contour>
      <point x="80" y="507" type="line"/>
      <point x="80" y="388" type="line"/>
      <point x="201" y="388" type="line"/>
      <point x="201" y="507" type="line"/>
    </contour>
    <contour>
      <point x="95" y="308" type="line"/>
      <point x="82" y="47" type="line"/>
      <point x="82" y="-173" type="line"/>
      <point x="197" y="-173" type="line"/>
      <point x="197" y="47" type="line"/>
      <point x="185" y="308" type="line"/>
    </contour>
  </outline>
</glyph>
<glyph name="cent" format="1">
  <advance width="448"/>
  <unicode hex="00A2"/>
  <outline>
    <contour>
      <point x="422" y="26" type="curve"/>
      <point x="389" y="123" type="line"/>
      <point x="339" y="104"/>
      <point x="297" y="96"/>
      <point x="264" y="96" type="curve" smooth="yes"/>
      <point x="196" y="96"/>
      <point x="167" y="138"/>
      <point x="167" y="224" type="curve" smooth="yes"/>
      <point x="167" y="283" type="line" smooth="yes"/>
      <point x="167" y="369"/>
      <point x="196" y="411"/>
      <point x="264" y="411" type="curve" smooth="yes"/>
      <point x="296" y="411"/>
      <point x="335" y="402"/>
      <point x="384" y="383" type="curve"/>
      <point x="417" y="482" type="line"/>
      <point x="381" y="496"/>
      <point x="347" y="506"/>
      <point x="315" y="512" type="curve"/>
      <point x="315" y="632" type="line"/>
      <point x="205" y="632" type="line"/>
      <point x="205" y="512" type="line"/>
      <point x="105" y="490"/>
      <point x="52" y="405"/>
      <point x="52" y="283" type="curve" smooth="yes"/>
      <point x="52" y="224" type="line" smooth="yes"/>
      <point x="52" y="102"/>
      <point x="105" y="17"/>
      <point x="205" y="-5" type="curve"/>
      <point x="205" y="-125" type="line"/>
      <point x="315" y="-125" type="line"/>
      <point x="315" y="-5" type="line"/>
      <point x="349" y="0"/>
      <point x="384" y="11"/>
    </contour>
  </outline>
</glyph>
<glyph name="sterling" format="1">
  <advance width="487"/>
  <unicode hex="00A3"/>
  <outline>
    <contour>
      <point x="461" y="0" type="line"/>
      <point x="461" y="115" type="line"/>
      <point x="203" y="115" type="line"/>
      <point x="248" y="165"/>
      <point x="270" y="213"/>
      <point x="270" y="260" type="curve" smooth="yes"/>
      <point x="270" y="272" type="line"/>
      <point x="392" y="272" type="line"/>
      <point x="392" y="372" type="line"/>
      <point x="237" y="372" type="line"/>
      <point x="215" y="416"/>
      <point x="191" y="458"/>
      <point x="191" y="503" type="curve" smooth="yes"/>
      <point x="191" y="555"/>
      <point x="222" y="577"/>
      <point x="276" y="577" type="curve" smooth="yes"/>
      <point x="311" y="577"/>
      <point x="354" y="568"/>
      <point x="417" y="542" type="curve"/>
      <point x="454" y="648" type="line"/>
      <point x="384" y="679"/>
      <point x="327" y="690"/>
      <point x="271" y="690" type="curve" smooth="yes"/>
      <point x="126" y="690"/>
      <point x="68" y="617"/>
      <point x="68" y="520" type="curve" smooth="yes"/>
      <point x="68" y="461"/>
      <point x="90" y="415"/>
      <point x="112" y="372" type="curve"/>
      <point x="53" y="372" type="line"/>
      <point x="53" y="272" type="line"/>
      <point x="151" y="272" type="line"/>
      <point x="152" y="265"/>
      <point x="153" y="259"/>
      <point x="153" y="252" type="curve" smooth="yes"/>
      <point x="153" y="215"/>
      <point x="137" y="167"/>
      <point x="61" y="105" type="curve"/>
      <point x="61" y="0" type="line"/>
    </contour>
  </outline>
</glyph>
<glyph name="currency" format="1">
  <advance width="558"/>
  <unicode hex="00A4"/>
  <outline>
    <contour>
      <point x="546" y="87" type="line"/>
      <point x="443" y="194" type="line"/>
      <point x="461" y="224"/>
      <point x="471" y="260"/>
      <point x="471" y="300" type="curve" smooth="yes"/>
      <point x="471" y="340"/>
      <point x="461" y="376"/>
      <point x="443" y="406" type="curve"/>
      <point x="546" y="513" type="line"/>
      <point x="489" y="572" type="line"/>
      <point x="386" y="466" type="line"/>
      <point x="356" y="486"/>
      <point x="319" y="497"/>
      <point x="279" y="497" type="curve" smooth="yes"/>
      <point x="238" y="497"/>
      <point x="202" y="486"/>
      <point x="172" y="466" type="curve"/>
      <point x="69" y="572" type="line"/>
      <point x="12" y="513" type="line"/>
      <point x="115" y="406" type="line"/>
      <point x="97" y="376"/>
      <point x="87" y="340"/>
      <point x="87" y="300" type="curve" smooth="yes"/>
      <point x="87" y="260"/>
      <point x="97" y="224"/>
      <point x="115" y="194" type="curve"/>
      <point x="12" y="87" type="line"/>
      <point x="69" y="28" type="line"/>
      <point x="172" y="134" type="line"/>
      <point x="202" y="114"/>
      <point x="239" y="103"/>
      <point x="279" y="103" type="curve" smooth="yes"/>
      <point x="319" y="103"/>
      <point x="356" y="114"/>
      <point x="386" y="134" type="curve"/>
      <point x="489" y="28" type="line"/>
    </contour>
    <contour>
      <point x="279" y="193" type="curve" smooth="yes"/>
      <point x="223" y="193"/>
      <point x="182" y="231"/>
      <point x="182" y="300" type="curve" smooth="yes"/>
      <point x="182" y="369"/>
      <point x="223" y="407"/>
      <point x="279" y="407" type="curve" smooth="yes"/>
      <point x="335" y="407"/>
      <point x="376" y="369"/>
      <point x="376" y="300" type="curve" smooth="yes"/>
      <point x="376" y="231"/>
      <point x="335" y="193"/>
    </contour>
  </outline>
</glyph>
<glyph name="yen" format="1">
  <advance width="566"/>
  <unicode hex="00A5"/>
  <outline>
    <contour>
      <point x="509" y="149" type="line"/>
      <point x="509" y="236" type="line"/>
      <point x="344" y="236" type="line"/>
      <point x="344" y="273" type="line"/>
      <point x="364" y="312" type="line"/>
      <point x="509" y="312" type="line"/>
      <point x="509" y="399" type="line"/>
      <point x="408" y="399" type="line"/>
      <point x="552" y="680" type="line"/>
      <point x="428" y="680" type="line"/>
      <point x="289" y="390" type="line"/>
      <point x="142" y="680" type="line"/>
      <point x="14" y="680" type="line"/>
      <point x="158" y="399" type="line"/>
      <point x="59" y="399" type="line"/>
      <point x="59" y="312" type="line"/>
      <point x="203" y="312" type="line"/>
      <point x="224" y="271" type="line"/>
      <point x="224" y="236" type="line"/>
      <point x="59" y="236" type="line"/>
      <point x="59" y="149" type="line"/>
      <point x="224" y="149" type="line"/>
      <point x="224" y="0" type="line"/>
      <point x="344" y="0" type="line"/>
      <point x="344" y="149" type="line"/>
    </contour>
  </outline>
</glyph>
<glyph name="section" format="1">
  <advance width="521"/>
  <unicode hex="00A7"/>
  <outline>
    <contour>
      <point x="458" y="-38" type="curve" smooth="yes"/>
      <point x="458" y="23"/>
      <point x="435" y="73"/>
      <point x="388" y="108" type="curve"/>
      <point x="448" y="143"/>
      <point x="478" y="197"/>
      <point x="478" y="252" type="curve" smooth="yes"/>
      <point x="478" y="318"/>
      <point x="439" y="374"/>
      <point x="354" y="405" type="curve" smooth="yes"/>
      <point x="272" y="435" type="line" smooth="yes"/>
      <point x="210" y="458"/>
      <point x="188" y="480"/>
      <point x="188" y="514" type="curve" smooth="yes"/>
      <point x="188" y="556"/>
      <point x="221" y="577"/>
      <point x="270" y="577" type="curve" smooth="yes"/>
      <point x="315" y="577"/>
      <point x="353" y="569"/>
      <point x="420" y="544" type="curve"/>
      <point x="457" y="649" type="line"/>
      <point x="381" y="679"/>
      <point x="323" y="690"/>
      <point x="267" y="690" type="curve" smooth="yes"/>
      <point x="133" y="690"/>
      <point x="65" y="613"/>
      <point x="65" y="511" type="curve" smooth="yes"/>
      <point x="65" y="454"/>
      <point x="86" y="403"/>
      <point x="131" y="368" type="curve"/>
      <point x="77" y="334"/>
      <point x="45" y="280"/>
      <point x="45" y="222" type="curve" smooth="yes"/>
      <point x="45" y="155"/>
      <point x="82" y="96"/>
      <point x="167" y="65" type="curve" smooth="yes"/>
      <point x="249" y="35" type="line" smooth="yes"/>
      <point x="314" y="11"/>
      <point x="335" y="-12"/>
      <point x="335" y="-46" type="curve" smooth="yes"/>
      <point x="335" y="-92"/>
      <point x="300" y="-110"/>
      <point x="239" y="-110" type="curve" smooth="yes"/>
      <point x="190" y="-110"/>
      <point x="138" y="-99"/>
      <point x="67" y="-70" type="curve"/>
      <point x="30" y="-175" type="line"/>
      <point x="109" y="-210"/>
      <point x="182" y="-223"/>
      <point x="241" y="-223" type="curve" smooth="yes"/>
      <point x="390" y="-223"/>
      <point x="458" y="-145"/>
    </contour>
    <contour>
      <point x="247" y="167" type="line" smooth="yes"/>
      <point x="187" y="188"/>
      <point x="168" y="209"/>
      <point x="168" y="245" type="curve" smooth="yes"/>
      <point x="168" y="272"/>
      <point x="178" y="297"/>
      <point x="213" y="327" type="curve"/>
      <point x="274" y="306" type="line" smooth="yes"/>
      <point x="334" y="285"/>
      <point x="355" y="270"/>
      <point x="355" y="231" type="curve" smooth="yes"/>
      <point x="355" y="194"/>
      <point x="339" y="175"/>
      <point x="300" y="148" type="curve"/>
    </contour>
  </outline>
</glyph>
<glyph name="dieresis" format="1">
  <advance width="500"/>
  <unicode hex="00A8"/>
  <outline>
    <contour>
      <point x="208" y="609" type="line"/>
      <point x="208" y="716" type="line"/>
      <point x="99" y="716" type="line"/>
      <point x="99" y="609" type="line"/>
    </contour>
    <contour>
      <point x="402" y="609" type="line"/>
      <point x="402" y="716" type="line"/>
      <point x="293" y="716" type="line"/>
      <point x="293" y="609" type="line"/>
    </contour>
  </outline>
</glyph>
<glyph name="copyright" format="1">
  <advance width="834"/>
  <unicode hex="00A9"/>
  <outline>
    <contour>
      <point x="417" y="-37" type="curve" smooth="yes"/>
      <point x="631" y="-37"/>
      <point x="789" y="122"/>
      <point x="789" y="340" type="curve" smooth="yes"/>
      <point x="789" y="558"/>
      <point x="631" y="717"/>
      <point x="417" y="717" type="curve" smooth="yes"/>
      <point x="202" y="717"/>
      <point x="45" y="558"/>
      <point x="45" y="340" type="curve" smooth="yes"/>
      <point x="45" y="122"/>
      <point x="202" y="-37"/>
    </contour>
    <contour>
      <point x="417" y="33" type="curve" smooth="yes"/>
      <point x="246" y="33"/>
      <point x="121" y="161"/>
      <point x="121" y="340" type="curve" smooth="yes"/>
      <point x="121" y="518"/>
      <point x="246" y="647"/>
      <point x="417" y="647" type="curve" smooth="yes"/>
      <point x="588" y="647"/>
      <point x="713" y="518"/>
      <point x="713" y="340" type="curve" smooth="yes"/>
      <point x="713" y="161"/>
      <point x="588" y="33"/>
    </contour>
    <contour>
      <point x="333" y="361" type="line" smooth="yes"/>
      <point x="333" y="434"/>
      <point x="358" y="472"/>
      <point x="418" y="472" type="curve" smooth="yes"/>
      <point x="450" y="472"/>
      <point x="483" y="462"/>
      <point x="517" y="446" type="curve"/>
      <point x="546" y="525" type="line"/>
      <point x="504" y="547"/>
      <point x="456" y="557"/>
      <point x="413" y="557" type="curve" smooth="yes"/>
      <point x="299" y="557"/>
      <point x="240" y="484"/>
      <point x="240" y="361" type="curve" smooth="yes"/>
      <point x="240" y="320" type="line" smooth="yes"/>
      <point x="240" y="196"/>
      <point x="299" y="123"/>
      <point x="413" y="123" type="curve" smooth="yes"/>
      <point x="460" y="123"/>
      <point x="510" y="135"/>
      <point x="555" y="158" type="curve"/>
      <point x="526" y="237" type="line"/>
      <point x="489" y="219"/>
      <point x="453" y="208"/>
      <point x="418" y="208" type="curve" smooth="yes"/>
      <point x="358" y="208"/>
      <point x="333" y="246"/>
      <point x="333" y="320" type="curve" smooth="yes"/>
    </contour>
  </outline>
</glyph>
<glyph name="ordfeminine" format="1">
  <advance width="327"/>
  <unicode hex="00AA"/>
  <outline>
    <contour>
      <point x="307" y="338" type="curve" smooth="yes"/>
      <point x="314" y="338" type="line"/>
      <point x="314" y="410" type="line"/>
      <point x="305" y="410" type="line" smooth="yes"/>
      <point x="285" y="410"/>
      <point x="280" y="423"/>
      <point x="280" y="443" type="curve" smooth="yes"/>
      <point x="280" y="575" type="line" smooth="yes"/>
      <point x="280" y="630"/>
      <point x="256" y="685"/>
      <point x="149" y="685" type="curve" smooth="yes"/>
      <point x="109" y="685"/>
      <point x="72" y="674"/>
      <point x="34" y="655" type="curve"/>
      <point x="53" y="587" type="line"/>
      <point x="86" y="603"/>
      <point x="116" y="612"/>
      <point x="148" y="612" type="curve" smooth="yes"/>
      <point x="185" y="612"/>
      <point x="203" y="601"/>
      <point x="203" y="568" type="curve" smooth="yes"/>
      <point x="203" y="527" type="line"/>
      <point x="178" y="530"/>
      <point x="154" y="533"/>
      <point x="134" y="533" type="curve" smooth="yes"/>
      <point x="50" y="533"/>
      <point x="24" y="488"/>
      <point x="24" y="432" type="curve" smooth="yes"/>
      <point x="24" y="379"/>
      <point x="54" y="335"/>
      <point x="119" y="335" type="curve" smooth="yes"/>
      <point x="148" y="335"/>
      <point x="178" y="344"/>
      <point x="219" y="379" type="curve"/>
      <point x="234" y="352"/>
      <point x="266" y="338"/>
    </contour>
    <contour>
      <point x="101" y="437" type="curve" smooth="yes"/>
      <point x="101" y="461"/>
      <point x="113" y="473"/>
      <point x="143" y="473" type="curve" smooth="yes"/>
      <point x="157" y="473"/>
      <point x="180" y="471"/>
      <point x="203" y="468" type="curve"/>
      <point x="203" y="435" type="line"/>
      <point x="173" y="410"/>
      <point x="153" y="402"/>
      <point x="131" y="402" type="curve" smooth="yes"/>
      <point x="111" y="402"/>
      <point x="101" y="416"/>
    </contour>
  </outline>
</glyph>
<glyph name="guillemotleft" format="1">
  <advance width="711"/>
  <unicode hex="00AB"/>
  <outline>
    <contour>
      <point x="338" y="134" type="line"/>
      <point x="154" y="249" type="line"/>
      <point x="338" y="362" type="line"/>
      <point x="338" y="478" type="line"/>
      <point x="42" y="286" type="line"/>
      <point x="42" y="209" type="line"/>
      <point x="338" y="14" type="line"/>
    </contour>
    <contour>
      <point x="658" y="134" type="line"/>
      <point x="474" y="249" type="line"/>
      <point x="658" y="362" type="line"/>
      <point x="658" y="478" type="line"/>
      <point x="362" y="286" type="line"/>
      <point x="362" y="209" type="line"/>
      <point x="658" y="14" type="line"/>
    </contour>
  </outline>
</glyph>
<glyph name="logicalnot" format="1">
  <advance width="588"/>
  <unicode hex="00AC"/>
  <outline>
    <contour>
      <point x="87" y="475" type="line"/>
      <point x="87" y="375" type="line"/>
      <point x="399" y="375" type="line"/>
      <point x="399" y="218" type="line"/>
      <point x="501" y="218" type="line"/>
      <point x="501" y="475" type="line"/>
    </contour>
  </outline>
</glyph>
<glyph name="registered" format="1">
  <advance width="528"/>
  <unicode hex="00AE"/>
  <outline>
    <contour>
      <point x="264" y="241" type="curve" smooth="yes"/>
      <point x="398" y="241"/>
      <point x="498" y="343"/>
      <point x="498" y="479" type="curve" smooth="yes"/>
      <point x="498" y="616"/>
      <point x="398" y="717"/>
      <point x="264" y="717" type="curve" smooth="yes"/>
      <point x="130" y="717"/>
      <point x="30" y="616"/>
      <point x="30" y="479" type="curve" smooth="yes"/>
      <point x="30" y="343"/>
      <point x="130" y="241"/>
    </contour>
    <contour>
      <point x="264" y="299" type="curve" smooth="yes"/>
      <point x="165" y="299"/>
      <point x="92" y="376"/>
      <point x="92" y="479" type="curve" smooth="yes"/>
      <point x="92" y="583"/>
      <point x="165" y="659"/>
      <point x="264" y="659" type="curve" smooth="yes"/>
      <point x="363" y="659"/>
      <point x="436" y="583"/>
      <point x="436" y="479" type="curve" smooth="yes"/>
      <point x="436" y="376"/>
      <point x="363" y="299"/>
    </contour>
    <contour>
      <point x="175" y="353" type="line"/>
      <point x="236" y="353" type="line"/>
      <point x="236" y="434" type="line"/>
      <point x="262" y="434" type="line"/>
      <point x="277" y="408"/>
      <point x="290" y="381"/>
      <point x="302" y="353" type="curve"/>
      <point x="369" y="353" type="line"/>
      <point x="355" y="386"/>
      <point x="339" y="417"/>
      <point x="320" y="447" type="curve"/>
      <point x="342" y="461"/>
      <point x="354" y="486"/>
      <point x="354" y="517" type="curve" smooth="yes"/>
      <point x="354" y="526" type="line" smooth="yes"/>
      <point x="354" y="575"/>
      <point x="324" y="608"/>
      <point x="270" y="608" type="curve" smooth="yes"/>
      <point x="175" y="608" type="line"/>
    </contour>
    <contour>
      <point x="270" y="550" type="line" smooth="yes"/>
      <point x="283" y="550"/>
      <point x="291" y="540"/>
      <point x="291" y="526" type="curve" smooth="yes"/>
      <point x="291" y="517" type="line" smooth="yes"/>
      <point x="291" y="502"/>
      <point x="283" y="493"/>
      <point x="270" y="493" type="curve" smooth="yes"/>
      <point x="236" y="493" type="line"/>
      <point x="236" y="550" type="line"/>
    </contour>
  </outline>
</glyph>
<glyph name="macron" format="1">
  <advance width="500"/>
  <unicode hex="00AF"/>
  <outline>
    <contour>
      <point x="402" y="692" type="line"/>
      <point x="99" y="692" type="line"/>
      <point x="99" y="609" type="line"/>
      <point x="402" y="609" type="line"/>
    </contour>
  </outline>
</glyph>
<glyph name="degree" format="1">
  <advance width="348"/>
  <unicode hex="00B0"/>
  <outline>
    <contour>
      <point x="174" y="366" type="curve" smooth="yes"/>
      <point x="266" y="366"/>
      <point x="331" y="433"/>
      <point x="331" y="528" type="curve" smooth="yes"/>
      <point x="331" y="624"/>
      <point x="266" y="690"/>
      <point x="174" y="690" type="curve" smooth="yes"/>
      <point x="81" y="690"/>
      <point x="17" y="624"/>
      <point x="17" y="528" type="curve" smooth="yes"/>
      <point x="17" y="433"/>
      <point x="81" y="366"/>
    </contour>
    <contour>
      <point x="174" y="443" type="curve" smooth="yes"/>
      <point x="128" y="443"/>
      <point x="97" y="476"/>
      <point x="97" y="528" type="curve" smooth="yes"/>
      <point x="97" y="580"/>
      <point x="128" y="613"/>
      <point x="174" y="613" type="curve" smooth="yes"/>
      <point x="220" y="613"/>
      <point x="251" y="580"/>
      <point x="251" y="528" type="curve" smooth="yes"/>
      <point x="251" y="476"/>
      <point x="220" y="443"/>
    </contour>
  </outline>
</glyph>
<glyph name="plusminus" format="1">
  <advance width="588"/>
  <unicode hex="00B1"/>
  <outline>
    <contour>
      <point x="501" y="295" type="line"/>
      <point x="501" y="395" type="line"/>
      <point x="345" y="395" type="line"/>
      <point x="345" y="545" type="line"/>
      <point x="243" y="545" type="line"/>
      <point x="243" y="395" type="line"/>
      <point x="87" y="395" type="line"/>
      <point x="87" y="295" type="line"/>
      <point x="243" y="295" type="line"/>
      <point x="243" y="145" type="line"/>
      <point x="345" y="145" type="line"/>
      <point x="345" y="295" type="line"/>
    </contour>
    <contour>
      <point x="87" y="0" type="line"/>
      <point x="501" y="0" type="line"/>
      <point x="501" y="100" type="line"/>
      <point x="87" y="100" type="line"/>
    </contour>
  </outline>
</glyph>
<glyph name="mu" format="1">
  <advance width="574"/>
  <unicode hex="00B5"/>
  <outline>
    <contour>
      <point x="194" y="-213" type="line"/>
      <point x="194" y="-125" type="line"/>
      <point x="171" y="5" type="line"/>
      <point x="186" y="-5"/>
      <point x="205" y="-10"/>
      <point x="229" y="-10" type="curve" smooth="yes"/>
      <point x="279" y="-10"/>
      <point x="330" y="15"/>
      <point x="395" y="74" type="curve"/>
      <point x="409" y="29"/>
      <point x="445" y="-5"/>
      <point x="527" y="-5" type="curve" smooth="yes"/>
      <point x="550" y="-5" type="line"/>
      <point x="550" y="101" type="line"/>
      <point x="539" y="101" type="line" smooth="yes"/>
      <point x="506" y="101"/>
      <point x="497" y="123"/>
      <point x="497" y="143" type="curve"/>
      <point x="497" y="507" type="line"/>
      <point x="382" y="507" type="line"/>
      <point x="382" y="155" type="line"/>
      <point x="326" y="110"/>
      <point x="289" y="97"/>
      <point x="256" y="97" type="curve" smooth="yes"/>
      <point x="215" y="97"/>
      <point x="194" y="124"/>
      <point x="194" y="181" type="curve" smooth="yes"/>
      <point x="194" y="507" type="line"/>
      <point x="79" y="507" type="line"/>
      <point x="79" y="-213" type="line"/>
    </contour>
  </outline>
</glyph>
<glyph name="paragraph" format="1">
  <advance width="569"/>
  <unicode hex="00B6"/>
  <outline>
    <contour>
      <point x="37" y="482" type="curve" smooth="yes"/>
      <point x="37" y="429" type="line" smooth="yes"/>
      <point x="37" y="309"/>
      <point x="108" y="230"/>
      <point x="251" y="230" type="curve"/>
      <point x="292" y="230" type="line"/>
      <point x="292" y="593" type="line"/>
      <point x="355" y="593" type="line"/>
      <point x="355" y="-143" type="line"/>
      <point x="475" y="-143" type="line"/>
      <point x="475" y="593" type="line"/>
      <point x="557" y="593" type="line"/>
      <point x="557" y="680" type="line"/>
      <point x="251" y="680" type="line" smooth="yes"/>
      <point x="108" y="680"/>
      <point x="37" y="602"/>
    </contour>
  </outline>
</glyph>
<glyph name="periodcentered" format="1">
  <advance width="500"/>
  <unicode hex="00B7"/>
  <outline>
    <contour>
      <point x="311" y="325" type="line"/>
      <point x="311" y="444" type="line"/>
      <point x="190" y="444" type="line"/>
      <point x="190" y="325" type="line"/>
    </contour>
  </outline>
</glyph>
<glyph name="cedilla" format="1">
  <advance width="500"/>
  <unicode hex="00B8"/>
  <outline>
    <contour>
      <point x="364" y="-124" type="curve" smooth="yes"/>
      <point x="364" y="-77"/>
      <point x="334" y="-42"/>
      <point x="268" y="-39" type="curve"/>
      <point x="275" y="0" type="line"/>
      <point x="198" y="0" type="line"/>
      <point x="186" y="-73" type="line"/>
      <point x="211" y="-105" type="line"/>
      <point x="221" y="-103"/>
      <point x="228" y="-102"/>
      <point x="238" y="-102" type="curve" smooth="yes"/>
      <point x="268" y="-102"/>
      <point x="277" y="-114"/>
      <point x="277" y="-126" type="curve" smooth="yes"/>
      <point x="277" y="-140"/>
      <point x="266" y="-150"/>
      <point x="238" y="-150" type="curve" smooth="yes"/>
      <point x="219" y="-150"/>
      <point x="193" y="-146"/>
      <point x="166" y="-139" type="curve"/>
      <point x="153" y="-208" type="line"/>
      <point x="181" y="-217"/>
      <point x="206" y="-223"/>
      <point x="238" y="-223" type="curve" smooth="yes"/>
      <point x="313" y="-223"/>
      <point x="364" y="-189"/>
    </contour>
  </outline>
</glyph>
<glyph name="ordmasculine" format="1">
  <advance width="344"/>
  <unicode hex="00BA"/>
  <outline>
    <contour>
      <point x="323" y="531" type="line" smooth="yes"/>
      <point x="323" y="624"/>
      <point x="268" y="685"/>
      <point x="172" y="685" type="curve" smooth="yes"/>
      <point x="74" y="685"/>
      <point x="21" y="624"/>
      <point x="21" y="531" type="curve" smooth="yes"/>
      <point x="21" y="489" type="line" smooth="yes"/>
      <point x="21" y="392"/>
      <point x="76" y="335"/>
      <point x="172" y="335" type="curve" smooth="yes"/>
      <point x="267" y="335"/>
      <point x="323" y="392"/>
      <point x="323" y="489" type="curve" smooth="yes"/>
    </contour>
    <contour>
      <point x="243" y="531" type="curve" smooth="yes"/>
      <point x="243" y="489" type="line" smooth="yes"/>
      <point x="243" y="438"/>
      <point x="217" y="410"/>
      <point x="172" y="410" type="curve" smooth="yes"/>
      <point x="127" y="410"/>
      <point x="101" y="438"/>
      <point x="101" y="489" type="curve" smooth="yes"/>
      <point x="101" y="531" type="line" smooth="yes"/>
      <point x="101" y="580"/>
      <point x="127" y="610"/>
      <point x="172" y="610" type="curve" smooth="yes"/>
      <point x="217" y="610"/>
      <point x="243" y="580"/>
    </contour>
  </outline>
</glyph>
<glyph name="guillemotright" format="1">
  <advance width="711"/>
  <unicode hex="00BB"/>
  <outline>
    <contour>
      <point x="669" y="206" type="line"/>
      <point x="669" y="283" type="line"/>
      <point x="373" y="478" type="line"/>
      <point x="373" y="358" type="line"/>
      <point x="557" y="243" type="line"/>
      <point x="373" y="130" type="line"/>
      <point x="373" y="14" type="line"/>
    </contour>
    <contour>
      <point x="349" y="206" type="line"/>
      <point x="349" y="283" type="line"/>
      <point x="53" y="478" type="line"/>
      <point x="53" y="358" type="line"/>
      <point x="237" y="243" type="line"/>
      <point x="53" y="130" type="line"/>
      <point x="53" y="14" type="line"/>
    </contour>
  </outline>
</glyph>
<glyph name="questiondown" format="1">
  <advance width="454"/>
  <unicode hex="00BF"/>
  <outline>
    <contour>
      <point x="195" y="507" type="line"/>
      <point x="195" y="388" type="line"/>
      <point x="316" y="388" type="line"/>
      <point x="316" y="507" type="line"/>
    </contour>
    <contour>
      <point x="263" y="-76" type="curve" smooth="yes"/>
      <point x="188" y="-76"/>
      <point x="161" y="-43"/>
      <point x="161" y="3" type="curve" smooth="yes"/>
      <point x="161" y="21" type="line" smooth="yes"/>
      <point x="161" y="55"/>
      <point x="171" y="77"/>
      <point x="210" y="113" type="curve" smooth="yes"/>
      <point x="247" y="147" type="line" smooth="yes"/>
      <point x="307" y="202"/>
      <point x="316" y="239"/>
      <point x="316" y="290" type="curve" smooth="yes"/>
      <point x="316" y="308" type="line"/>
      <point x="196" y="308" type="line"/>
      <point x="196" y="299" type="line" smooth="yes"/>
      <point x="196" y="270"/>
      <point x="195" y="250"/>
      <point x="151" y="210" type="curve" smooth="yes"/>
      <point x="115" y="177" type="line" smooth="yes"/>
      <point x="62" y="129"/>
      <point x="43" y="82"/>
      <point x="43" y="11" type="curve" smooth="yes"/>
      <point x="43" y="-7" type="line" smooth="yes"/>
      <point x="43" y="-109"/>
      <point x="101" y="-183"/>
      <point x="255" y="-183" type="curve" smooth="yes"/>
      <point x="314" y="-183"/>
      <point x="381" y="-171"/>
      <point x="457" y="-137" type="curve"/>
      <point x="420" y="-38" type="line"/>
      <point x="355" y="-65"/>
      <point x="308" y="-76"/>
    </contour>
  </outline>
</glyph>
<glyph name="AE" format="1">
  <advance width="843"/>
  <unicode hex="00C6"/>
  <outline>
    <contour>
      <point x="1" y="0" type="line"/>
      <point x="132" y="0" type="line"/>
      <point x="196" y="133" type="line"/>
      <point x="401" y="133" type="line"/>
      <point x="401" y="0" type="line"/>
      <point x="795" y="0" type="line"/>
      <point x="795" y="115" type="line"/>
      <point x="521" y="115" type="line"/>
      <point x="521" y="287" type="line"/>
      <point x="755" y="287" type="line"/>
      <point x="755" y="402" type="line"/>
      <point x="521" y="402" type="line"/>
      <point x="521" y="565" type="line"/>
      <point x="785" y="565" type="line"/>
      <point x="785" y="680" type="line"/>
      <point x="338" y="680" type="line"/>
    </contour>
    <contour>
      <point x="249" y="243" type="line"/>
      <point x="401" y="557" type="line"/>
      <point x="401" y="243" type="line"/>
    </contour>
  </outline>
</glyph>
<glyph name="Ccedilla" format="1">
  <advance width="534"/>
  <unicode hex="00C7"/>
  <outline>
    <contour>
      <point x="411" y="-124" type="curve" smooth="yes"/>
      <point x="411" y="-77"/>
      <point x="381" y="-42"/>
      <point x="315" y="-39" type="curve"/>
      <point x="320" y="-10" type="line"/>
      <point x="372" y="-10"/>
      <point x="431" y="2"/>
      <point x="503" y="34" type="curve"/>
      <point x="466" y="138" type="line"/>
      <point x="402" y="112"/>
      <point x="363" y="103"/>
      <point x="323" y="103" type="curve" smooth="yes"/>
      <point x="225" y="103"/>
      <point x="186" y="171"/>
      <point x="186" y="269" type="curve" smooth="yes"/>
      <point x="186" y="412" type="line" smooth="yes"/>
      <point x="186" y="509"/>
      <point x="225" y="577"/>
      <point x="323" y="577" type="curve" smooth="yes"/>
      <point x="361" y="577"/>
      <point x="399" y="567"/>
      <point x="460" y="542" type="curve"/>
      <point x="497" y="648" type="line"/>
      <point x="427" y="679"/>
      <point x="370" y="690"/>
      <point x="316" y="690" type="curve" smooth="yes"/>
      <point x="148" y="690"/>
      <point x="63" y="574"/>
      <point x="63" y="412" type="curve" smooth="yes"/>
      <point x="63" y="269" type="line" smooth="yes"/>
      <point x="63" y="131"/>
      <point x="124" y="27"/>
      <point x="245" y="-2" type="curve"/>
      <point x="233" y="-73" type="line"/>
      <point x="258" y="-105" type="line"/>
      <point x="268" y="-103"/>
      <point x="275" y="-102"/>
      <point x="285" y="-102" type="curve" smooth="yes"/>
      <point x="315" y="-102"/>
      <point x="324" y="-114"/>
      <point x="324" y="-126" type="curve" smooth="yes"/>
      <point x="324" y="-140"/>
      <point x="313" y="-150"/>
      <point x="285" y="-150" type="curve" smooth="yes"/>
      <point x="266" y="-150"/>
      <point x="240" y="-146"/>
      <point x="213" y="-139" type="curve"/>
      <point x="200" y="-208" type="line"/>
      <point x="228" y="-217"/>
      <point x="253" y="-223"/>
      <point x="285" y="-223" type="curve" smooth="yes"/>
      <point x="360" y="-223"/>
      <point x="411" y="-189"/>
    </contour>
  </outline>
</glyph>
<glyph name="Eth" format="1">
  <advance width="648"/>
  <unicode hex="00D0"/>
  <outline>
    <contour>
      <point x="21" y="399" type="line"/>
      <point x="21" y="290" type="line"/>
      <point x="103" y="290" type="line"/>
      <point x="103" y="0" type="line"/>
      <point x="333" y="0" type="line" smooth="yes"/>
      <point x="495" y="0"/>
      <point x="583" y="92"/>
      <point x="583" y="269" type="curve" smooth="yes"/>
      <point x="583" y="412" type="line" smooth="yes"/>
      <point x="583" y="588"/>
      <point x="495" y="680"/>
      <point x="333" y="680" type="curve" smooth="yes"/>
      <point x="103" y="680" type="line"/>
      <point x="103" y="399" type="line"/>
    </contour>
    <contour>
      <point x="343" y="290" type="line"/>
      <point x="343" y="399" type="line"/>
      <point x="223" y="399" type="line"/>
      <point x="223" y="565" type="line"/>
      <point x="328" y="565" type="line" smooth="yes"/>
      <point x="422" y="565"/>
      <point x="460" y="523"/>
      <point x="460" y="412" type="curve" smooth="yes"/>
      <point x="460" y="269" type="line" smooth="yes"/>
      <point x="460" y="157"/>
      <point x="422" y="115"/>
      <point x="328" y="115" type="curve" smooth="yes"/>
      <point x="223" y="115" type="line"/>
      <point x="223" y="290" type="line"/>
    </contour>
  </outline>
</glyph>
<glyph name="multiply" format="1">
  <advance width="588"/>
  <unicode hex="00D7"/>
  <outline>
    <contour>
      <point x="504" y="176" type="line"/>
      <point x="365" y="315" type="line"/>
      <point x="504" y="454" type="line"/>
      <point x="433" y="525" type="line"/>
      <point x="294" y="386" type="line"/>
      <point x="155" y="525" type="line"/>
      <point x="84" y="454" type="line"/>
      <point x="223" y="315" type="line"/>
      <point x="84" y="176" type="line"/>
      <point x="155" y="105" type="line"/>
      <point x="294" y="244" type="line"/>
      <point x="433" y="105" type="line"/>
    </contour>
  </outline>
</glyph>
<glyph name="Oslash" format="1">
  <advance width="640"/>
  <unicode hex="00D8"/>
  <outline>
    <contour>
      <point x="320" y="-10" type="curve" smooth="yes"/>
      <point x="487" y="-10"/>
      <point x="575" y="96"/>
      <point x="575" y="269" type="curve" smooth="yes"/>
      <point x="575" y="412" type="line" smooth="yes"/>
      <point x="575" y="493"/>
      <point x="556" y="559"/>
      <point x="518" y="607" type="curve"/>
      <point x="575" y="710" type="line"/>
      <point x="474" y="710" type="line"/>
      <point x="448" y="663" type="line"/>
      <point x="413" y="681"/>
      <point x="370" y="690"/>
      <point x="320" y="690" type="curve" smooth="yes"/>
      <point x="152" y="690"/>
      <point x="65" y="585"/>
      <point x="65" y="412" type="curve" smooth="yes"/>
      <point x="65" y="269" type="line" smooth="yes"/>
      <point x="65" y="188"/>
      <point x="84" y="121"/>
      <point x="122" y="73" type="curve"/>
      <point x="65" y="-30" type="line"/>
      <point x="166" y="-30" type="line"/>
      <point x="192" y="17" type="line"/>
      <point x="227" y="-1"/>
      <point x="270" y="-10"/>
    </contour>
    <contour>
      <point x="185" y="269" type="curve" smooth="yes"/>
      <point x="185" y="412" type="line" smooth="yes"/>
      <point x="185" y="523"/>
      <point x="227" y="580"/>
      <point x="320" y="580" type="curve" smooth="yes"/>
      <point x="349" y="580"/>
      <point x="373" y="574"/>
      <point x="393" y="563" type="curve"/>
      <point x="192" y="200" type="line"/>
      <point x="187" y="220"/>
      <point x="185" y="243"/>
    </contour>
    <contour>
      <point x="455" y="412" type="curve" smooth="yes"/>
      <point x="455" y="269" type="line" smooth="yes"/>
      <point x="455" y="158"/>
      <point x="413" y="100"/>
      <point x="320" y="100" type="curve" smooth="yes"/>
      <point x="291" y="100"/>
      <point x="267" y="106"/>
      <point x="247" y="117" type="curve"/>
      <point x="448" y="480" type="line"/>
      <point x="453" y="461"/>
      <point x="455" y="438"/>
    </contour>
  </outline>
</glyph>
<glyph name="Thorn" format="1">
  <advance width="574"/>
  <unicode hex="00DE"/>
  <outline>
    <contour>
      <point x="318" y="118" type="line" smooth="yes"/>
      <point x="461" y="118"/>
      <point x="532" y="197"/>
      <point x="532" y="317" type="curve" smooth="yes"/>
      <point x="532" y="370" type="line" smooth="yes"/>
      <point x="532" y="490"/>
      <point x="461" y="568"/>
      <point x="318" y="568" type="curve" smooth="yes"/>
      <point x="214" y="568" type="line"/>
      <point x="214" y="680" type="line"/>
      <point x="94" y="680" type="line"/>
      <point x="94" y="0" type="line"/>
      <point x="214" y="0" type="line"/>
      <point x="214" y="118" type="line"/>
    </contour>
    <contour>
      <point x="318" y="453" type="line" smooth="yes"/>
      <point x="377" y="453"/>
      <point x="409" y="422"/>
      <point x="409" y="370" type="curve" smooth="yes"/>
      <point x="409" y="317" type="line" smooth="yes"/>
      <point x="409" y="264"/>
      <point x="377" y="233"/>
      <point x="318" y="233" type="curve" smooth="yes"/>
      <point x="214" y="233" type="line"/>
      <point x="214" y="453" type="line"/>
    </contour>
  </outline>
</glyph>
<glyph name="germandbls" format="1">
  <advance width="629"/>
  <unicode hex="00DF"/>
  <outline>
    <contour>
      <point x="603" y="151" type="curve" smooth="yes"/>
      <point x="603" y="209"/>
      <point x="583" y="258"/>
      <point x="527" y="298" type="curve" smooth="yes"/>
      <point x="486" y="327" type="line" smooth="yes"/>
      <point x="442" y="358"/>
      <point x="434" y="377"/>
      <point x="434" y="399" type="curve" smooth="yes"/>
      <point x="434" y="455"/>
      <point x="490" y="501"/>
      <point x="490" y="590" type="curve" smooth="yes"/>
      <point x="490" y="706"/>
      <point x="397" y="750"/>
      <point x="296" y="750" type="curve" smooth="yes"/>
      <point x="159" y="750"/>
      <point x="99" y="671"/>
      <point x="99" y="560" type="curve" smooth="yes"/>
      <point x="99" y="507" type="line"/>
      <point x="17" y="507" type="line"/>
      <point x="17" y="407" type="line"/>
      <point x="99" y="407" type="line"/>
      <point x="99" y="0" type="line"/>
      <point x="214" y="0" type="line"/>
      <point x="214" y="560" type="line" smooth="yes"/>
      <point x="214" y="622"/>
      <point x="245" y="642"/>
      <point x="296" y="642" type="curve" smooth="yes"/>
      <point x="343" y="642"/>
      <point x="378" y="624"/>
      <point x="378" y="579" type="curve" smooth="yes"/>
      <point x="378" y="520"/>
      <point x="322" y="456"/>
      <point x="322" y="380" type="curve" smooth="yes"/>
      <point x="322" y="324"/>
      <point x="350" y="281"/>
      <point x="407" y="241" type="curve" smooth="yes"/>
      <point x="448" y="212" type="line" smooth="yes"/>
      <point x="484" y="186"/>
      <point x="492" y="163"/>
      <point x="492" y="142" type="curve" smooth="yes"/>
      <point x="492" y="108"/>
      <point x="471" y="89"/>
      <point x="429" y="89" type="curve" smooth="yes"/>
      <point x="401" y="89"/>
      <point x="358" y="96"/>
      <point x="305" y="120" type="curve"/>
      <point x="278" y="22" type="line"/>
      <point x="336" y="-3"/>
      <point x="392" y="-10"/>
      <point x="430" y="-10" type="curve" smooth="yes"/>
      <point x="546" y="-10"/>
      <point x="603" y="58"/>
    </contour>
  </outline>
</glyph>
<glyph name="ae" format="1">
  <advance width="794"/>
  <unicode hex="00E6"/>
  <outline>
    <contour>
      <point x="737" y="29" type="curve"/>
      <point x="704" y="126" type="line"/>
      <point x="652" y="104"/>
      <point x="603" y="94"/>
      <point x="558" y="94" type="curve" smooth="yes"/>
      <point x="473" y="94"/>
      <point x="436" y="135"/>
      <point x="434" y="218" type="curve"/>
      <point x="728" y="218" type="line"/>
      <point x="737" y="252"/>
      <point x="741" y="284"/>
      <point x="741" y="312" type="curve" smooth="yes"/>
      <point x="741" y="454"/>
      <point x="641" y="517"/>
      <point x="536" y="517" type="curve" smooth="yes"/>
      <point x="473" y="517"/>
      <point x="423" y="491"/>
      <point x="390" y="447" type="curve"/>
      <point x="366" y="489"/>
      <point x="322" y="517"/>
      <point x="246" y="517" type="curve" smooth="yes"/>
      <point x="191" y="517"/>
      <point x="132" y="504"/>
      <point x="63" y="476" type="curve"/>
      <point x="96" y="378" type="line"/>
      <point x="150" y="401"/>
      <point x="198" y="411"/>
      <point x="238" y="411" type="curve" smooth="yes"/>
      <point x="290" y="411"/>
      <point x="323" y="394"/>
      <point x="323" y="338" type="curve" smooth="yes"/>
      <point x="323" y="279" type="line"/>
      <point x="285" y="286"/>
      <point x="248" y="291"/>
      <point x="213" y="291" type="curve" smooth="yes"/>
      <point x="81" y="291"/>
      <point x="38" y="230"/>
      <point x="38" y="142" type="curve" smooth="yes"/>
      <point x="38" y="54"/>
      <point x="79" y="-10"/>
      <point x="168" y="-10" type="curve" smooth="yes"/>
      <point x="238" y="-10"/>
      <point x="295" y="18"/>
      <point x="360" y="81" type="curve"/>
      <point x="397" y="23"/>
      <point x="461" y="-10"/>
      <point x="552" y="-10" type="curve" smooth="yes"/>
      <point x="607" y="-10"/>
      <point x="667" y="1"/>
    </contour>
    <contour>
      <point x="536" y="420" type="curve" smooth="yes"/>
      <point x="587" y="420"/>
      <point x="628" y="388"/>
      <point x="628" y="324" type="curve" smooth="yes"/>
      <point x="628" y="318"/>
      <point x="628" y="312"/>
      <point x="627" y="306" type="curve"/>
      <point x="435" y="306" type="line"/>
      <point x="441" y="379"/>
      <point x="475" y="420"/>
    </contour>
    <contour>
      <point x="149" y="144" type="curve" smooth="yes"/>
      <point x="149" y="184"/>
      <point x="169" y="206"/>
      <point x="221" y="206" type="curve" smooth="yes"/>
      <point x="254" y="206"/>
      <point x="288" y="203"/>
      <point x="324" y="197" type="curve"/>
      <point x="325" y="184"/>
      <point x="327" y="172"/>
      <point x="329" y="160" type="curve"/>
      <point x="265" y="96"/>
      <point x="227" y="86"/>
      <point x="196" y="86" type="curve" smooth="yes"/>
      <point x="165" y="86"/>
      <point x="149" y="108"/>
    </contour>
  </outline>
</glyph>
<glyph name="ccedilla" format="1">
  <advance width="448"/>
  <unicode hex="00E7"/>
  <outline>
    <contour>
      <point x="371" y="-124" type="curve" smooth="yes"/>
      <point x="371" y="-77"/>
      <point x="341" y="-42"/>
      <point x="275" y="-39" type="curve"/>
      <point x="280" y="-9" type="line"/>
      <point x="325" y="-6"/>
      <point x="371" y="5"/>
      <point x="422" y="26" type="curve"/>
      <point x="389" y="123" type="line"/>
      <point x="339" y="104"/>
      <point x="297" y="96"/>
      <point x="264" y="96" type="curve" smooth="yes"/>
      <point x="196" y="96"/>
      <point x="167" y="138"/>
      <point x="167" y="224" type="curve" smooth="yes"/>
      <point x="167" y="283" type="line" smooth="yes"/>
      <point x="167" y="369"/>
      <point x="196" y="411"/>
      <point x="264" y="411" type="curve" smooth="yes"/>
      <point x="296" y="411"/>
      <point x="335" y="402"/>
      <point x="384" y="383" type="curve"/>
      <point x="417" y="482" type="line"/>
      <point x="359" y="505"/>
      <point x="308" y="517"/>
      <point x="258" y="517" type="curve" smooth="yes"/>
      <point x="124" y="517"/>
      <point x="52" y="425"/>
      <point x="52" y="283" type="curve" smooth="yes"/>
      <point x="52" y="224" type="line" smooth="yes"/>
      <point x="52" y="102"/>
      <point x="105" y="17"/>
      <point x="204" y="-4" type="curve"/>
      <point x="193" y="-73" type="line"/>
      <point x="218" y="-105" type="line"/>
      <point x="228" y="-103"/>
      <point x="235" y="-102"/>
      <point x="245" y="-102" type="curve" smooth="yes"/>
      <point x="275" y="-102"/>
      <point x="284" y="-114"/>
      <point x="284" y="-126" type="curve" smooth="yes"/>
      <point x="284" y="-140"/>
      <point x="273" y="-150"/>
      <point x="245" y="-150" type="curve" smooth="yes"/>
      <point x="226" y="-150"/>
      <point x="200" y="-146"/>
      <point x="173" y="-139" type="curve"/>
      <point x="160" y="-208" type="line"/>
      <point x="188" y="-217"/>
      <point x="213" y="-223"/>
      <point x="245" y="-223" type="curve" smooth="yes"/>
      <point x="320" y="-223"/>
      <point x="371" y="-189"/>
    </contour>
  </outline>
</glyph>
<glyph name="eth" format="1">
  <advance width="537"/>
  <unicode hex="00F0"/>
  <outline>
    <contour>
      <point x="489" y="259" type="curve" smooth="yes"/>
      <point x="489" y="299" type="line" smooth="yes"/>
      <point x="489" y="402"/>
      <point x="454" y="504"/>
      <point x="367" y="600" type="curve"/>
      <point x="457" y="654" type="line"/>
      <point x="457" y="750" type="line"/>
      <point x="306" y="659" type="line"/>
      <point x="269" y="690"/>
      <point x="226" y="721"/>
      <point x="176" y="750" type="curve"/>
      <point x="131" y="661" type="line"/>
      <point x="163" y="643"/>
      <point x="191" y="624"/>
      <point x="216" y="604" type="curve"/>
      <point x="142" y="559" type="line"/>
      <point x="142" y="463" type="line"/>
      <point x="277" y="545" type="line"/>
      <point x="319" y="498"/>
      <point x="346" y="446"/>
      <point x="360" y="391" type="curve"/>
      <point x="313" y="425"/>
      <point x="272" y="436"/>
      <point x="230" y="436" type="curve" smooth="yes"/>
      <point x="120" y="436"/>
      <point x="44" y="353"/>
      <point x="44" y="223" type="curve" smooth="yes"/>
      <point x="44" y="193" type="line" smooth="yes"/>
      <point x="44" y="63"/>
      <point x="123" y="-10"/>
      <point x="264" y="-10" type="curve" smooth="yes"/>
      <point x="406" y="-10"/>
      <point x="489" y="80"/>
    </contour>
    <contour>
      <point x="162" y="193" type="curve" smooth="yes"/>
      <point x="162" y="223" type="line" smooth="yes"/>
      <point x="162" y="290"/>
      <point x="201" y="329"/>
      <point x="262" y="329" type="curve" smooth="yes"/>
      <point x="294" y="329"/>
      <point x="326" y="320"/>
      <point x="371" y="284" type="curve"/>
      <point x="371" y="259" type="line" smooth="yes"/>
      <point x="371" y="143"/>
      <point x="332" y="93"/>
      <point x="264" y="93" type="curve" smooth="yes"/>
      <point x="198" y="93"/>
      <point x="162" y="127"/>
    </contour>
  </outline>
</glyph>
<glyph name="divide" format="1">
  <advance width="588"/>
  <unicode hex="00F7"/>
  <outline>
    <contour>
      <point x="355" y="447" type="line"/>
      <point x="355" y="566" type="line"/>
      <point x="234" y="566" type="line"/>
      <point x="234" y="447" type="line"/>
    </contour>
    <contour>
      <point x="87" y="265" type="line"/>
      <point x="501" y="265" type="line"/>
      <point x="501" y="365" type="line"/>
      <point x="87" y="365" type="line"/>
    </contour>
    <contour>
      <point x="355" y="59" type="line"/>
      <point x="355" y="178" type="line"/>
      <point x="234" y="178" type="line"/>
      <point x="234" y="59" type="line"/>
    </contour>
  </outline>
</glyph>
<glyph name="oslash" format="1">
  <advance width="544"/>
  <unicode hex="00F8"/>
  <outline>
    <contour>
      <point x="272" y="-10" type="curve" smooth="yes"/>
      <point x="413" y="-10"/>
      <point x="494" y="82"/>
      <point x="494" y="224" type="curve" smooth="yes"/>
      <point x="494" y="284" type="line" smooth="yes"/>
      <point x="494" y="352"/>
      <point x="475" y="409"/>
      <point x="440" y="449" type="curve"/>
      <point x="494" y="537" type="line"/>
      <point x="397" y="537" type="line"/>
      <point x="373" y="498" type="line"/>
      <point x="344" y="510"/>
      <point x="310" y="517"/>
      <point x="272" y="517" type="curve" smooth="yes"/>
      <point x="129" y="517"/>
      <point x="50" y="425"/>
      <point x="50" y="284" type="curve" smooth="yes"/>
      <point x="50" y="224" type="line" smooth="yes"/>
      <point x="50" y="155"/>
      <point x="69" y="99"/>
      <point x="104" y="58" type="curve"/>
      <point x="50" y="-30" type="line"/>
      <point x="147" y="-30" type="line"/>
      <point x="171" y="9" type="line"/>
      <point x="200" y="-3"/>
      <point x="234" y="-10"/>
    </contour>
    <contour>
      <point x="163" y="224" type="curve" smooth="yes"/>
      <point x="163" y="284" type="line" smooth="yes"/>
      <point x="163" y="368"/>
      <point x="202" y="419"/>
      <point x="272" y="419" type="curve" smooth="yes"/>
      <point x="290" y="419"/>
      <point x="305" y="416"/>
      <point x="319" y="410" type="curve"/>
      <point x="170" y="167" type="line"/>
      <point x="166" y="183"/>
      <point x="163" y="203"/>
    </contour>
    <contour>
      <point x="381" y="284" type="curve" smooth="yes"/>
      <point x="381" y="224" type="line" smooth="yes"/>
      <point x="381" y="140"/>
      <point x="342" y="88"/>
      <point x="272" y="88" type="curve" smooth="yes"/>
      <point x="254" y="88"/>
      <point x="239" y="91"/>
      <point x="225" y="98" type="curve"/>
      <point x="374" y="341" type="line"/>
      <point x="379" y="324"/>
      <point x="381" y="305"/>
    </contour>
  </outline>
</glyph>
<glyph name="thorn" format="1">
  <advance width="560"/>
  <unicode hex="00FE"/>
  <outline>
    <contour>
      <point x="296" y="-10" type="curve" smooth="yes"/>
      <point x="432" y="-10"/>
      <point x="506" y="82"/>
      <point x="506" y="227" type="curve" smooth="yes"/>
      <point x="506" y="281" type="line" smooth="yes"/>
      <point x="506" y="430"/>
      <point x="444" y="517"/>
      <point x="337" y="517" type="curve" smooth="yes"/>
      <point x="291" y="517"/>
      <point x="252" y="501"/>
      <point x="194" y="444" type="curve"/>
      <point x="194" y="740" type="line"/>
      <point x="79" y="740" type="line"/>
      <point x="79" y="-213" type="line"/>
      <point x="194" y="-213" type="line"/>
      <point x="194" y="9" type="line"/>
      <point x="228" y="-3"/>
      <point x="262" y="-10"/>
    </contour>
    <contour>
      <point x="306" y="410" type="curve" smooth="yes"/>
      <point x="358" y="410"/>
      <point x="388" y="370"/>
      <point x="388" y="281" type="curve" smooth="yes"/>
      <point x="388" y="227" type="line" smooth="yes"/>
      <point x="388" y="144"/>
      <point x="358" y="93"/>
      <point x="284" y="93" type="curve" smooth="yes"/>
      <point x="256" y="93"/>
      <point x="228" y="99"/>
      <point x="194" y="113" type="curve"/>
      <point x="194" y="345" type="line"/>
      <point x="244" y="396"/>
      <point x="275" y="410"/>
    </contour>
  </outline>
</glyph>
<glyph name="Aogonek" format="1">
  <advance width="601"/>
  <unicode hex="0104"/>
  <outline>
    <contour>
      <point x="581" y="-207" type="curve"/>
      <point x="565" y="-124" type="line"/>
      <point x="547" y="-130"/>
      <point x="532" y="-133"/>
      <point x="518" y="-133" type="curve" smooth="yes"/>
      <point x="500" y="-133"/>
      <point x="488" y="-126"/>
      <point x="488" y="-108" type="curve" smooth="yes"/>
      <point x="488" y="-89"/>
      <point x="507" y="-62"/>
      <point x="581" y="0" type="curve"/>
      <point x="353" y="680" type="line"/>
      <point x="247" y="680" type="line"/>
      <point x="20" y="0" type="line"/>
      <point x="139" y="0" type="line"/>
      <point x="181" y="133" type="line"/>
      <point x="414" y="133" type="line"/>
      <point x="459" y="-11" type="line"/>
      <point x="408" y="-58"/>
      <point x="388" y="-95"/>
      <point x="388" y="-132" type="curve" smooth="yes"/>
      <point x="388" y="-187"/>
      <point x="430" y="-223"/>
      <point x="500" y="-223" type="curve" smooth="yes"/>
      <point x="526" y="-223"/>
      <point x="553" y="-218"/>
    </contour>
    <contour>
      <point x="246" y="341" type="line"/>
      <point x="298" y="513" type="line"/>
      <point x="348" y="341" type="line"/>
      <point x="379" y="243" type="line"/>
      <point x="215" y="243" type="line"/>
    </contour>
  </outline>
</glyph>
<glyph name="aogonek" format="1">
  <advance width="507"/>
  <unicode hex="0105"/>
  <outline>
    <contour>
      <point x="486" y="-207" type="curve"/>
      <point x="470" y="-124" type="line"/>
      <point x="452" y="-130"/>
      <point x="437" y="-133"/>
      <point x="423" y="-133" type="curve" smooth="yes"/>
      <point x="405" y="-133"/>
      <point x="393" y="-126"/>
      <point x="393" y="-108" type="curve" smooth="yes"/>
      <point x="393" y="-90"/>
      <point x="409" y="-63"/>
      <point x="486" y="-5" type="curve"/>
      <point x="486" y="101" type="line"/>
      <point x="475" y="101" type="line" smooth="yes"/>
      <point x="442" y="101"/>
      <point x="433" y="123"/>
      <point x="433" y="143" type="curve" smooth="yes"/>
      <point x="433" y="338" type="line" smooth="yes"/>
      <point x="433" y="432"/>
      <point x="394" y="517"/>
      <point x="246" y="517" type="curve" smooth="yes"/>
      <point x="191" y="517"/>
      <point x="132" y="504"/>
      <point x="63" y="476" type="curve"/>
      <point x="96" y="378" type="line"/>
      <point x="150" y="401"/>
      <point x="198" y="411"/>
      <point x="238" y="411" type="curve" smooth="yes"/>
      <point x="290" y="411"/>
      <point x="323" y="394"/>
      <point x="323" y="338" type="curve" smooth="yes"/>
      <point x="323" y="279" type="line"/>
      <point x="285" y="286"/>
      <point x="248" y="291"/>
      <point x="213" y="291" type="curve" smooth="yes"/>
      <point x="81" y="291"/>
      <point x="38" y="230"/>
      <point x="38" y="142" type="curve" smooth="yes"/>
      <point x="38" y="54"/>
      <point x="79" y="-10"/>
      <point x="168" y="-10" type="curve" smooth="yes"/>
      <point x="229" y="-10"/>
      <point x="280" y="15"/>
      <point x="337" y="68" type="curve"/>
      <point x="348" y="44"/>
      <point x="366" y="23"/>
      <point x="392" y="10" type="curve"/>
      <point x="318" y="-47"/>
      <point x="293" y="-89"/>
      <point x="293" y="-132" type="curve" smooth="yes"/>
      <point x="293" y="-187"/>
      <point x="335" y="-223"/>
      <point x="405" y="-223" type="curve" smooth="yes"/>
      <point x="431" y="-223"/>
      <point x="458" y="-218"/>
    </contour>
    <contour>
      <point x="149" y="144" type="curve" smooth="yes"/>
      <point x="149" y="184"/>
      <point x="169" y="206"/>
      <point x="221" y="206" type="curve" smooth="yes"/>
      <point x="254" y="206"/>
      <point x="288" y="203"/>
      <point x="323" y="197" type="curve"/>
      <point x="323" y="154" type="line"/>
      <point x="262" y="95"/>
      <point x="226" y="86"/>
      <point x="196" y="86" type="curve" smooth="yes"/>
      <point x="165" y="86"/>
      <point x="149" y="108"/>
    </contour>
  </outline>
</glyph>
<glyph name="dcroat" format="1">
  <advance width="564"/>
  <unicode hex="0111"/>
  <outline>
    <contour>
      <point x="376" y="0" type="line"/>
      <point x="485" y="0" type="line"/>
      <point x="485" y="590" type="line"/>
      <point x="567" y="590" type="line"/>
      <point x="567" y="665" type="line"/>
      <point x="485" y="665" type="line"/>
      <point x="485" y="740" type="line"/>
      <point x="370" y="740" type="line"/>
      <point x="370" y="665" type="line"/>
      <point x="221" y="665" type="line"/>
      <point x="221" y="590" type="line"/>
      <point x="370" y="590" type="line"/>
      <point x="370" y="498" type="line"/>
      <point x="336" y="510"/>
      <point x="302" y="517"/>
      <point x="268" y="517" type="curve" smooth="yes"/>
      <point x="129" y="517"/>
      <point x="54" y="425"/>
      <point x="54" y="280" type="curve" smooth="yes"/>
      <point x="54" y="226" type="line" smooth="yes"/>
      <point x="54" y="77"/>
      <point x="117" y="-10"/>
      <point x="227" y="-10" type="curve" smooth="yes"/>
      <point x="275" y="-10"/>
      <point x="314" y="7"/>
      <point x="376" y="69" type="curve"/>
    </contour>
    <contour>
      <point x="172" y="226" type="curve" smooth="yes"/>
      <point x="172" y="280" type="line" smooth="yes"/>
      <point x="172" y="363"/>
      <point x="203" y="414"/>
      <point x="280" y="414" type="curve" smooth="yes"/>
      <point x="308" y="414"/>
      <point x="336" y="408"/>
      <point x="370" y="394" type="curve"/>
      <point x="370" y="162" type="line"/>
      <point x="320" y="111"/>
      <point x="289" y="97"/>
      <point x="258" y="97" type="curve" smooth="yes"/>
      <point x="203" y="97"/>
      <point x="172" y="137"/>
    </contour>
  </outline>
</glyph>
<glyph name="Eogonek" format="1">
  <advance width="536"/>
  <unicode hex="0118"/>
  <outline>
    <contour>
      <point x="488" y="-207" type="curve"/>
      <point x="472" y="-124" type="line"/>
      <point x="454" y="-130"/>
      <point x="439" y="-133"/>
      <point x="425" y="-133" type="curve" smooth="yes"/>
      <point x="407" y="-133"/>
      <point x="395" y="-126"/>
      <point x="395" y="-108" type="curve" smooth="yes"/>
      <point x="395" y="-89"/>
      <point x="414" y="-62"/>
      <point x="488" y="0" type="curve"/>
      <point x="488" y="115" type="line"/>
      <point x="214" y="115" type="line"/>
      <point x="214" y="287" type="line"/>
      <point x="448" y="287" type="line"/>
      <point x="448" y="402" type="line"/>
      <point x="214" y="402" type="line"/>
      <point x="214" y="565" type="line"/>
      <point x="478" y="565" type="line"/>
      <point x="478" y="680" type="line"/>
      <point x="94" y="680" type="line"/>
      <point x="94" y="0" type="line"/>
      <point x="379" y="0" type="line"/>
      <point x="318" y="-52"/>
      <point x="295" y="-92"/>
      <point x="295" y="-132" type="curve" smooth="yes"/>
      <point x="295" y="-187"/>
      <point x="337" y="-223"/>
      <point x="407" y="-223" type="curve" smooth="yes"/>
      <point x="433" y="-223"/>
      <point x="460" y="-218"/>
    </contour>
  </outline>
</glyph>
<glyph name="eogonek" format="1">
  <advance width="521"/>
  <unicode hex="0119"/>
  <outline>
    <contour>
      <point x="457" y="-207" type="curve"/>
      <point x="441" y="-124" type="line"/>
      <point x="423" y="-130"/>
      <point x="408" y="-133"/>
      <point x="394" y="-133" type="curve" smooth="yes"/>
      <point x="376" y="-133"/>
      <point x="364" y="-126"/>
      <point x="364" y="-108" type="curve" smooth="yes"/>
      <point x="364" y="-84"/>
      <point x="386" y="-45"/>
      <point x="464" y="29" type="curve"/>
      <point x="431" y="126" type="line"/>
      <point x="379" y="104"/>
      <point x="330" y="94"/>
      <point x="285" y="94" type="curve" smooth="yes"/>
      <point x="200" y="94"/>
      <point x="163" y="135"/>
      <point x="161" y="218" type="curve"/>
      <point x="455" y="218" type="line"/>
      <point x="464" y="252"/>
      <point x="468" y="284"/>
      <point x="468" y="312" type="curve" smooth="yes"/>
      <point x="468" y="454"/>
      <point x="368" y="517"/>
      <point x="263" y="517" type="curve" smooth="yes"/>
      <point x="132" y="517"/>
      <point x="50" y="425"/>
      <point x="50" y="284" type="curve" smooth="yes"/>
      <point x="50" y="224" type="line" smooth="yes"/>
      <point x="50" y="82"/>
      <point x="128" y="-10"/>
      <point x="267" y="-10" type="curve" smooth="yes"/>
      <point x="286" y="-10"/>
      <point x="306" y="-8"/>
      <point x="326" y="-5" type="curve"/>
      <point x="283" y="-52"/>
      <point x="264" y="-93"/>
      <point x="264" y="-132" type="curve" smooth="yes"/>
      <point x="264" y="-187"/>
      <point x="306" y="-223"/>
      <point x="376" y="-223" type="curve" smooth="yes"/>
      <point x="402" y="-223"/>
      <point x="429" y="-218"/>
    </contour>
    <contour>
      <point x="263" y="420" type="curve" smooth="yes"/>
      <point x="314" y="420"/>
      <point x="355" y="388"/>
      <point x="355" y="324" type="curve" smooth="yes"/>
      <point x="355" y="318"/>
      <point x="355" y="312"/>
      <point x="354" y="306" type="curve"/>
      <point x="162" y="306" type="line"/>
      <point x="168" y="379"/>
      <point x="202" y="420"/>
    </contour>
  </outline>
</glyph>
<glyph name="Hbar" format="1">
  <advance width="700"/>
  <unicode hex="0126"/>
  <outline>
    <contour>
      <point x="223" y="287" type="line"/>
      <point x="477" y="287" type="line"/>
      <point x="477" y="0" type="line"/>
      <point x="597" y="0" type="line"/>
      <point x="597" y="501" type="line"/>
      <point x="679" y="501" type="line"/>
      <point x="679" y="588" type="line"/>
      <point x="597" y="588" type="line"/>
      <point x="597" y="680" type="line"/>
      <point x="477" y="680" type="line"/>
      <point x="477" y="588" type="line"/>
      <point x="223" y="588" type="line"/>
      <point x="223" y="680" type="line"/>
      <point x="103" y="680" type="line"/>
      <point x="103" y="588" type="line"/>
      <point x="21" y="588" type="line"/>
      <point x="21" y="501" type="line"/>
      <point x="103" y="501" type="line"/>
      <point x="103" y="0" type="line"/>
      <point x="223" y="0" type="line"/>
    </contour>
    <contour>
      <point x="223" y="402" type="line"/>
      <point x="223" y="501" type="line"/>
      <point x="477" y="501" type="line"/>
      <point x="477" y="402" type="line"/>
    </contour>
  </outline>
</glyph>
<glyph name="hbar" format="1">
  <advance width="584"/>
  <unicode hex="0127"/>
  <outline>
    <contour>
      <point x="194" y="351" type="line"/>
      <point x="253" y="397"/>
      <point x="293" y="410"/>
      <point x="327" y="410" type="curve" smooth="yes"/>
      <point x="374" y="410"/>
      <point x="396" y="383"/>
      <point x="396" y="326" type="curve" smooth="yes"/>
      <point x="396" y="0" type="line"/>
      <point x="511" y="0" type="line"/>
      <point x="511" y="340" type="line" smooth="yes"/>
      <point x="511" y="452"/>
      <point x="459" y="517"/>
      <point x="362" y="517" type="curve" smooth="yes"/>
      <point x="306" y="517"/>
      <point x="255" y="496"/>
      <point x="194" y="444" type="curve"/>
      <point x="194" y="590" type="line"/>
      <point x="343" y="590" type="line"/>
      <point x="343" y="665" type="line"/>
      <point x="194" y="665" type="line"/>
      <point x="194" y="740" type="line"/>
      <point x="79" y="740" type="line"/>
      <point x="79" y="665" type="line"/>
      <point x="-3" y="665" type="line"/>
      <point x="-3" y="590" type="line"/>
      <point x="79" y="590" type="line"/>
      <point x="79" y="0" type="line"/>
      <point x="194" y="0" type="line"/>
    </contour>
  </outline>
</glyph>
<glyph name="Iogonek" format="1">
  <advance width="308"/>
  <unicode hex="012E"/>
  <outline>
    <contour>
      <point x="229" y="-207" type="curve"/>
      <point x="213" y="-124" type="line"/>
      <point x="195" y="-130"/>
      <point x="180" y="-133"/>
      <point x="166" y="-133" type="curve" smooth="yes"/>
      <point x="148" y="-133"/>
      <point x="136" y="-126"/>
      <point x="136" y="-106" type="curve" smooth="yes"/>
      <point x="136" y="-83"/>
      <point x="152" y="-49"/>
      <point x="214" y="0" type="curve"/>
      <point x="214" y="680" type="line"/>
      <point x="94" y="680" type="line"/>
      <point x="94" y="-7" type="line"/>
      <point x="54" y="-53"/>
      <point x="36" y="-95"/>
      <point x="36" y="-132" type="curve" smooth="yes"/>
      <point x="36" y="-187"/>
      <point x="78" y="-223"/>
      <point x="148" y="-223" type="curve" smooth="yes"/>
      <point x="174" y="-223"/>
      <point x="201" y="-218"/>
    </contour>
  </outline>
</glyph>
<glyph name="iogonek" format="1">
  <advance width="273"/>
  <unicode hex="012F"/>
  <outline>
    <contour>
      <point x="194" y="606" type="line"/>
      <point x="194" y="719" type="line"/>
      <point x="79" y="719" type="line"/>
      <point x="79" y="606" type="line"/>
    </contour>
    <contour>
      <point x="209" y="-207" type="curve"/>
      <point x="193" y="-124" type="line"/>
      <point x="175" y="-130"/>
      <point x="160" y="-133"/>
      <point x="146" y="-133" type="curve" smooth="yes"/>
      <point x="128" y="-133"/>
      <point x="116" y="-126"/>
      <point x="116" y="-106" type="curve" smooth="yes"/>
      <point x="116" y="-83"/>
      <point x="132" y="-49"/>
      <point x="194" y="0" type="curve"/>
      <point x="194" y="507" type="line"/>
      <point x="79" y="507" type="line"/>
      <point x="79" y="-2" type="line"/>
      <point x="36" y="-49"/>
      <point x="16" y="-93"/>
      <point x="16" y="-132" type="curve" smooth="yes"/>
      <point x="16" y="-187"/>
      <point x="58" y="-223"/>
      <point x="128" y="-223" type="curve" smooth="yes"/>
      <point x="154" y="-223"/>
      <point x="181" y="-218"/>
    </contour>
  </outline>
</glyph>
<glyph name="Lslash" format="1">
  <advance width="516"/>
  <unicode hex="0141"/>
  <outline>
    <contour>
      <point x="495" y="115" type="line"/>
      <point x="223" y="115" type="line"/>
      <point x="223" y="318" type="line"/>
      <point x="343" y="372" type="line"/>
      <point x="343" y="489" type="line"/>
      <point x="223" y="435" type="line"/>
      <point x="223" y="680" type="line"/>
      <point x="103" y="680" type="line"/>
      <point x="103" y="380" type="line"/>
      <point x="21" y="343" type="line"/>
      <point x="21" y="226" type="line"/>
      <point x="103" y="263" type="line"/>
      <point x="103" y="0" type="line"/>
      <point x="495" y="0" type="line"/>
    </contour>
  </outline>
</glyph>
<glyph name="lslash" format="1">
  <advance width="329"/>
  <unicode hex="0142"/>
  <outline>
    <contour>
      <point x="273" y="101" type="line"/>
      <point x="257" y="101" type="line" smooth="yes"/>
      <point x="228" y="101"/>
      <point x="220" y="123"/>
      <point x="220" y="143" type="curve" smooth="yes"/>
      <point x="220" y="352" type="line"/>
      <point x="304" y="396" type="line"/>
      <point x="304" y="509" type="line"/>
      <point x="220" y="465" type="line"/>
      <point x="220" y="740" type="line"/>
      <point x="105" y="740" type="line"/>
      <point x="105" y="406" type="line"/>
      <point x="23" y="363" type="line"/>
      <point x="23" y="250" type="line"/>
      <point x="105" y="293" type="line"/>
      <point x="105" y="143" type="line" smooth="yes"/>
      <point x="105" y="71"/>
      <point x="131" y="-5"/>
      <point x="245" y="-5" type="curve" smooth="yes"/>
      <point x="273" y="-5" type="line"/>
    </contour>
  </outline>
</glyph>
<glyph name="Eng" format="1">
  <advance width="683"/>
  <unicode hex="014A"/>
  <outline>
    <contour>
      <point x="474" y="680" type="line"/>
      <point x="474" y="430" type="line"/>
      <point x="483" y="225" type="line"/>
      <point x="403" y="387"/>
      <point x="309" y="542"/>
      <point x="204" y="680" type="curve"/>
      <point x="94" y="680" type="line"/>
      <point x="94" y="0" type="line"/>
      <point x="209" y="0" type="line"/>
      <point x="209" y="260" type="line"/>
      <point x="201" y="494" type="line"/>
      <point x="302" y="347"/>
      <point x="390" y="176"/>
      <point x="473" y="11" type="curve"/>
      <point x="467" y="-78"/>
      <point x="419" y="-108"/>
      <point x="315" y="-108" type="curve"/>
      <point x="315" y="-223" type="line"/>
      <point x="528" y="-223"/>
      <point x="589" y="-126"/>
      <point x="589" y="31" type="curve" smooth="yes"/>
      <point x="589" y="680" type="line"/>
    </contour>
  </outline>
</glyph>
<glyph name="OE" format="1">
  <advance width="867"/>
  <unicode hex="0152"/>
  <outline>
    <contour>
      <point x="65" y="412" type="curve" smooth="yes"/>
      <point x="65" y="269" type="line" smooth="yes"/>
      <point x="65" y="92"/>
      <point x="153" y="0"/>
      <point x="315" y="0" type="curve" smooth="yes"/>
      <point x="819" y="0" type="line"/>
      <point x="819" y="115" type="line"/>
      <point x="545" y="115" type="line"/>
      <point x="545" y="287" type="line"/>
      <point x="779" y="287" type="line"/>
      <point x="779" y="402" type="line"/>
      <point x="545" y="402" type="line"/>
      <point x="545" y="565" type="line"/>
      <point x="809" y="565" type="line"/>
      <point x="809" y="680" type="line"/>
      <point x="315" y="680" type="line" smooth="yes"/>
      <point x="153" y="680"/>
      <point x="65" y="588"/>
    </contour>
    <contour>
      <point x="320" y="115" type="line" smooth="yes"/>
      <point x="226" y="115"/>
      <point x="188" y="157"/>
      <point x="188" y="269" type="curve" smooth="yes"/>
      <point x="188" y="412" type="line" smooth="yes"/>
      <point x="188" y="523"/>
      <point x="226" y="565"/>
      <point x="320" y="565" type="curve" smooth="yes"/>
      <point x="425" y="565" type="line"/>
      <point x="425" y="115" type="line"/>
    </contour>
  </outline>
</glyph>
<glyph name="oe" format="1">
  <advance width="847"/>
  <unicode hex="0153"/>
  <outline>
    <contour>
      <point x="790" y="29" type="curve"/>
      <point x="757" y="126" type="line"/>
      <point x="705" y="104"/>
      <point x="656" y="94"/>
      <point x="611" y="94" type="curve" smooth="yes"/>
      <point x="526" y="94"/>
      <point x="489" y="135"/>
      <point x="487" y="218" type="curve"/>
      <point x="781" y="218" type="line"/>
      <point x="790" y="252"/>
      <point x="794" y="284"/>
      <point x="794" y="312" type="curve" smooth="yes"/>
      <point x="794" y="454"/>
      <point x="694" y="517"/>
      <point x="589" y="517" type="curve" smooth="yes"/>
      <point x="521" y="517"/>
      <point x="468" y="487"/>
      <point x="435" y="435" type="curve"/>
      <point x="401" y="487"/>
      <point x="345" y="517"/>
      <point x="270" y="517" type="curve" smooth="yes"/>
      <point x="129" y="517"/>
      <point x="50" y="425"/>
      <point x="50" y="284" type="curve" smooth="yes"/>
      <point x="50" y="224" type="line" smooth="yes"/>
      <point x="50" y="82"/>
      <point x="130" y="-10"/>
      <point x="270" y="-10" type="curve" smooth="yes"/>
      <point x="344" y="-10"/>
      <point x="400" y="20"/>
      <point x="435" y="72" type="curve"/>
      <point x="469" y="20"/>
      <point x="526" y="-10"/>
      <point x="605" y="-10" type="curve" smooth="yes"/>
      <point x="660" y="-10"/>
      <point x="720" y="1"/>
    </contour>
    <contour>
      <point x="589" y="420" type="curve" smooth="yes"/>
      <point x="640" y="420"/>
      <point x="681" y="388"/>
      <point x="681" y="324" type="curve" smooth="yes"/>
      <point x="681" y="318"/>
      <point x="681" y="312"/>
      <point x="680" y="306" type="curve"/>
      <point x="488" y="306" type="line"/>
      <point x="494" y="379"/>
      <point x="528" y="420"/>
    </contour>
    <contour>
      <point x="376" y="284" type="curve" smooth="yes"/>
      <point x="376" y="224" type="line" smooth="yes"/>
      <point x="376" y="143"/>
      <point x="339" y="93"/>
      <point x="272" y="93" type="curve" smooth="yes"/>
      <point x="205" y="93"/>
      <point x="168" y="143"/>
      <point x="168" y="224" type="curve" smooth="yes"/>
      <point x="168" y="284" type="line" smooth="yes"/>
      <point x="168" y="365"/>
      <point x="205" y="414"/>
      <point x="272" y="414" type="curve" smooth="yes"/>
      <point x="339" y="414"/>
      <point x="376" y="365"/>
    </contour>
  </outline>
</glyph>
<glyph name="Scedilla" format="1">
  <advance width="518"/>
  <unicode hex="015E"/>
  <outline>
    <contour>
      <point x="361" y="-124" type="curve" smooth="yes"/>
      <point x="361" y="-77"/>
      <point x="331" y="-42"/>
      <point x="265" y="-39" type="curve"/>
      <point x="270" y="-9" type="line"/>
      <point x="414" y="-1"/>
      <point x="480" y="78"/>
      <point x="480" y="191" type="curve" smooth="yes"/>
      <point x="480" y="295"/>
      <point x="430" y="356"/>
      <point x="331" y="389" type="curve" smooth="yes"/>
      <point x="249" y="416" type="line" smooth="yes"/>
      <point x="191" y="435"/>
      <point x="169" y="460"/>
      <point x="169" y="503" type="curve" smooth="yes"/>
      <point x="169" y="560"/>
      <point x="206" y="579"/>
      <point x="268" y="579" type="curve" smooth="yes"/>
      <point x="314" y="579"/>
      <point x="354" y="568"/>
      <point x="418" y="543" type="curve"/>
      <point x="455" y="646" type="line"/>
      <point x="386" y="676"/>
      <point x="327" y="690"/>
      <point x="264" y="690" type="curve" smooth="yes"/>
      <point x="115" y="690"/>
      <point x="47" y="609"/>
      <point x="47" y="497" type="curve" smooth="yes"/>
      <point x="47" y="399"/>
      <point x="96" y="336"/>
      <point x="194" y="304" type="curve" smooth="yes"/>
      <point x="276" y="277" type="line" smooth="yes"/>
      <point x="338" y="257"/>
      <point x="358" y="233"/>
      <point x="358" y="187" type="curve" smooth="yes"/>
      <point x="358" y="128"/>
      <point x="319" y="101"/>
      <point x="242" y="101" type="curve" smooth="yes"/>
      <point x="191" y="101"/>
      <point x="144" y="112"/>
      <point x="69" y="144" type="curve"/>
      <point x="32" y="41" type="line"/>
      <point x="92" y="14"/>
      <point x="145" y="-1"/>
      <point x="194" y="-7" type="curve"/>
      <point x="183" y="-73" type="line"/>
      <point x="208" y="-105" type="line"/>
      <point x="218" y="-103"/>
      <point x="225" y="-102"/>
      <point x="235" y="-102" type="curve" smooth="yes"/>
      <point x="265" y="-102"/>
      <point x="274" y="-114"/>
      <point x="274" y="-126" type="curve" smooth="yes"/>
      <point x="274" y="-140"/>
      <point x="263" y="-150"/>
      <point x="235" y="-150" type="curve" smooth="yes"/>
      <point x="216" y="-150"/>
      <point x="190" y="-146"/>
      <point x="163" y="-139" type="curve"/>
      <point x="150" y="-208" type="line"/>
      <point x="178" y="-217"/>
      <point x="203" y="-223"/>
      <point x="235" y="-223" type="curve" smooth="yes"/>
      <point x="310" y="-223"/>
      <point x="361" y="-189"/>
    </contour>
  </outline>
</glyph>
<glyph name="scedilla" format="1">
  <advance width="456"/>
  <unicode hex="015F"/>
  <outline>
    <contour>
      <point x="326" y="-124" type="curve" smooth="yes"/>
      <point x="326" y="-77"/>
      <point x="296" y="-42"/>
      <point x="230" y="-39" type="curve"/>
      <point x="235" y="-10" type="line"/>
      <point x="361" y="-5"/>
      <point x="417" y="59"/>
      <point x="417" y="148" type="curve" smooth="yes"/>
      <point x="417" y="227"/>
      <point x="374" y="278"/>
      <point x="277" y="304" type="curve" smooth="yes"/>
      <point x="220" y="319" type="line" smooth="yes"/>
      <point x="174" y="331"/>
      <point x="161" y="344"/>
      <point x="161" y="369" type="curve" smooth="yes"/>
      <point x="161" y="402"/>
      <point x="186" y="417"/>
      <point x="232" y="417" type="curve" smooth="yes"/>
      <point x="267" y="417"/>
      <point x="312" y="408"/>
      <point x="368" y="381" type="curve"/>
      <point x="401" y="479" type="line"/>
      <point x="340" y="506"/>
      <point x="284" y="517"/>
      <point x="233" y="517" type="curve" smooth="yes"/>
      <point x="107" y="517"/>
      <point x="49" y="450"/>
      <point x="49" y="364" type="curve" smooth="yes"/>
      <point x="49" y="290"/>
      <point x="90" y="235"/>
      <point x="178" y="212" type="curve" smooth="yes"/>
      <point x="235" y="197" type="line" smooth="yes"/>
      <point x="288" y="183"/>
      <point x="306" y="169"/>
      <point x="306" y="140" type="curve" smooth="yes"/>
      <point x="306" y="106"/>
      <point x="270" y="90"/>
      <point x="221" y="90" type="curve" smooth="yes"/>
      <point x="181" y="90"/>
      <point x="131" y="100"/>
      <point x="68" y="125" type="curve"/>
      <point x="37" y="30" type="line"/>
      <point x="80" y="12"/>
      <point x="120" y="1"/>
      <point x="159" y="-5" type="curve"/>
      <point x="148" y="-73" type="line"/>
      <point x="173" y="-105" type="line"/>
      <point x="183" y="-103"/>
      <point x="190" y="-102"/>
      <point x="200" y="-102" type="curve" smooth="yes"/>
      <point x="230" y="-102"/>
      <point x="239" y="-114"/>
      <point x="239" y="-126" type="curve" smooth="yes"/>
      <point x="239" y="-140"/>
      <point x="228" y="-150"/>
      <point x="200" y="-150" type="curve" smooth="yes"/>
      <point x="181" y="-150"/>
      <point x="155" y="-146"/>
      <point x="128" y="-139" type="curve"/>
      <point x="115" y="-208" type="line"/>
      <point x="143" y="-217"/>
      <point x="168" y="-223"/>
      <point x="200" y="-223" type="curve" smooth="yes"/>
      <point x="275" y="-223"/>
      <point x="326" y="-189"/>
    </contour>
  </outline>
</glyph>
<glyph name="Tbar" format="1">
  <advance width="526"/>
  <unicode hex="0166"/>
  <outline>
    <contour>
      <point x="435" y="279" type="line"/>
      <point x="435" y="366" type="line"/>
      <point x="323" y="366" type="line"/>
      <point x="323" y="565" type="line"/>
      <point x="513" y="565" type="line"/>
      <point x="513" y="680" type="line"/>
      <point x="13" y="680" type="line"/>
      <point x="13" y="565" type="line"/>
      <point x="203" y="565" type="line"/>
      <point x="203" y="366" type="line"/>
      <point x="91" y="366" type="line"/>
      <point x="91" y="279" type="line"/>
      <point x="203" y="279" type="line"/>
      <point x="203" y="0" type="line"/>
      <point x="323" y="0" type="line"/>
      <point x="323" y="279" type="line"/>
    </contour>
  </outline>
</glyph>
<glyph name="tbar" format="1">
  <advance width="420"/>
  <unicode hex="0167"/>
  <outline>
    <contour>
      <point x="402" y="17" type="curve"/>
      <point x="373" y="114" type="line"/>
      <point x="342" y="102"/>
      <point x="318" y="98"/>
      <point x="297" y="98" type="curve" smooth="yes"/>
      <point x="253" y="98"/>
      <point x="229" y="117"/>
      <point x="229" y="179" type="curve" smooth="yes"/>
      <point x="229" y="227" type="line"/>
      <point x="348" y="227" type="line"/>
      <point x="348" y="302" type="line"/>
      <point x="229" y="302" type="line"/>
      <point x="229" y="407" type="line"/>
      <point x="387" y="407" type="line"/>
      <point x="387" y="507" type="line"/>
      <point x="229" y="507" type="line"/>
      <point x="229" y="639" type="line"/>
      <point x="114" y="639" type="line"/>
      <point x="114" y="507" type="line"/>
      <point x="32" y="507" type="line"/>
      <point x="32" y="407" type="line"/>
      <point x="114" y="407" type="line"/>
      <point x="114" y="302" type="line"/>
      <point x="32" y="302" type="line"/>
      <point x="32" y="227" type="line"/>
      <point x="114" y="227" type="line"/>
      <point x="114" y="179" type="line" smooth="yes"/>
      <point x="114" y="68"/>
      <point x="156" y="-10"/>
      <point x="273" y="-10" type="curve" smooth="yes"/>
      <point x="320" y="-10"/>
      <point x="367" y="1"/>
    </contour>
  </outline>
</glyph>
<glyph name="Uogonek" format="1">
  <advance width="646"/>
  <unicode hex="0172"/>
  <outline>
    <contour>
      <point x="447" y="-207" type="curve"/>
      <point x="431" y="-124" type="line"/>
      <point x="413" y="-130"/>
      <point x="398" y="-133"/>
      <point x="384" y="-133" type="curve" smooth="yes"/>
      <point x="366" y="-133"/>
      <point x="354" y="-126"/>
      <point x="354" y="-108" type="curve" smooth="yes"/>
      <point x="354" y="-80"/>
      <point x="384" y="-50"/>
      <point x="500" y="52" type="curve" smooth="yes"/>
      <point x="547" y="94"/>
      <point x="568" y="163"/>
      <point x="568" y="244" type="curve" smooth="yes"/>
      <point x="568" y="680" type="line"/>
      <point x="445" y="680" type="line"/>
      <point x="445" y="244" type="line" smooth="yes"/>
      <point x="445" y="156"/>
      <point x="408" y="103"/>
      <point x="323" y="103" type="curve" smooth="yes"/>
      <point x="238" y="103"/>
      <point x="201" y="156"/>
      <point x="201" y="244" type="curve" smooth="yes"/>
      <point x="201" y="680" type="line"/>
      <point x="78" y="680" type="line"/>
      <point x="78" y="244" type="line" smooth="yes"/>
      <point x="78" y="91"/>
      <point x="157" y="-9"/>
      <point x="320" y="-10" type="curve"/>
      <point x="274" y="-55"/>
      <point x="254" y="-91"/>
      <point x="254" y="-130" type="curve" smooth="yes"/>
      <point x="254" y="-187"/>
      <point x="296" y="-223"/>
      <point x="366" y="-223" type="curve" smooth="yes"/>
      <point x="392" y="-223"/>
      <point x="419" y="-218"/>
    </contour>
  </outline>
</glyph>
<glyph name="uogonek" format="1">
  <advance width="569"/>
  <unicode hex="0173"/>
  <outline>
    <contour>
      <point x="490" y="-207" type="curve"/>
      <point x="474" y="-124" type="line"/>
      <point x="456" y="-130"/>
      <point x="441" y="-133"/>
      <point x="427" y="-133" type="curve" smooth="yes"/>
      <point x="409" y="-133"/>
      <point x="397" y="-126"/>
      <point x="397" y="-108" type="curve" smooth="yes"/>
      <point x="397" y="-89"/>
      <point x="416" y="-62"/>
      <point x="490" y="0" type="curve"/>
      <point x="490" y="507" type="line"/>
      <point x="375" y="507" type="line"/>
      <point x="375" y="155" type="line"/>
      <point x="319" y="110"/>
      <point x="282" y="97"/>
      <point x="249" y="97" type="curve" smooth="yes"/>
      <point x="208" y="97"/>
      <point x="187" y="124"/>
      <point x="187" y="181" type="curve" smooth="yes"/>
      <point x="187" y="507" type="line"/>
      <point x="72" y="507" type="line"/>
      <point x="72" y="167" type="line" smooth="yes"/>
      <point x="72" y="55"/>
      <point x="123" y="-10"/>
      <point x="214" y="-10" type="curve" smooth="yes"/>
      <point x="269" y="-10"/>
      <point x="319" y="13"/>
      <point x="381" y="67" type="curve"/>
      <point x="381" y="0" type="line"/>
      <point x="320" y="-52"/>
      <point x="297" y="-92"/>
      <point x="297" y="-132" type="curve" smooth="yes"/>
      <point x="297" y="-187"/>
      <point x="339" y="-223"/>
      <point x="409" y="-223" type="curve" smooth="yes"/>
      <point x="435" y="-223"/>
      <point x="462" y="-218"/>
    </contour>
  </outline>
</glyph>
<glyph name="florin" format="1">
  <advance width="393"/>
  <unicode hex="0192"/>
  <outline>
    <contour>
      <point x="214" y="-33" type="curve" smooth="yes"/>
      <point x="244" y="307" type="line"/>
      <point x="368" y="307" type="line"/>
      <point x="368" y="407" type="line"/>
      <point x="253" y="407" type="line"/>
      <point x="267" y="560" type="line" smooth="yes"/>
      <point x="273" y="622"/>
      <point x="290" y="642"/>
      <point x="336" y="642" type="curve" smooth="yes"/>
      <point x="351" y="642"/>
      <point x="376" y="640"/>
      <point x="402" y="631" type="curve"/>
      <point x="430" y="730" type="line"/>
      <point x="396" y="743"/>
      <point x="351" y="750"/>
      <point x="315" y="750" type="curve" smooth="yes"/>
      <point x="191" y="750"/>
      <point x="162" y="671"/>
      <point x="152" y="560" type="curve" smooth="yes"/>
      <point x="138" y="407" type="line"/>
      <point x="13" y="407" type="line"/>
      <point x="13" y="307" type="line"/>
      <point x="129" y="307" type="line"/>
      <point x="99" y="-33" type="line" smooth="yes"/>
      <point x="93" y="-95"/>
      <point x="76" y="-115"/>
      <point x="30" y="-115" type="curve" smooth="yes"/>
      <point x="15" y="-115"/>
      <point x="-10" y="-113"/>
      <point x="-36" y="-104" type="curve"/>
      <point x="-64" y="-203" type="line"/>
      <point x="-30" y="-216"/>
      <point x="15" y="-223"/>
      <point x="51" y="-223" type="curve" smooth="yes"/>
      <point x="175" y="-223"/>
      <point x="204" y="-144"/>
    </contour>
  </outline>
</glyph>
<glyph name="dotlessj" format="1">
  <advance width="273"/>
  <unicode hex="0237"/>
  <outline>
    <contour>
      <point x="-25" y="-223" type="line"/>
      <point x="149" y="-223"/>
      <point x="194" y="-119"/>
      <point x="194" y="-4" type="curve" smooth="yes"/>
      <point x="194" y="507" type="line"/>
      <point x="79" y="507" type="line"/>
      <point x="79" y="-4" type="line" smooth="yes"/>
      <point x="79" y="-88"/>
      <point x="41" y="-115"/>
      <point x="-25" y="-115" type="curve"/>
    </contour>
  </outline>
</glyph>
<glyph name="circumflex" format="1">
  <advance width="500"/>
  <unicode hex="02C6"/>
  <outline>
    <contour>
      <point x="309" y="579" type="line"/>
      <point x="402" y="579" type="line"/>
      <point x="306" y="740" type="line"/>
      <point x="194" y="740" type="line"/>
      <point x="98" y="579" type="line"/>
      <point x="187" y="579" type="line"/>
      <point x="248" y="659" type="line"/>
    </contour>
  </outline>
</glyph>
<glyph name="caron" format="1">
  <advance width="500"/>
  <unicode hex="02C7"/>
  <outline>
    <contour>
      <point x="402" y="740" type="line"/>
      <point x="313" y="740" type="line"/>
      <point x="252" y="660" type="line"/>
      <point x="191" y="740" type="line"/>
      <point x="98" y="740" type="line"/>
      <point x="194" y="579" type="line"/>
      <point x="306" y="579" type="line"/>
    </contour>
  </outline>
</glyph>
<glyph name="breve" format="1">
  <advance width="500"/>
  <unicode hex="02D8"/>
  <outline>
    <contour>
      <point x="250" y="666" type="curve" smooth="yes"/>
      <point x="222" y="666"/>
      <point x="205" y="683"/>
      <point x="203" y="731" type="curve"/>
      <point x="116" y="731" type="line"/>
      <point x="123" y="627"/>
      <point x="176" y="585"/>
      <point x="250" y="585" type="curve" smooth="yes"/>
      <point x="324" y="585"/>
      <point x="377" y="627"/>
      <point x="384" y="731" type="curve"/>
      <point x="297" y="731" type="line"/>
      <point x="295" y="683"/>
      <point x="279" y="666"/>
    </contour>
  </outline>
</glyph>
<glyph name="dotaccent" format="1">
  <advance width="500"/>
  <unicode hex="02D9"/>
  <outline>
    <contour>
      <point x="311" y="603" type="line"/>
      <point x="311" y="722" type="line"/>
      <point x="190" y="722" type="line"/>
      <point x="190" y="603" type="line"/>
    </contour>
  </outline>
</glyph>
<glyph name="ring" format="1">
  <advance width="500"/>
  <unicode hex="02DA"/>
  <outline>
    <contour>
      <point x="370" y="689" type="line" smooth="yes"/>
      <point x="370" y="757"/>
      <point x="323" y="803"/>
      <point x="250" y="803" type="curve" smooth="yes"/>
      <point x="177" y="803"/>
      <point x="130" y="757"/>
      <point x="130" y="689" type="curve" smooth="yes"/>
      <point x="130" y="678" type="line" smooth="yes"/>
      <point x="130" y="610"/>
      <point x="177" y="563"/>
      <point x="250" y="563" type="curve" smooth="yes"/>
      <point x="323" y="563"/>
      <point x="370" y="610"/>
      <point x="370" y="678" type="curve" smooth="yes"/>
    </contour>
    <contour>
      <point x="299" y="689" type="curve" smooth="yes"/>
      <point x="299" y="678" type="line" smooth="yes"/>
      <point x="299" y="649"/>
      <point x="280" y="630"/>
      <point x="250" y="630" type="curve" smooth="yes"/>
      <point x="220" y="630"/>
      <point x="201" y="649"/>
      <point x="201" y="678" type="curve" smooth="yes"/>
      <point x="201" y="689" type="line" smooth="yes"/>
      <point x="201" y="718"/>
      <point x="220" y="737"/>
      <point x="250" y="737" type="curve" smooth="yes"/>
      <point x="280" y="737"/>
      <point x="299" y="718"/>
    </contour>
  </outline>
</glyph>
<glyph name="ogonek" format="1">
  <advance width="500"/>
  <unicode hex="02DB"/>
  <outline>
    <contour>
      <point x="276" y="-133" type="curve" smooth="yes"/>
      <point x="258" y="-133"/>
      <point x="246" y="-126"/>
      <point x="246" y="-108" type="curve" smooth="yes"/>
      <point x="246" y="-89"/>
      <point x="265" y="-62"/>
      <point x="339" y="0" type="curve"/>
      <point x="286" y="44" type="line"/>
      <point x="183" y="-32"/>
      <point x="146" y="-81"/>
      <point x="146" y="-132" type="curve" smooth="yes"/>
      <point x="146" y="-187"/>
      <point x="188" y="-223"/>
      <point x="258" y="-223" type="curve" smooth="yes"/>
      <point x="284" y="-223"/>
      <point x="311" y="-218"/>
      <point x="339" y="-207" type="curve"/>
      <point x="323" y="-124" type="line"/>
      <point x="305" y="-130"/>
      <point x="290" y="-133"/>
    </contour>
  </outline>
</glyph>
<glyph name="tilde" format="1">
  <advance width="500"/>
  <unicode hex="02DC"/>
  <outline>
    <contour>
      <point x="309" y="588" type="curve" smooth="yes"/>
      <point x="363" y="588"/>
      <point x="402" y="625"/>
      <point x="402" y="742" type="curve"/>
      <point x="321" y="742" type="line"/>
      <point x="320" y="690"/>
      <point x="315" y="678"/>
      <point x="303" y="678" type="curve" smooth="yes"/>
      <point x="273" y="678"/>
      <point x="256" y="750"/>
      <point x="191" y="750" type="curve" smooth="yes"/>
      <point x="137" y="750"/>
      <point x="98" y="712"/>
      <point x="98" y="596" type="curve"/>
      <point x="179" y="596" type="line"/>
      <point x="180" y="648"/>
      <point x="185" y="660"/>
      <point x="197" y="660" type="curve" smooth="yes"/>
      <point x="227" y="660"/>
      <point x="244" y="588"/>
    </contour>
  </outline>
</glyph>
<glyph name="hungarumlaut" format="1">
  <advance width="500"/>
  <unicode hex="02DD"/>
  <outline>
    <contour>
      <point x="221" y="579" type="line"/>
      <point x="294" y="699" type="line"/>
      <point x="206" y="745" type="line"/>
      <point x="130" y="579" type="line"/>
    </contour>
    <contour>
      <point x="371" y="579" type="line"/>
      <point x="444" y="699" type="line"/>
      <point x="356" y="745" type="line"/>
      <point x="280" y="579" type="line"/>
    </contour>
  </outline>
</glyph>
<glyph name="pi" format="1">
  <advance width="584"/>
  <unicode hex="03C0"/>
  <outline>
    <contour>
      <point x="15" y="407" type="line"/>
      <point x="97" y="407" type="line"/>
      <point x="97" y="0" type="line"/>
      <point x="212" y="0" type="line"/>
      <point x="212" y="407" type="line"/>
      <point x="369" y="407" type="line"/>
      <point x="369" y="143" type="line" smooth="yes"/>
      <point x="369" y="68"/>
      <point x="394" y="-5"/>
      <point x="513" y="-5" type="curve" smooth="yes"/>
      <point x="566" y="-5" type="line"/>
      <point x="566" y="101" type="line"/>
      <point x="525" y="101" type="line" smooth="yes"/>
      <point x="493" y="101"/>
      <point x="484" y="123"/>
      <point x="484" y="143" type="curve" smooth="yes"/>
      <point x="484" y="407" type="line"/>
      <point x="566" y="407" type="line"/>
      <point x="566" y="507" type="line"/>
      <point x="15" y="507" type="line"/>
    </contour>
  </outline>
</glyph>
<glyph name="uni1E9E" format="1">
  <advance width="611"/>
  <unicode hex="1E9E"/>
  <outline>
    <contour>
      <point x="574" y="166" type="curve" smooth="yes"/>
      <point x="574" y="180" type="line" smooth="yes"/>
      <point x="574" y="288"/>
      <point x="530" y="334"/>
      <point x="436" y="375" type="curve" smooth="yes"/>
      <point x="408" y="387" type="line"/>
      <point x="492" y="537" type="line"/>
      <point x="492" y="620" type="line"/>
      <point x="444" y="660"/>
      <point x="376" y="690"/>
      <point x="294" y="690" type="curve" smooth="yes"/>
      <point x="154" y="690"/>
      <point x="74" y="608"/>
      <point x="74" y="457" type="curve" smooth="yes"/>
      <point x="74" y="0" type="line"/>
      <point x="194" y="0" type="line"/>
      <point x="194" y="457" type="line" smooth="yes"/>
      <point x="194" y="544"/>
      <point x="231" y="579"/>
      <point x="301" y="579" type="curve" smooth="yes"/>
      <point x="329" y="579"/>
      <point x="356" y="573"/>
      <point x="379" y="562" type="curve"/>
      <point x="292" y="394" type="line"/>
      <point x="292" y="311" type="line"/>
      <point x="383" y="272" type="line" smooth="yes"/>
      <point x="432" y="251"/>
      <point x="452" y="229"/>
      <point x="452" y="180" type="curve" smooth="yes"/>
      <point x="452" y="166" type="line" smooth="yes"/>
      <point x="452" y="128"/>
      <point x="433" y="101"/>
      <point x="381" y="101" type="curve" smooth="yes"/>
      <point x="352" y="101"/>
      <point x="311" y="106"/>
      <point x="267" y="127" type="curve"/>
      <point x="237" y="24" type="line"/>
      <point x="290" y="0"/>
      <point x="343" y="-10"/>
      <point x="389" y="-10" type="curve" smooth="yes"/>
      <point x="507" y="-10"/>
      <point x="574" y="60"/>
    </contour>
  </outline>
</glyph>
<glyph name="endash" format="1">
  <advance width="604"/>
  <unicode hex="2013"/>
  <outline>
    <contour>
      <point x="50" y="265" type="line"/>
      <point x="554" y="265" type="line"/>
      <point x="554" y="365" type="line"/>
      <point x="50" y="365" type="line"/>
    </contour>
  </outline>
</glyph>
<glyph name="emdash" format="1">
  <advance width="804"/>
  <unicode hex="2014"/>
  <outline>
    <contour>
      <point x="50" y="265" type="line"/>
      <point x="754" y="265" type="line"/>
      <point x="754" y="365" type="line"/>
      <point x="50" y="365" type="line"/>
    </contour>
  </outline>
</glyph>
<glyph name="quoteleft" format="1">
  <advance width="211"/>
  <unicode hex="2018"/>
  <outline>
    <contour>
      <point x="31" y="388" type="line"/>
      <point x="143" y="388" type="line"/>
      <point x="143" y="501"/>
      <point x="148" y="553"/>
      <point x="195" y="651" type="curve"/>
      <point x="123" y="690" type="line"/>
      <point x="57" y="586"/>
      <point x="31" y="505"/>
      <point x="31" y="407" type="curve" smooth="yes"/>
    </contour>
  </outline>
</glyph>
<glyph name="quoteright" format="1">
  <advance width="211"/>
  <unicode hex="2019"/>
  <outline>
    <contour>
      <point x="180" y="680" type="line"/>
      <point x="68" y="680" type="line"/>
      <point x="68" y="567"/>
      <point x="63" y="515"/>
      <point x="16" y="417" type="curve"/>
      <point x="88" y="378" type="line"/>
      <point x="154" y="482"/>
      <point x="180" y="563"/>
      <point x="180" y="661" type="curve" smooth="yes"/>
    </contour>
  </outline>
</glyph>
<glyph name="quotedblleft" format="1">
  <advance width="396"/>
  <unicode hex="201C"/>
  <outline>
    <contour>
      <point x="216" y="388" type="line"/>
      <point x="328" y="388" type="line"/>
      <point x="328" y="501"/>
      <point x="333" y="553"/>
      <point x="380" y="651" type="curve"/>
      <point x="308" y="690" type="line"/>
      <point x="242" y="586"/>
      <point x="216" y="505"/>
      <point x="216" y="407" type="curve" smooth="yes"/>
    </contour>
    <contour>
      <point x="31" y="388" type="line"/>
      <point x="143" y="388" type="line"/>
      <point x="143" y="501"/>
      <point x="148" y="553"/>
      <point x="195" y="651" type="curve"/>
      <point x="123" y="690" type="line"/>
      <point x="57" y="586"/>
      <point x="31" y="505"/>
      <point x="31" y="407" type="curve" smooth="yes"/>
    </contour>
  </outline>
</glyph>
<glyph name="quotedblright" format="1">
  <advance width="396"/>
  <unicode hex="201D"/>
  <outline>
    <contour>
      <point x="180" y="680" type="line"/>
      <point x="68" y="680" type="line"/>
      <point x="68" y="567"/>
      <point x="63" y="515"/>
      <point x="16" y="417" type="curve"/>
      <point x="88" y="378" type="line"/>
      <point x="154" y="482"/>
      <point x="180" y="563"/>
      <point x="180" y="661" type="curve" smooth="yes"/>
    </contour>
    <contour>
      <point x="365" y="680" type="line"/>
      <point x="253" y="680" type="line"/>
      <point x="253" y="567"/>
      <point x="248" y="515"/>
      <point x="201" y="417" type="curve"/>
      <point x="273" y="378" type="line"/>
      <point x="339" y="482"/>
      <point x="365" y="563"/>
      <point x="365" y="661" type="curve" smooth="yes"/>
    </contour>
  </outline>
</glyph>
<glyph name="quotedblbase" format="1">
  <advance width="396"/>
  <unicode hex="201E"/>
  <outline>
    <contour>
      <point x="162" y="119" type="line"/>
      <point x="50" y="119" type="line"/>
      <point x="50" y="6"/>
      <point x="45" y="-46"/>
      <point x="-2" y="-144" type="curve"/>
      <point x="70" y="-183" type="line"/>
      <point x="136" y="-79"/>
      <point x="162" y="2"/>
      <point x="162" y="100" type="curve" smooth="yes"/>
    </contour>
    <contour>
      <point x="347" y="119" type="line"/>
      <point x="235" y="119" type="line"/>
      <point x="235" y="6"/>
      <point x="230" y="-46"/>
      <point x="183" y="-144" type="curve"/>
      <point x="255" y="-183" type="line"/>
      <point x="321" y="-79"/>
      <point x="347" y="2"/>
      <point x="347" y="100" type="curve" smooth="yes"/>
    </contour>
  </outline>
</glyph>
<glyph name="dagger" format="1">
  <advance width="433"/>
  <unicode hex="2020"/>
  <outline>
    <contour>
      <point x="358" y="422" type="line"/>
      <point x="418" y="422" type="line"/>
      <point x="418" y="531" type="line"/>
      <point x="358" y="531" type="line"/>
      <point x="257" y="515" type="line"/>
      <point x="274" y="620" type="line"/>
      <point x="274" y="680" type="line"/>
      <point x="159" y="680" type="line"/>
      <point x="159" y="620" type="line"/>
      <point x="175" y="516" type="line"/>
      <point x="75" y="532" type="line"/>
      <point x="15" y="532" type="line"/>
      <point x="15" y="423" type="line"/>
      <point x="75" y="423" type="line"/>
      <point x="176" y="439" type="line"/>
      <point x="158" y="308" type="line"/>
      <point x="158" y="199" type="line"/>
      <point x="180" y="-143" type="line"/>
      <point x="250" y="-143" type="line"/>
      <point x="273" y="199" type="line"/>
      <point x="273" y="308" type="line"/>
      <point x="256" y="439" type="line"/>
    </contour>
  </outline>
</glyph>
<glyph name="daggerdbl" format="1">
  <advance width="455"/>
  <unicode hex="2021"/>
  <outline>
    <contour>
      <point x="284" y="-83" type="line"/>
      <point x="268" y="21" type="line"/>
      <point x="368" y="5" type="line"/>
      <point x="428" y="5" type="line"/>
      <point x="428" y="114" type="line"/>
      <point x="368" y="114" type="line"/>
      <point x="267" y="98" type="line"/>
      <point x="285" y="229" type="line"/>
      <point x="285" y="308" type="line"/>
      <point x="268" y="439" type="line"/>
      <point x="370" y="422" type="line"/>
      <point x="430" y="422" type="line"/>
      <point x="430" y="531" type="line"/>
      <point x="370" y="531" type="line"/>
      <point x="269" y="515" type="line"/>
      <point x="286" y="620" type="line"/>
      <point x="286" y="680" type="line"/>
      <point x="171" y="680" type="line"/>
      <point x="171" y="620" type="line"/>
      <point x="187" y="516" type="line"/>
      <point x="87" y="532" type="line"/>
      <point x="27" y="532" type="line"/>
      <point x="27" y="423" type="line"/>
      <point x="87" y="423" type="line"/>
      <point x="188" y="439" type="line"/>
      <point x="170" y="308" type="line"/>
      <point x="170" y="229" type="line"/>
      <point x="187" y="98" type="line"/>
      <point x="85" y="115" type="line"/>
      <point x="25" y="115" type="line"/>
      <point x="25" y="6" type="line"/>
      <point x="85" y="6" type="line"/>
      <point x="186" y="22" type="line"/>
      <point x="169" y="-83" type="line"/>
      <point x="169" y="-143" type="line"/>
      <point x="284" y="-143" type="line"/>
    </contour>
  </outline>
</glyph>
<glyph name="bullet" format="1">
  <advance width="243"/>
  <unicode hex="2022"/>
  <outline>
    <contour>
      <point x="194" y="262" type="line"/>
      <point x="194" y="405" type="line"/>
      <point x="49" y="405" type="line"/>
      <point x="49" y="262" type="line"/>
    </contour>
  </outline>
</glyph>
<glyph name="perthousand" format="1">
  <advance width="1075"/>
  <unicode hex="2030"/>
  <outline>
    <contour>
      <point x="310" y="546" type="line" smooth="yes"/>
      <point x="310" y="633"/>
      <point x="264" y="685"/>
      <point x="173" y="685" type="curve" smooth="yes"/>
      <point x="82" y="685"/>
      <point x="36" y="633"/>
      <point x="36" y="546" type="curve" smooth="yes"/>
      <point x="36" y="515" type="line" smooth="yes"/>
      <point x="36" y="428"/>
      <point x="82" y="375"/>
      <point x="173" y="375" type="curve" smooth="yes"/>
      <point x="263" y="375"/>
      <point x="310" y="428"/>
      <point x="310" y="515" type="curve" smooth="yes"/>
    </contour>
    <contour>
      <point x="485" y="680" type="line"/>
      <point x="156" y="0" type="line"/>
      <point x="246" y="0" type="line"/>
      <point x="575" y="680" type="line"/>
    </contour>
    <contour>
      <point x="230" y="546" type="curve" smooth="yes"/>
      <point x="230" y="515" type="line" smooth="yes"/>
      <point x="230" y="472"/>
      <point x="212" y="451"/>
      <point x="173" y="451" type="curve" smooth="yes"/>
      <point x="134" y="451"/>
      <point x="117" y="472"/>
      <point x="117" y="515" type="curve" smooth="yes"/>
      <point x="117" y="546" type="line" smooth="yes"/>
      <point x="117" y="588"/>
      <point x="134" y="610"/>
      <point x="173" y="610" type="curve" smooth="yes"/>
      <point x="212" y="610"/>
      <point x="230" y="588"/>
    </contour>
    <contour>
      <point x="696" y="166" type="line" smooth="yes"/>
      <point x="696" y="253"/>
      <point x="650" y="305"/>
      <point x="559" y="305" type="curve" smooth="yes"/>
      <point x="468" y="305"/>
      <point x="422" y="253"/>
      <point x="422" y="166" type="curve" smooth="yes"/>
      <point x="422" y="135" type="line" smooth="yes"/>
      <point x="422" y="48"/>
      <point x="468" y="-5"/>
      <point x="559" y="-5" type="curve" smooth="yes"/>
      <point x="649" y="-5"/>
      <point x="696" y="48"/>
      <point x="696" y="135" type="curve" smooth="yes"/>
    </contour>
    <contour>
      <point x="1039" y="166" type="line" smooth="yes"/>
      <point x="1039" y="253"/>
      <point x="993" y="305"/>
      <point x="902" y="305" type="curve" smooth="yes"/>
      <point x="811" y="305"/>
      <point x="765" y="253"/>
      <point x="765" y="166" type="curve" smooth="yes"/>
      <point x="765" y="135" type="line" smooth="yes"/>
      <point x="765" y="48"/>
      <point x="811" y="-5"/>
      <point x="902" y="-5" type="curve" smooth="yes"/>
      <point x="992" y="-5"/>
      <point x="1039" y="48"/>
      <point x="1039" y="135" type="curve" smooth="yes"/>
    </contour>
    <contour>
      <point x="616" y="166" type="curve" smooth="yes"/>
      <point x="616" y="135" type="line" smooth="yes"/>
      <point x="616" y="92"/>
      <point x="598" y="71"/>
      <point x="559" y="71" type="curve" smooth="yes"/>
      <point x="520" y="71"/>
      <point x="503" y="92"/>
      <point x="503" y="135" type="curve" smooth="yes"/>
      <point x="503" y="166" type="line" smooth="yes"/>
      <point x="503" y="208"/>
      <point x="520" y="230"/>
      <point x="559" y="230" type="curve" smooth="yes"/>
      <point x="598" y="230"/>
      <point x="616" y="208"/>
    </contour>
    <contour>
      <point x="959" y="166" type="curve" smooth="yes"/>
      <point x="959" y="135" type="line" smooth="yes"/>
      <point x="959" y="92"/>
      <point x="941" y="71"/>
      <point x="902" y="71" type="curve" smooth="yes"/>
      <point x="863" y="71"/>
      <point x="846" y="92"/>
      <point x="846" y="135" type="curve" smooth="yes"/>
      <point x="846" y="166" type="line" smooth="yes"/>
      <point x="846" y="208"/>
      <point x="863" y="230"/>
      <point x="902" y="230" type="curve" smooth="yes"/>
      <point x="941" y="230"/>
      <point x="959" y="208"/>
    </contour>
  </outline>
</glyph>
<glyph name="guilsinglleft" format="1">
  <advance width="391"/>
  <unicode hex="2039"/>
  <outline>
    <contour>
      <point x="338" y="134" type="line"/>
      <point x="154" y="249" type="line"/>
      <point x="338" y="362" type="line"/>
      <point x="338" y="478" type="line"/>
      <point x="42" y="286" type="line"/>
      <point x="42" y="209" type="line"/>
      <point x="338" y="14" type="line"/>
    </contour>
  </outline>
</glyph>
<glyph name="guilsinglright" format="1">
  <advance width="391"/>
  <unicode hex="203A"/>
  <outline>
    <contour>
      <point x="349" y="206" type="line"/>
      <point x="349" y="283" type="line"/>
      <point x="53" y="478" type="line"/>
      <point x="53" y="358" type="line"/>
      <point x="237" y="243" type="line"/>
      <point x="53" y="130" type="line"/>
      <point x="53" y="14" type="line"/>
    </contour>
  </outline>
</glyph>
<glyph name="Euro" format="1">
  <advance width="598"/>
  <unicode hex="20AC"/>
  <outline>
    <contour>
      <point x="567" y="34" type="curve"/>
      <point x="530" y="138" type="line"/>
      <point x="466" y="112"/>
      <point x="427" y="103"/>
      <point x="387" y="103" type="curve" smooth="yes"/>
      <point x="311" y="103"/>
      <point x="271" y="143"/>
      <point x="256" y="207" type="curve"/>
      <point x="419" y="207" type="line"/>
      <point x="437" y="294" type="line"/>
      <point x="250" y="294" type="line"/>
      <point x="250" y="370" type="line"/>
      <point x="450" y="370" type="line"/>
      <point x="468" y="457" type="line"/>
      <point x="253" y="457" type="line"/>
      <point x="264" y="530"/>
      <point x="305" y="577"/>
      <point x="387" y="577" type="curve" smooth="yes"/>
      <point x="425" y="577"/>
      <point x="463" y="567"/>
      <point x="524" y="542" type="curve"/>
      <point x="561" y="648" type="line"/>
      <point x="491" y="679"/>
      <point x="434" y="690"/>
      <point x="380" y="690" type="curve" smooth="yes"/>
      <point x="228" y="690"/>
      <point x="144" y="595"/>
      <point x="129" y="457" type="curve"/>
      <point x="45" y="457" type="line"/>
      <point x="45" y="370" type="line"/>
      <point x="127" y="370" type="line"/>
      <point x="127" y="294" type="line"/>
      <point x="45" y="294" type="line"/>
      <point x="45" y="207" type="line"/>
      <point x="131" y="207" type="line"/>
      <point x="151" y="77"/>
      <point x="235" y="-10"/>
      <point x="380" y="-10" type="curve" smooth="yes"/>
      <point x="436" y="-10"/>
      <point x="495" y="2"/>
    </contour>
  </outline>
</glyph>
<glyph name="uni20B9" format="1">
  <advance width="552"/>
  <unicode hex="20B9"/>
  <outline>
    <contour>
      <point x="428" y="422" type="curve"/>
      <point x="511" y="422" type="line"/>
      <point x="511" y="509" type="line"/>
      <point x="428" y="509" type="line"/>
      <point x="423" y="542"/>
      <point x="409" y="571"/>
      <point x="386" y="593" type="curve"/>
      <point x="511" y="593" type="line"/>
      <point x="511" y="680" type="line"/>
      <point x="59" y="680" type="line"/>
      <point x="59" y="593" type="line"/>
      <point x="215" y="593" type="line" smooth="yes"/>
      <point x="273" y="593"/>
      <point x="308" y="561"/>
      <point x="315" y="509" type="curve"/>
      <point x="59" y="509" type="line"/>
      <point x="59" y="422" type="line"/>
      <point x="316" y="422" type="line"/>
      <point x="308" y="369"/>
      <point x="273" y="337"/>
      <point x="215" y="337" type="curve" smooth="yes"/>
      <point x="59" y="337" type="line"/>
      <point x="59" y="250" type="line"/>
      <point x="165" y="165"/>
      <point x="228" y="100"/>
      <point x="315" y="0" type="curve"/>
      <point x="472" y="0" type="line"/>
      <point x="387" y="100"/>
      <point x="317" y="167"/>
      <point x="216" y="250" type="curve"/>
      <point x="343" y="250"/>
      <point x="419" y="317"/>
    </contour>
  </outline>
</glyph>
